{
.appVersion = "3151";
.formatVersion = 3;
DisplayStrings = (
"ˋ"
);
classes = (
{
automatic = 1;
code = "A Aacute Abreve Acircumflex Adieresis Adotbelow Agrave Amacron Aogonek Aring Aringacute Atilde AE AEacute B C Cacute Ccaron Ccedilla Ccedillaacute Ccircumflex Cdotaccent D Eth Dcaron Dcroat Ddotbelow Dmacronbelow E Eacute Ebreve Ecaron Ecedillabreve Ecircumflex Edieresis Edotaccent Edotbelow Egrave Emacron Emacronacute Emacrongrave Eogonek Etilde Schwa F G Gbreve Gcaron Gcircumflex Gcommaaccent Gdotaccent Gmacron H Hbar Hbrevebelow Hcircumflex Hdotbelow I IJ Iacute Ibreve Icircumflex Idieresis Idieresisacute Idotaccent Idotbelow Igrave Imacron Iogonek Itilde J Jacute Jcircumflex K Kcommaaccent L Lacute Lcaron Lcommaaccent Ldot Ldotbelow Lmacronbelow Lslash M Mdotbelow N Nacute Ncaron Ncommaaccent Ndotaccent Ndotbelow Nhookleft Nmacronbelow Ntilde Eng O Oacute Obreve Ocircumflex Odieresis Odotbelow Ograve Ohungarumlaut Omacron Omacronacute Omacrongrave Oogonek Oslash Oslashacute Otilde Otildeacute Otildedieresis OE P Thorn Q R Racute Rcaron Rcommaaccent Rdotbelow Rmacronbelow S Sacute Sacutedotaccent Scaron Scarondotaccent Scedilla Scircumflex Scommaaccent Sdotaccent Sdotbelow Sdotbelowdotaccent Germandbls T Tbar Tcaron Tcedilla Tcommaaccent Tdotbelow Tmacronbelow U Uacute Ubreve Ucircumflex Udieresis Udotbelow Ugrave Uhungarumlaut Umacron Umacrondieresis Uogonek Uring Utilde Utildeacute V W Wacute Wcircumflex Wdieresis Wgrave X Y Yacute Ycircumflex Ydieresis Ydotaccent Ygrave Ymacron Ytilde Z Zacute Zcaron Zdotaccent Zdotbelow Delta Omega";
name = Uppercase;
}
);
customParameters = (
{
name = blueScale;
value = 0.037;
},
{
name = fsType;
value = (
);
},
{
name = "Use Typo Metrics";
value = 1;
}
);
date = "2013-01-17 11:19:49 +0000";
familyName = "Young Serif";
featurePrefixes = (
{
automatic = 1;
code = "languagesystem DFLT dflt;

languagesystem latn dflt;
languagesystem latn AZE;
languagesystem latn CRT;
languagesystem latn KAZ;
languagesystem latn TAT;

glyphs = (
{
glyphname = A;
kernLeft = A;
kernRight = A;
lastChange = "2023-03-30 09:40:38 +0000";
layers = (
{
anchors = (
{
name = bottom;
pos = (364,0);
},
{
name = ogonek;
pos = (765,0);
},
{
name = top;
pos = (388,750);
}
);
hints = (
{
horizontal = 1;
place = (749.56, -20);
target = down;
type = TopGhost;
},
{
horizontal = 1;
options = 4;
origin = (0,18);
stem = -1;
target = (0,11);
type = TTStem;
},
{
horizontal = 1;
options = 4;
origin = (0,33);
stem = -1;
target = (1,2);
type = TTStem;
},
{
horizontal = 1;
options = 4;
origin = (0,4);
type = TTSnap;
},
{
horizontal = 1;
options = 4;
origin = (0,4);
stem = -1;
target = (1,0);
type = TTStem;
}
);
layerId = "6AD408C6-91F3-4F0B-A103-73D10F5280D9";
shapes = (
{
closed = 1;
nodes = (
(466,738,ls),
(463,746,o),
(457,750,o),
(449,750,cs),
(328,750,ls),
(319,750,o),
(314,746,o),
(311,737,cs),
(96,155,ls),
(77,103,o),
(61,60,o),
(21,60,cs),
(7,60,o),
(6,55,o),
(6,45,cs),
(6,15,ls),
(6,5,o),
(11,0,o),
(21,0,cs),
(270,0,ls),
(279,0,o),
(285,5,o),
(285,15,cs),
(285,45,ls),
(285,55,o),
(284,60,o),
(270,60,cs),
(235,60,o),
(192,87,o),
(192,130,cs),
(192,136,o),
(193,146,o),
(196,155,cs),
(226,240,l),
(500,240,l),
(531,155,ls),
(534,146,o),
(536,138,o),
(536,129,cs),
(536,90,o),
(494,60,o),
(458,60,cs),
(444,60,o),
(443,55,o),
(443,45,cs),
(443,15,ls),
(443,5,o),
(449,0,o),
(458,0,cs),
(765,0,ls),
(775,0,o),
(780,5,o),
(780,15,cs),
(780,45,ls),
(780,55,o),
(778,60,o),
(765,60,cs),
(728,60,o),
(712,100,o),
(691,155,cs)
);
},
{
closed = 1;
nodes = (
(360,619,l),
(468,327,l),
(257,327,l)
);
}
);
width = 786;
}
);
note = A;
unicode = 65;
},
{
glyphname = AE;
kernLeft = AE;
kernRight = E;
lastChange = "2023-03-30 09:40:37 +0000";
layers = (
{
anchors = (
{
name = top;
pos = (733,750);
}
);
layerId = "6AD408C6-91F3-4F0B-A103-73D10F5280D9";
shapes = (
{
closed = 1;
nodes = (
(1009,0,ls),
(1021,0,o),
(1025,-1,o),
(1029,-5,cs),
(1034,-10,ls),
(1037,-13,o),
(1040,-14,o),
(1043,-14,cs),
(1048,-14,o),
(1052,-11,o),
(1055,-5,cs),
(1149,193,ls),
(1151,197,o),
(1152,200,o),
(1152,203,cs),
(1152,208,o),
(1148,211,o),
(1143,214,cs),
(1111,233,ls),
(1108,235,o),
(1106,235,o),
(1103,235,cs),
(1097,235,o),
(1093,232,o),
(1090,227,cs),
(1087,221,ls),
(1031,109,o),
(976,71,o),
(829,71,cs),
(764,71,ls),
(719,71,o),
(695,104,o),
(695,166,cs),
(695,364,l),
(783,364,ls),
(844,364,o),
(878,342,o),
(878,297,cs),
(878,291,ls),
(878,281,o),
(883,276,o),
(893,276,cs),
(923,276,ls),
(933,276,o),
(938,281,o),
(938,291,cs),
(938,518,ls),
(938,528,o),
(933,533,o),
(923,533,cs),
(893,533,ls),
(883,533,o),
(878,528,o),
(878,518,cs),
(878,511,ls),
(878,467,o),
(843,444,o),
(783,444,cs),
(695,444,l),
(695,679,l),
(857,679,ls),
(934,679,o),
(976,655,o),
(1017,586,cs),
(1020,581,ls),
(1023,575,o),
(1027,572,o),
(1032,572,cs),
(1035,572,o),
(1038,573,o),
(1043,576,cs),
(1083,598,ls),
(1088,601,o),
(1091,605,o),
(1091,610,cs),
(1091,613,o),
(1090,616,o),
(1088,619,cs),
(1009,755,ls),
(1006,760,o),
(1001,763,o),
(996,763,cs),
(993,763,o),
(990,762,o),
(988,760,cs),
(982,755,ls),
(977,751,o),
(973,750,o),
(963,750,cs),
(387,750,ls),
(377,750,o),
(372,744,o),
(372,734,cs),
(372,704,ls),
(372,695,o),
(377,689,o),
(387,689,cs),
(388,689,ls),
(420,689,o),
(433,683,o),
(433,669,cs),
(433,659,o),
(427,644,o),
(418,628,cs),
(145,155,ls),
(117,107,o),
(77,65,o),
(20,65,cs),
(8,65,o),
(5,59,o),
(5,50,cs),
(5,15,ls),
(5,5,o),
(10,0,o),
(20,0,cs),
(269,0,ls),
(278,0,o),
(284,5,o),
(284,15,cs),
(284,50,ls),
(284,59,o),
(284,65,o),
(269,65,cs),
(246,65,o),
(227,78,o),
(227,100,cs),
(227,114,o),
(234,135,o),
(245,155,cs),
(292,239,l),
(530,239,l),
(530,155,ls),
(530,98,o),
(497,68,o),
(457,68,cs),
(445,68,o),
(442,62,o),
(442,53,cs),
(442,15,ls),
(442,5,o),
(448,0,o),
(457,0,cs)
);
},
{
closed = 1;
nodes = (
(529,661,l),
(529,326,l),
(341,326,l)
);
}
);
width = 1172;
}
);
metricRight = E;
note = AE;
unicode = 198;
},
{
glyphname = B;
kernLeft = B;
kernRight = B;
lastChange = "2023-03-30 09:40:37 +0000";
layers = (
{
hints = (
{
horizontal = 1;
options = 4;
origin = (0,21);
stem = -1;
target = (0,14);
type = TTStem;
},
{
horizontal = 1;
options = 4;
origin = (2,4);
stem = -1;
target = (1,0);
type = TTStem;
},
{
horizontal = 1;
options = 4;
origin = (0,0);
stem = -1;
target = (0,7);
type = TTStem;
}
);
layerId = "6AD408C6-91F3-4F0B-A103-73D10F5280D9";
shapes = (
{
closed = 1;
nodes = (
(45,750,ls),
(35,750,o),
(30,745,o),
(30,735,cs),
(30,705,ls),
(30,695,o),
(35,690,o),
(45,690,cs),
(94,690,o),
(119,658,o),
(119,595,cs),
(119,155,ls),
(119,92,o),
(94,60,o),
(45,60,cs),
(35,60,o),
(30,55,o),
(30,45,cs),
(30,15,ls),
(30,5,o),
(35,0,o),
(45,0,cs),
(412,0,ls),
(569,0,o),
(679,91,o),
(679,221,cs),
(679,321,o),
(617,399,o),
(513,429,c),
(578,462,o),
(614,511,o),
(614,569,cs),
(614,671,o),
(506,750,o),
(367,750,cs)
);
},
{
closed = 1;
nodes = (
(278,448,l),
(278,690,l),
(339,690,ls),
(418,690,o),
(464,645,o),
(464,569,cs),
(464,493,o),
(417,448,o),
(335,448,cs)
);
},
{
closed = 1;
nodes = (
(344,60,ls),
(301,60,o),
(278,94,o),
(278,155,cs),
(278,377,l),
(336,377,ls),
(466,377,o),
(529,326,o),
(529,221,cs),
(529,120,o),
(470,60,o),
(369,60,cs)
);
}
);
width = 719;
}
);
note = B;
unicode = 66;
},
{
glyphname = C;
kernLeft = C;
kernRight = C;
lastChange = "2023-03-30 09:41:19 +0000";
layers = (
{
anchors = (
{
name = bottom;
pos = (407,0);
},
{
name = top;
pos = (401,750);
}
);
layerId = "6AD408C6-91F3-4F0B-A103-73D10F5280D9";
shapes = (
{
closed = 1;
nodes = (
(695,256,ls),
(689,259,o),
(686,260,o),
(682,260,cs),
(675,260,o),
(669,256,o),
(665,247,cs),
(633,175,o),
(571,84,o),
(423,84,cs),
(274,84,o),
(206,217,o),
(206,411,cs),
(206,523,o),
(253,683,o),
(396,683,cs),
(510,683,o),
(543,593,o),
(543,522,cs),
(543,515,o),
(541,492,o),
(541,489,cs),
(541,482,o),
(545,479,o),
(553,479,cs),
(559,479,o),
(566,481,o),
(571,483,cs),
(693,526,ls),
(704,530,o),
(710,536,o),
(710,546,cs),
(710,590,o),
(643,762,o),
(404,762,cs),
(116,762,o),
(35,534,o),
(35,367,cs),
(35,152,o),
(167,-13,o),
(407,-13,cs),
(600,-13,o),
(699,115,o),
(742,219,cs),
(743,222,o),
(744,225,o),
(744,227,cs),
(744,233,o),
(738,236,o),
(730,240,cs)
);
}
);
width = 749;
}
);
note = C;
unicode = 67;
},
{
glyphname = D;
kernLeft = B;
kernRight = D;
lastChange = "2023-03-30 09:40:37 +0000";
layers = (
{
anchors = (
{
name = bottom;
pos = (353,0);
},
{
name = top;
pos = (351,750);
}
);
layerId = "6AD408C6-91F3-4F0B-A103-73D10F5280D9";
shapes = (
{
closed = 1;
nodes = (
(45,750,ls),
(35,750,o),
(30,745,o),
(30,735,cs),
(30,705,ls),
(30,695,o),
(35,690,o),
(45,690,cs),
(46,690,ls),
(94,690,o),
(119,658,o),
(119,595,cs),
(119,155,ls),
(119,95,o),
(96,60,o),
(52,60,cs),
(45,60,ls),
(35,60,o),
(30,55,o),
(30,45,cs),
(30,15,ls),
(30,5,o),
(35,0,o),
(45,0,cs),
(381,0,ls),
(609,0,o),
(755,137,o),
(755,376,cs),
(755,608,o),
(592,750,o),
(353,750,cs)
);
},
{
closed = 1;
nodes = (
(278,690,l),
(325,690,ls),
(514,690,o),
(603,569,o),
(603,376,cs),
(603,159,o),
(511,65,o),
(352,65,cs),
(288,65,o),
(278,98,o),
(278,150,cs)
);
}
);
width = 790;
}
);
note = D;
unicode = 68;
},
{
glyphname = Eth;
kernLeft = B;
kernRight = D;
lastChange = "2023-03-30 09:40:38 +0000";
layers = (
{
layerId = "6AD408C6-91F3-4F0B-A103-73D10F5280D9";
shapes = (
{
closed = 1;
nodes = (
(490,303,ls),
(500,303,o),
(505,309,o),
(505,318,cs),
(505,405,ls),
(505,415,o),
(500,420,o),
(490,420,cs),
(45,420,ls),
(35,420,o),
(30,415,o),
(30,405,cs),
(30,318,ls),
(30,309,o),
(35,303,o),
(45,303,cs)
);
},
{
ref = D;
}
);
width = 790;
}
);
note = Eth;
unicode = 208;
},
{
glyphname = E;
kernLeft = B;
kernRight = E;
lastChange = "2023-03-30 09:40:37 +0000";
layers = (
{
anchors = (
{
name = bottom;
pos = (374,0);
},
{
name = ogonek;
pos = (592,0);
},
{
name = top;
pos = (365,750);
}
);
layerId = "6AD408C6-91F3-4F0B-A103-73D10F5280D9";
shapes = (
{
closed = 1;
nodes = (
(694,233,ls),
(691,235,o),
(689,235,o),
(686,235,cs),
(680,235,o),
(676,232,o),
(673,227,cs),
(670,221,ls),
(614,109,o),
(559,71,o),
(412,71,cs),
(347,71,ls),
(302,71,o),
(278,104,o),
(278,166,cs),
(278,364,l),
(366,364,ls),
(427,364,o),
(461,342,o),
(461,297,cs),
(461,291,ls),
(461,281,o),
(466,276,o),
(476,276,cs),
(506,276,ls),
(516,276,o),
(521,281,o),
(521,291,cs),
(521,518,ls),
(521,528,o),
(516,533,o),
(506,533,cs),
(476,533,ls),
(466,533,o),
(461,528,o),
(461,518,cs),
(461,511,ls),
(461,467,o),
(426,444,o),
(366,444,cs),
(278,444,l),
(278,679,l),
(440,679,ls),
(517,679,o),
(559,655,o),
(600,586,cs),
(603,581,ls),
(606,575,o),
(610,572,o),
(615,572,cs),
(618,572,o),
(621,573,o),
(626,576,cs),
(666,598,ls),
(671,601,o),
(674,605,o),
(674,610,cs),
(674,613,o),
(673,616,o),
(671,619,cs),
(592,755,ls),
(589,760,o),
(584,763,o),
(579,763,cs),
(576,763,o),
(573,762,o),
(571,760,cs),
(565,755,ls),
(560,751,o),
(556,750,o),
(546,750,cs),
(45,750,ls),
(35,750,o),
(30,744,o),
(30,734,cs),
(30,704,ls),
(30,695,o),
(36,689,o),
(45,689,cs),
(46,689,ls),
(95,689,o),
(119,657,o),
(119,594,cs),
(119,155,ls),
(119,91,o),
(95,60,o),
(47,60,cs),
(45,60,ls),
(36,60,o),
(30,55,o),
(30,45,cs),
(30,15,ls),
(30,5,o),
(35,0,o),
(45,0,cs),
(592,0,ls),
(604,0,o),
(608,-1,o),
(612,-5,cs),
(617,-10,ls),
(620,-13,o),
(623,-14,o),
(626,-14,cs),
(631,-14,o),
(635,-11,o),
(638,-5,cs),
(732,193,ls),
(734,197,o),
(735,200,o),
(735,203,cs),
(735,208,o),
(731,211,o),
(726,214,cs)
);
}
);
width = 755;
}
);
note = E;
unicode = 69;
},
{
glyphname = Schwa;
kernLeft = C;
kernRight = D;
lastChange = "2023-03-30 09:41:55 +0000";
layers = (
{
layerId = "6AD408C6-91F3-4F0B-A103-73D10F5280D9";
shapes = (
{
closed = 1;
nodes = (
(36,530,o),
(35,526,o),
(35,524,cs),
(35,518,o),
(42,515,o),
(49,512,cs),
(84,496,ls),
(90,493,o),
(93,492,o),
(97,492,cs),
(104,492,o),
(110,496,o),
(114,505,cs),
(146,577,o),
(208,668,o),
(356,668,cs),
(459,668,o),
(523,605,o),
(553,502,c),
(75,290,ls),
(62,284,o),
(60,277,o),
(60,267,cs),
(60,183,o),
(126,-13,o),
(375,-13,cs),
(663,-13,o),
(744,218,o),
(744,385,cs),
(744,600,o),
(612,762,o),
(372,762,cs),
(179,762,o),
(80,637,o),
(37,533,cs)
);
},
{
closed = 1;
nodes = (
(236,242,l),
(570,408,l),
(572,386,o),
(573,364,o),
(573,341,cs),
(573,229,o),
(526,69,o),
(383,69,cs),
(269,69,o),
(236,159,o),
(236,230,cs)
);
}
);
width = 779;
}
);
unicode = 399;
},
{
glyphname = F;
kernLeft = B;
kernRight = F;
lastChange = "2023-03-30 09:40:38 +0000";
layers = (
{
layerId = "6AD408C6-91F3-4F0B-A103-73D10F5280D9";
shapes = (
{
closed = 1;
nodes = (
(278,354,l),
(366,354,ls),
(427,354,o),
(461,332,o),
(461,287,cs),
(461,281,ls),
(461,271,o),
(466,266,o),
(476,266,cs),
(506,266,ls),
(516,266,o),
(521,271,o),
(521,281,cs),
(521,508,ls),
(521,518,o),
(516,523,o),
(506,523,cs),
(476,523,ls),
(466,523,o),
(461,518,o),
(461,508,cs),
(461,501,ls),
(461,457,o),
(426,434,o),
(366,434,cs),
(278,434,l),
(278,679,l),
(420,679,ls),
(497,679,o),
(559,655,o),
(600,586,cs),
(603,581,ls),
(606,575,o),
(610,572,o),
(615,572,cs),
(618,572,o),
(621,573,o),
(626,576,cs),
(666,598,ls),
(671,601,o),
(674,605,o),
(674,610,cs),
(674,613,o),
(673,616,o),
(671,619,cs),
(592,755,ls),
(589,760,o),
(584,763,o),
(579,763,cs),
(576,763,o),
(573,762,o),
(571,760,cs),
(565,755,ls),
(560,751,o),
(556,750,o),
(546,750,cs),
(45,750,ls),
(35,750,o),
(30,744,o),
(30,734,cs),
(30,704,ls),
(30,695,o),
(36,689,o),
(45,689,cs),
(46,689,ls),
(95,689,o),
(119,657,o),
(119,594,cs),
(119,155,ls),
(119,91,o),
(95,60,o),
(47,60,cs),
(45,60,ls),
(36,60,o),
(30,55,o),
(30,45,cs),
(30,15,ls),
(30,5,o),
(35,0,o),
(45,0,cs),
(353,0,ls),
(363,0,o),
(368,6,o),
(368,15,cs),
(368,45,ls),
(368,55,o),
(363,60,o),
(353,60,cs),
(346,60,ls),
(301,60,o),
(278,95,o),
(278,155,cs)
);
}
);
width = 694;
},
{
associatedMasterId = "6AD408C6-91F3-4F0B-A103-73D10F5280D9";
background = {
shapes = (
{
closed = 1;
nodes = (
(592,755,ls),
(589,761,o),
(584,764,o),
(579,764,cs),
(576,764,o),
(573,763,o),
(571,760,c),
(565,755,ls),
(559,750,o),
(553,750,o),
(546,750,cs),
(45,750,ls),
(35,750,o),
(30,745,o),
(30,735,cs),
(30,705,ls),
(30,695,o),
(35,690,o),
(45,690,cs),
(46,690,ls),
(101,690,o),
(119,649,o),
(119,595,cs),
(119,155,ls),
(119,102,o),
(102,63,o),
(51,60,c),
(45,60,ls),
(35,60,o),
(30,55,o),
(30,45,cs),
(30,15,ls),
(30,5,o),
(35,0,o),
(45,0,cs),
(353,0,ls),
(362,0,o),
(368,5,o),
(368,15,cs),
(368,45,ls),
(368,55,o),
(362,60,o),
(353,60,cs),
(346,60,l),
(295,63,o),
(278,102,o),
(278,155,cs),
(278,355,l),
(366,355,ls),
(418,355,o),
(458,338,o),
(461,287,c),
(461,281,ls),
(461,271,o),
(466,266,o),
(476,266,cs),
(506,266,ls),
(516,266,o),
(521,271,o),
(521,281,cs),
(521,509,ls),
(521,518,o),
(516,524,o),
(506,524,cs),
(476,524,ls),
(466,524,o),
(461,518,o),
(461,509,cs),
(461,502,l),
(458,451,o),
(418,434,o),
(366,434,cs),
(272,434,l),
(272,679,l),
(420,679,ls),
(501,679,o),
(562,651,o),
(600,587,cs),
(603,581,ls),
(606,576,o),
(610,573,o),
(615,573,cs),
(618,573,o),
(621,574,o),
(624,575,cs),
(666,598,ls),
(671,601,o),
(674,605,o),
(674,610,cs),
(674,613,o),
(673,616,o),
(671,619,cs)
);
}
);
};
hints = (
{
horizontal = 1;
place = (0, 60.12);
place = (0, 60.12);
type = Stem;
},
{
horizontal = 1;
place = (354.53, 79.8);
place = (354.53, 79.8);
type = Stem;
},
{
horizontal = 1;
place = (678.94, 71.06);
place = (678.94, 71.06);
type = Stem;
},
{
place = (118.55, 159.8);
place = (118.55, 159.8);
type = Stem;
},
{
place = (460.82, 60.13);
place = (460.82, 60.13);
type = Stem;
},
{
horizontal = 1;
place = (689.76, 60.24);
place = (689.76, 60.24);
type = Stem;
}
);
layerId = "76796360-02C8-48BF-BFC2-95DDAF482AA0";
name = "23 mars 23 à 14:56";
shapes = (
{
closed = 1;
nodes = (
(592,755,ls),
(588,762,o),
(585,764,o),
(580,764,cs),
(577,764,o),
(574,763,o),
(572,761,cs),
(565,755,ls),
(560,750,o),
(556,750,o),
(546,750,cs),
(45,750,ls),
(35,750,o),
(30,745,o),
(30,735,cs),
(30,705,ls),
(30,695,o),
(35,690,o),
(45,690,cs),
(46,690,ls),
(94,690,o),
(119,658,o),
(119,595,cs),
(119,155,ls),
(119,95,o),
(96,63,o),
(51,60,c),
(45,60,ls),
(35,60,o),
(30,55,o),
(30,45,cs),
(30,15,ls),
(30,5,o),
(35,0,o),
(45,0,cs),
(353,0,ls),
(363,0,o),
(368,6,o),
(368,15,cs),
(368,45,ls),
(368,55,o),
(363,60,o),
(353,60,cs),
(346,60,l),
(301,63,o),
(278,95,o),
(278,155,cs),
(278,355,l),
(366,355,ls),
(426,355,o),
(458,332,o),
(461,287,c),
(461,281,ls),
(461,271,o),
(466,266,o),
(476,266,cs),
(506,266,ls),
(516,266,o),
(521,271,o),
(521,281,cs),
(521,509,ls),
(521,519,o),
(516,524,o),
(506,524,cs),
(476,524,ls),
(467,524,o),
(461,519,o),
(461,509,cs),
(461,502,l),
(458,457,o),
(426,434,o),
(366,434,cs),
(272,434,l),
(272,679,l),
(420,679,ls),
(504,679,o),
(568,652,o),
(600,587,cs),
(603,581,ls),
(606,576,o),
(611,573,o),
(615,573,cs),
(619,573,o),
(623,574,o),
(626,576,cs),
(666,598,ls),
(671,601,o),
(674,605,o),
(674,610,cs),
(674,613,o),
(673,616,o),
(671,619,cs)
);
}
);
width = 694;
}
);
note = F;
unicode = 70;
},
{
glyphname = G;
kernLeft = C;
kernRight = G;
lastChange = "2023-03-30 09:42:10 +0000";
layers = (
{
anchors = (
{
name = bottom;
pos = (396,0);
},
{
name = top;
pos = (386,750);
}
);
layerId = "6AD408C6-91F3-4F0B-A103-73D10F5280D9";
shapes = (
{
closed = 1;
nodes = (
(206,572,o),
(281,683,o),
(396,683,cs),
(494,683,o),
(543,614,o),
(543,522,cs),
(543,505,o),
(541,496,o),
(541,489,cs),
(541,480,o),
(547,479,o),
(553,479,cs),
(559,479,o),
(565,481,o),
(571,483,cs),
(693,526,ls),
(704,530,o),
(710,534,o),
(710,546,cs),
(710,588,o),
(645,762,o),
(404,762,cs),
(117,762,o),
(35,535,o),
(35,367,cs),
(35,153,o),
(173,-13,o),
(397,-13,cs),
(549,-13,o),
(657,64,o),
(703,171,c),
(703,279,ls),
(703,302,o),
(710,312,o),
(729,312,cs),
(737,312,ls),
(747,312,o),
(752,317,o),
(752,327,cs),
(752,357,ls),
(752,366,o),
(747,372,o),
(737,372,cs),
(422,372,ls),
(413,372,o),
(407,367,o),
(407,357,cs),
(407,327,ls),
(407,317,o),
(413,312,o),
(422,312,cs),
(429,312,ls),
(481,312,o),
(536,310,o),
(536,197,cs),
(536,145,ls),
(536,98,o),
(466,84,o),
(422,84,cs),
(267,84,o),
(206,263,o),
(206,411,cs)
);
}
);
width = 772;
}
);
note = G;
unicode = 71;
},
{
glyphname = H;
kernLeft = B;
kernRight = H;
lastChange = "2023-03-30 09:40:38 +0000";
layers = (
{
anchors = (
{
name = bottom;
pos = (449,0);
},
{
name = top;
pos = (449,750);
}
);
layerId = "6AD408C6-91F3-4F0B-A103-73D10F5280D9";
shapes = (
{
closed = 1;
nodes = (
(780,595,ls),
(780,648,o),
(796,690,o),
(847,690,cs),
(853,690,ls),
(863,690,o),
(868,695,o),
(868,705,cs),
(868,735,ls),
(868,745,o),
(863,750,o),
(853,750,cs),
(546,750,ls),
(536,750,o),
(531,745,o),
(531,735,cs),
(531,705,ls),
(531,695,o),
(536,690,o),
(546,690,cs),
(552,690,ls),
(603,690,o),
(620,648,o),
(620,595,cs),
(620,424,l),
(278,424,l),
(278,595,ls),
(278,648,o),
(295,690,o),
(346,690,cs),
(352,690,ls),
(362,690,o),
(367,695,o),
(367,705,cs),
(367,735,ls),
(367,745,o),
(362,750,o),
(352,750,cs),
(45,750,ls),
(35,750,o),
(30,745,o),
(30,735,cs),
(30,705,ls),
(30,695,o),
(35,690,o),
(45,690,cs),
(51,690,ls),
(102,690,o),
(118,648,o),
(118,595,cs),
(118,155,ls),
(118,102,o),
(102,60,o),
(51,60,cs),
(45,60,ls),
(35,60,o),
(30,55,o),
(30,45,cs),
(30,15,ls),
(30,5,o),
(35,0,o),
(45,0,cs),
(352,0,ls),
(362,0,o),
(367,5,o),
(367,15,cs),
(367,45,ls),
(367,55,o),
(362,60,o),
(352,60,cs),
(346,60,ls),
(295,60,o),
(278,102,o),
(278,155,cs),
(278,345,l),
(620,345,l),
(620,155,ls),
(620,102,o),
(603,60,o),
(552,60,cs),
(546,60,ls),
(536,60,o),
(531,55,o),
(531,45,cs),
(531,15,ls),
(531,5,o),
(536,0,o),
(546,0,cs),
(853,0,ls),
(863,0,o),
(868,5,o),
(868,15,cs),
(868,45,ls),
(868,55,o),
(863,60,o),
(853,60,cs),
(847,60,ls),
(796,60,o),
(780,102,o),
(780,155,cs)
);
}
);
width = 898;
}
);
note = H;
unicode = 72;
},
{
glyphname = Hbar;
kernLeft = B;
kernRight = H;
lastChange = "2023-03-30 09:40:37 +0000";
layers = (
{
layerId = "6AD408C6-91F3-4F0B-A103-73D10F5280D9";
shapes = (
{
ref = H;
},
{
closed = 1;
nodes = (
(859,500,ls),
(869,500,o),
(874,505,o),
(874,515,cs),
(874,565,ls),
(874,575,o),
(869,580,o),
(859,580,cs),
(39,580,ls),
(29,580,o),
(24,575,o),
(24,565,cs),
(24,515,ls),
(24,505,o),
(29,500,o),
(39,500,cs)
);
}
);
width = 898;
}
);
note = Hbar;
unicode = 294;
},
{
glyphname = I;
kernLeft = I;
kernRight = I;
lastChange = "2023-03-30 09:40:38 +0000";
layers = (
{
anchors = (
{
name = bottom;
pos = (204,0);
},
{
name = ogonek;
pos = (357,0);
},
{
name = top;
pos = (204,750);
}
);
layerId = "6AD408C6-91F3-4F0B-A103-73D10F5280D9";
shapes = (
{
closed = 1;
nodes = (
(284,595,ls),
(284,648,o),
(301,690,o),
(351,690,cs),
(357,690,ls),
(367,690,o),
(372,695,o),
(372,705,cs),
(372,735,ls),
(372,745,o),
(367,750,o),
(357,750,cs),
(50,750,ls),
(40,750,o),
(35,745,o),
(35,735,cs),
(35,705,ls),
(35,695,o),
(40,690,o),
(50,690,cs),
(57,690,ls),
(108,690,o),
(124,648,o),
(124,595,cs),
(124,155,ls),
(124,102,o),
(108,60,o),
(57,60,cs),
(50,60,ls),
(40,60,o),
(35,55,o),
(35,45,cs),
(35,15,ls),
(35,5,o),
(40,0,o),
(50,0,cs),
(357,0,ls),
(367,0,o),
(372,5,o),
(372,15,cs),
(372,45,ls),
(372,55,o),
(367,60,o),
(357,60,cs),
(351,60,ls),
(301,60,o),
(284,102,o),
(284,155,cs)
);
}
);
width = 407;
}
);
note = I;
unicode = 73;
},
{
glyphname = J;
kernLeft = J;
kernRight = IJ;
lastChange = "2023-03-30 09:42:36 +0000";
layers = (
{
anchors = (
{
name = top;
pos = (331,750);
}
);
layerId = "6AD408C6-91F3-4F0B-A103-73D10F5280D9";
shapes = (
{
closed = 1;
nodes = (
(177,750,ls),
(168,750,o),
(162,745,o),
(162,735,cs),
(162,705,ls),
(162,695,o),
(168,690,o),
(177,690,cs),
(184,690,ls),
(235,690,o),
(252,648,o),
(252,595,cs),
(252,128,ls),
(252,86,o),
(231,54,o),
(191,54,cs),
(142,54,o),
(135,110,o),
(135,146,cs),
(135,169,o),
(138,178,o),
(138,189,cs),
(138,198,o),
(134,202,o),
(128,202,cs),
(124,202,o),
(121,201,o),
(114,197,cs),
(21,147,ls),
(10,141,o),
(5,133,o),
(5,123,cs),
(5,94,o),
(53,-13,o),
(191,-13,cs),
(363,-13,o),
(411,103,o),
(411,218,cs),
(411,595,ls),
(411,647,o),
(428,690,o),
(479,690,cs),
(485,690,ls),
(495,690,o),
(500,695,o),
(500,705,cs),
(500,735,ls),
(500,745,o),
(495,750,o),
(485,750,cs)
);
}
);
width = 525;
}
);
note = J;
unicode = 74;
},
{
glyphname = K;
kernLeft = B;
kernRight = K;
lastChange = "2023-03-30 09:42:50 +0000";
layers = (
{
anchors = (
{
name = bottom;
pos = (407,0);
}
);
layerId = "6AD408C6-91F3-4F0B-A103-73D10F5280D9";
shapes = (
{
closed = 1;
nodes = (
(769,60,ls),
(734,60,o),
(732,62,o),
(670,155,cs),
(462,466,l),
(609,624,ls),
(658,677,o),
(680,690,o),
(720,690,cs),
(732,690,ls),
(740,690,o),
(745,696,o),
(745,705,cs),
(745,735,ls),
(745,745,o),
(739,750,o),
(730,750,cs),
(477,750,ls),
(468,750,o),
(462,744,o),
(462,735,cs),
(462,705,ls),
(462,696,o),
(467,690,o),
(475,690,cs),
(496,690,ls),
(508,690,o),
(516,683,o),
(516,672,cs),
(516,665,o),
(514,656,o),
(506,648,cs),
(279,397,l),
(279,594,ls),
(279,657,o),
(302,690,o),
(346,690,cs),
(353,690,ls),
(363,690,o),
(368,696,o),
(368,705,cs),
(368,735,ls),
(368,745,o),
(363,750,o),
(353,750,cs),
(45,750,ls),
(35,750,o),
(30,745,o),
(30,735,cs),
(30,705,ls),
(30,695,o),
(35,690,o),
(45,690,cs),
(53,690,ls),
(96,690,o),
(119,657,o),
(119,595,cs),
(119,155,ls),
(119,92,o),
(96,60,o),
(52,60,cs),
(45,60,ls),
(35,60,o),
(30,55,o),
(30,45,cs),
(30,15,ls),
(30,5,o),
(35,0,o),
(45,0,cs),
(352,0,ls),
(362,0,o),
(367,5,o),
(367,15,cs),
(367,45,ls),
(367,55,o),
(362,60,o),
(352,60,cs),
(346,60,ls),
(302,60,o),
(279,93,o),
(279,155,cs),
(279,269,l),
(364,361,l),
(510,155,ls),
(522,138,o),
(528,122,o),
(528,107,cs),
(528,79,o),
(506,60,o),
(474,60,cs),
(468,60,ls),
(458,60,o),
(453,55,o),
(453,45,cs),
(453,15,ls),
(453,5,o),
(458,0,o),
(468,0,cs),
(775,0,ls),
(785,0,o),
(790,5,o),
(790,15,cs),
(790,45,ls),
(790,55,o),
(785,60,o),
(775,60,cs)
);
}
);
width = 798;
}
);
note = K;
unicode = 75;
},
{
glyphname = L;
kernLeft = B;
kernRight = E;
lastChange = "2023-03-30 09:40:37 +0000";
layers = (
{
anchors = (
{
name = bottom;
pos = (359,0);
},
{
name = top;
pos = (198,750);
}
);
layerId = "6AD408C6-91F3-4F0B-A103-73D10F5280D9";
shapes = (
{
closed = 1;
nodes = (
(648,233,ls),
(645,235,o),
(642,236,o),
(639,236,cs),
(633,236,o),
(630,233,o),
(627,227,cs),
(624,221,ls),
(566,105,o),
(483,71,o),
(386,71,cs),
(347,71,ls),
(302,71,o),
(278,104,o),
(278,166,cs),
(278,689,l),
(349,689,ls),
(360,689,o),
(367,695,o),
(367,704,cs),
(367,734,ls),
(367,743,o),
(359,750,o),
(348,750,cs),
(45,750,ls),
(35,750,o),
(30,744,o),
(30,734,cs),
(30,704,ls),
(30,695,o),
(36,689,o),
(45,689,cs),
(95,689,o),
(119,657,o),
(119,594,cs),
(119,155,ls),
(119,92,o),
(95,60,o),
(45,60,cs),
(36,60,o),
(30,55,o),
(30,45,cs),
(30,15,ls),
(30,5,o),
(35,0,o),
(45,0,cs),
(546,0,ls),
(558,0,o),
(562,-1,o),
(566,-5,cs),
(574,-13,o),
(577,-14,o),
(580,-14,cs),
(585,-14,o),
(589,-11,o),
(592,-5,cs),
(686,193,ls),
(689,199,o),
(689,201,o),
(689,202,cs),
(689,209,o),
(686,211,o),
(680,214,cs)
);
}
);
width = 709;
}
);
note = L;
unicode = 76;
},
{
glyphname = Lslash;
kernLeft = B;
kernRight = E;
lastChange = "2023-03-30 09:40:37 +0000";
layers = (
{
layerId = "6AD408C6-91F3-4F0B-A103-73D10F5280D9";
shapes = (
{
closed = 1;
nodes = (
(23,398,ls),
(15,395,o),
(12,390,o),
(12,381,cs),
(12,301,ls),
(12,292,o),
(15,287,o),
(21,287,cs),
(24,287,o),
(27,288,o),
(30,289,cs),
(403,430,ls),
(411,433,o),
(414,438,o),
(414,447,cs),
(414,527,ls),
(414,536,o),
(411,541,o),
(405,541,cs),
(402,541,o),
(399,540,o),
(396,539,cs)
);
},
{
ref = L;
}
);
width = 709;
}
);
note = Lslash;
unicode = 321;
},
{
glyphname = M;
kernLeft = B;
kernRight = H;
lastChange = "2023-03-30 09:43:01 +0000";
layers = (
{
anchors = (
{
name = bottom;
pos = (518,0);
}
);
layerId = "6AD408C6-91F3-4F0B-A103-73D10F5280D9";
shapes = (
{
closed = 1;
nodes = (
(917,675,l),
(936,686,o),
(957,690,o),
(979,690,cs),
(989,690,o),
(994,695,o),
(994,705,cs),
(994,735,ls),
(994,745,o),
(989,750,o),
(979,750,cs),
(791,750,ls),
(783,750,o),
(776,748,o),
(773,741,cs),
(518,225,l),
(263,741,ls),
(260,748,o),
(253,750,o),
(245,750,cs),
(57,750,ls),
(47,750,o),
(42,745,o),
(42,735,cs),
(42,705,ls),
(42,695,o),
(47,690,o),
(57,690,cs),
(79,690,o),
(100,686,o),
(119,675,c),
(119,155,ls),
(119,101,o),
(94,60,o),
(45,60,cs),
(35,60,o),
(30,55,o),
(30,45,cs),
(30,15,ls),
(30,5,o),
(35,0,o),
(45,0,cs),
(292,0,ls),
(301,0,o),
(307,5,o),
(307,15,cs),
(307,45,ls),
(307,55,o),
(301,60,o),
(292,60,cs),
(243,60,o),
(219,101,o),
(219,155,cs),
(219,534,l),
(454,56,ls),
(458,49,o),
(464,45,o),
(472,45,cs),
(564,45,ls),
(572,45,o),
(578,49,o),
(581,56,cs),
(817,534,l),
(817,155,ls),
(817,101,o),
(793,60,o),
(744,60,cs),
(735,60,o),
(729,55,o),
(729,45,cs),
(729,15,ls),
(729,5,o),
(735,0,o),
(744,0,cs),
(991,0,ls),
(1001,0,o),
(1006,5,o),
(1006,15,cs),
(1006,45,ls),
(1006,55,o),
(1001,60,o),
(991,60,cs),
(942,60,o),
(917,101,o),
(917,155,cs)
);
}
);
width = 1036;
}
);
note = M;
unicode = 77;
},
{
glyphname = N;
kernLeft = B;
kernRight = N;
lastChange = "2023-03-30 09:40:37 +0000";
layers = (
{
anchors = (
{
name = bottom;
pos = (460,0);
},
{
name = top;
pos = (454,750);
}
);
layerId = "6AD408C6-91F3-4F0B-A103-73D10F5280D9";
shapes = (
{
closed = 1;
nodes = (
(619,750,ls),
(609,750,o),
(604,745,o),
(604,735,cs),
(604,705,ls),
(604,695,o),
(609,690,o),
(619,690,cs),
(668,690,o),
(693,650,o),
(693,595,cs),
(693,231,l),
(246,741,ls),
(241,747,o),
(236,750,o),
(228,750,cs),
(55,750,ls),
(45,750,o),
(40,745,o),
(40,735,cs),
(40,705,ls),
(40,695,o),
(45,690,o),
(55,690,cs),
(80,690,o),
(98,682,o),
(118,665,c),
(118,155,ls),
(118,101,o),
(94,60,o),
(45,60,cs),
(35,60,o),
(30,55,o),
(30,45,cs),
(30,15,ls),
(30,5,o),
(35,0,o),
(45,0,cs),
(292,0,ls),
(301,0,o),
(307,5,o),
(307,15,cs),
(307,45,ls),
(307,55,o),
(301,60,o),
(292,60,cs),
(243,60,o),
(218,101,o),
(218,155,cs),
(218,553,l),
(691,9,ls),
(696,3,o),
(701,0,o),
(709,0,cs),
(778,0,ls),
(788,0,o),
(793,5,o),
(793,15,cs),
(793,595,ls),
(793,650,o),
(817,690,o),
(866,690,cs),
(876,690,o),
(881,695,o),
(881,705,cs),
(881,735,ls),
(881,745,o),
(876,750,o),
(866,750,cs)
);
}
);
width = 891;
}
);
note = N;
unicode = 78;
},
{
glyphname = Nhookleft;
kernLeft = B;
kernRight = N;
lastChange = "2023-03-30 09:40:37 +0000";
layers = (
{
anchors = (
{
name = bottom;
pos = (460,0);
},
{
name = top;
pos = (454,750);
}
);
layerId = "6AD408C6-91F3-4F0B-A103-73D10F5280D9";
shapes = (
{
closed = 1;
nodes = (
(218,553,l),
(691,9,ls),
(696,3,o),
(701,0,o),
(709,0,cs),
(778,0,ls),
(788,0,o),
(793,5,o),
(793,15,cs),
(793,595,ls),
(793,650,o),
(817,690,o),
(866,690,cs),
(876,690,o),
(881,695,o),
(881,705,cs),
(881,735,ls),
(881,745,o),
(876,750,o),
(866,750,cs),
(619,750,ls),
(609,750,o),
(604,745,o),
(604,735,cs),
(604,705,ls),
(604,695,o),
(609,690,o),
(619,690,cs),
(668,690,o),
(693,650,o),
(693,595,cs),
(693,231,l),
(246,741,ls),
(241,747,o),
(236,750,o),
(228,750,cs),
(55,750,ls),
(45,750,o),
(40,745,o),
(40,735,cs),
(40,705,ls),
(40,695,o),
(45,690,o),
(55,690,cs),
(80,690,o),
(98,682,o),
(118,665,c),
(118,0,ls),
(118,-82,o),
(112,-158,o),
(42,-158,cs),
(35,-158,o),
(24,-155,o),
(18,-155,cs),
(14,-155,o),
(12,-158,o),
(11,-162,cs),
(0,-200,ls),
(-1,-203,o),
(-1,-204,o),
(-1,-205,cs),
(-1,-210,o),
(3,-212,o),
(8,-213,cs),
(16,-214,o),
(25,-214,o),
(34,-214,cs),
(210,-214,o),
(218,-114,o),
(218,0,cs)
);
}
);
width = 891;
}
);
metricRight = N;
unicode = 413;
},
{
glyphname = Eng;
kernLeft = B;
kernRight = N;
lastChange = "2023-03-30 09:40:37 +0000";
layers = (
{
layerId = "6AD408C6-91F3-4F0B-A103-73D10F5280D9";
shapes = (
{
closed = 1;
nodes = (
(683,19,l),
(683,-5,ls),
(683,-87,o),
(650,-158,o),
(590,-158,cs),
(534,-158,o),
(520,-105,o),
(520,-56,cs),
(520,-46,o),
(516,-41,o),
(510,-41,cs),
(508,-41,o),
(506,-41,o),
(502,-44,cs),
(431,-95,ls),
(423,-101,o),
(420,-109,o),
(420,-116,cs),
(420,-135,o),
(459,-214,o),
(582,-214,cs),
(758,-214,o),
(793,-95,o),
(793,19,c)
);
},
{
ref = N;
}
);
width = 888;
}
);
note = Eng;
unicode = 330;
},
{
glyphname = O;
kernLeft = C;
kernRight = D;
lastChange = "2023-03-30 09:40:37 +0000";
layers = (
{
anchors = (
{
name = bottom;
pos = (426,0);
},
{
name = top;
pos = (412,750);
}
);
layerId = "6AD408C6-91F3-4F0B-A103-73D10F5280D9";
shapes = (
{
closed = 1;
nodes = (
(195,762,o),
(35,587,o),
(35,379,cs),
(35,167,o),
(204,-13,o),
(416,-13,cs),
(618,-13,o),
(787,156,o),
(787,369,cs),
(787,582,o),
(616,762,o),
(405,762,cs)
);
},
{
closed = 1;
nodes = (
(569,674,o),
(638,448,o),
(638,317,cs),
(638,175,o),
(562,76,o),
(426,76,cs),
(257,76,o),
(184,288,o),
(184,432,cs),
(184,577,o),
(261,674,o),
(394,674,cs)
);
}
);
width = 822;
}
);
note = O;
unicode = 79;
},
{
glyphname = Oslash;
kernLeft = C;
kernRight = D;
lastChange = "2023-03-30 09:40:38 +0000";
layers = (
{
hints = (
{
horizontal = 1;
place = (754.41, -20);
target = down;
type = TopGhost;
},
{
horizontal = 1;
place = (-0.57, 21);
target = up;
type = BottomGhost;
}
);
layerId = "6AD408C6-91F3-4F0B-A103-73D10F5280D9";
shapes = (
{
closed = 1;
nodes = (
(190,-51,ls),
(186,-62,o),
(191,-68,o),
(202,-68,cs),
(284,-68,ls),
(293,-68,o),
(298,-65,o),
(301,-56,cs),
(621,833,ls),
(625,843,o),
(620,850,o),
(609,850,cs),
(527,850,ls),
(518,850,o),
(513,846,o),
(510,838,cs)
);
},
{
ref = O;
}
);
width = 822;
}
);
note = Oslash;
unicode = 216;
},
{
glyphname = OE;
kernLeft = C;
kernRight = E;
lastChange = "2023-03-30 09:40:37 +0000";
layers = (
{
layerId = "6AD408C6-91F3-4F0B-A103-73D10F5280D9";
shapes = (
{
closed = 1;
nodes = (
(195,762,o),
(35,587,o),
(35,379,cs),
(35,167,o),
(204,-13,o),
(416,-13,cs),
(449,-13,o),
(481,-8,o),
(512,0,c),
(1077,0,ls),
(1089,0,o),
(1093,-1,o),
(1097,-5,cs),
(1102,-10,ls),
(1105,-13,o),
(1108,-14,o),
(1111,-14,cs),
(1116,-14,o),
(1120,-11,o),
(1123,-5,cs),
(1217,193,ls),
(1219,197,o),
(1220,200,o),
(1220,203,cs),
(1220,208,o),
(1216,211,o),
(1211,214,cs),
(1179,233,ls),
(1176,235,o),
(1174,235,o),
(1171,235,cs),
(1165,235,o),
(1161,232,o),
(1158,227,cs),
(1155,221,ls),
(1099,109,o),
(1044,71,o),
(897,71,cs),
(832,71,ls),
(787,71,o),
(763,104,o),
(763,166,cs),
(763,364,l),
(851,364,ls),
(912,364,o),
(946,342,o),
(946,297,cs),
(946,291,ls),
(946,281,o),
(951,276,o),
(961,276,cs),
(991,276,ls),
(1001,276,o),
(1006,281,o),
(1006,291,cs),
(1006,518,ls),
(1006,528,o),
(1001,533,o),
(991,533,cs),
(961,533,ls),
(951,533,o),
(946,528,o),
(946,518,cs),
(946,511,ls),
(946,467,o),
(911,444,o),
(851,444,cs),
(763,444,l),
(763,679,l),
(925,679,ls),
(1002,679,o),
(1044,655,o),
(1085,586,cs),
(1088,581,ls),
(1091,575,o),
(1095,572,o),
(1100,572,cs),
(1103,572,o),
(1106,573,o),
(1111,576,cs),
(1151,598,ls),
(1156,601,o),
(1159,605,o),
(1159,610,cs),
(1159,613,o),
(1158,616,o),
(1156,619,cs),
(1077,755,ls),
(1074,760,o),
(1069,763,o),
(1064,763,cs),
(1061,763,o),
(1058,762,o),
(1056,760,cs),
(1050,755,ls),
(1045,751,o),
(1041,750,o),
(1031,750,cs),
(498,750,l),
(468,758,o),
(437,762,o),
(405,762,cs)
);
},
{
closed = 1;
nodes = (
(184,577,o),
(261,674,o),
(394,674,cs),
(569,674,o),
(638,448,o),
(638,317,cs),
(638,175,o),
(562,76,o),
(426,76,cs),
(257,76,o),
(184,288,o),
(184,432,cs)
);
}
);
width = 1240;
}
);
metricLeft = O;
metricRight = E;
note = OE;
unicode = 338;
},
{
glyphname = P;
kernLeft = B;
kernRight = P;
lastChange = "2023-03-30 09:40:38 +0000";
layers = (
{
layerId = "6AD408C6-91F3-4F0B-A103-73D10F5280D9";
shapes = (
{
closed = 1;
nodes = (
(279,302,l),
(354,302,ls),
(597,302,o),
(680,401,o),
(680,529,cs),
(680,643,o),
(575,750,o),
(413,750,cs),
(46,750,ls),
(36,750,o),
(31,745,o),
(31,735,cs),
(31,705,ls),
(31,695,o),
(36,690,o),
(46,690,cs),
(47,690,ls),
(102,690,o),
(119,649,o),
(119,595,cs),
(119,155,ls),
(119,102,o),
(103,60,o),
(52,60,cs),
(45,60,ls),
(35,60,o),
(30,55,o),
(30,45,cs),
(30,15,ls),
(30,5,o),
(35,0,o),
(45,0,cs),
(352,0,ls),
(362,0,o),
(367,5,o),
(367,15,cs),
(367,45,ls),
(367,55,o),
(362,60,o),
(352,60,cs),
(346,60,ls),
(296,60,o),
(279,102,o),
(279,155,cs)
);
},
{
closed = 1;
nodes = (
(273,373,l),
(273,690,l),
(369,690,ls),
(469,690,o),
(530,621,o),
(530,529,cs),
(530,418,o),
(470,373,o),
(337,373,cs)
);
}
);
width = 700;
}
);
note = P;
unicode = 80;
},
{
glyphname = Thorn;
kernLeft = B;
kernRight = P;
lastChange = "2023-03-30 09:40:38 +0000";
layers = (
{
layerId = "6AD408C6-91F3-4F0B-A103-73D10F5280D9";
shapes = (
{
closed = 1;
nodes = (
(273,184,l),
(354,184,ls),
(597,184,o),
(680,284,o),
(680,411,cs),
(680,526,o),
(575,633,o),
(413,633,cs),
(273,633,l),
(273,690,l),
(337,690,ls),
(347,690,o),
(352,695,o),
(352,705,cs),
(352,735,ls),
(352,745,o),
(347,750,o),
(337,750,cs),
(46,750,ls),
(36,750,o),
(31,745,o),
(31,735,cs),
(31,705,ls),
(31,695,o),
(36,690,o),
(46,690,cs),
(47,690,ls),
(102,690,o),
(119,649,o),
(119,595,cs),
(119,155,ls),
(119,102,o),
(103,60,o),
(52,60,cs),
(45,60,ls),
(35,60,o),
(30,55,o),
(30,45,cs),
(30,15,ls),
(30,5,o),
(35,0,o),
(45,0,cs),
(352,0,ls),
(362,0,o),
(367,5,o),
(367,15,cs),
(367,45,ls),
(367,55,o),
(362,60,o),
(352,60,cs),
(340,60,ls),
(290,60,o),
(273,102,o),
(273,155,cs)
);
},
{
closed = 1;
nodes = (
(273,255,l),
(273,572,l),
(369,572,ls),
(469,572,o),
(530,504,o),
(530,411,cs),
(530,301,o),
(470,255,o),
(337,255,cs)
);
}
);
width = 700;
}
);
note = Thorn;
unicode = 222;
},
{
glyphname = Q;
kernLeft = C;
kernRight = D;
lastChange = "2023-03-30 09:40:38 +0000";
layers = (
{
anchors = (
{
name = bottom;
pos = (426,0);
},
{
name = top;
pos = (405,750);
}
);
hints = (
{
horizontal = 1;
place = (-9.22, 21);
target = up;
type = BottomGhost;
}
);
layerId = "6AD408C6-91F3-4F0B-A103-73D10F5280D9";
shapes = (
{
closed = 1;
nodes = (
(195,762,o),
(35,587,o),
(35,379,cs),
(35,186,o),
(175,20,o),
(359,-9,c),
(334,-31,o),
(319,-60,o),
(319,-94,cs),
(319,-156,o),
(364,-227,o),
(520,-227,cs),
(603,-227,o),
(672,-198,o),
(740,-164,cs),
(747,-161,o),
(749,-157,o),
(749,-152,cs),
(749,-149,o),
(747,-145,o),
(746,-143,cs),
(724,-100,ls),
(721,-94,o),
(717,-91,o),
(712,-91,cs),
(710,-91,o),
(707,-92,o),
(704,-93,cs),
(648,-113,o),
(593,-132,o),
(540,-132,cs),
(481,-132,o),
(448,-112,o),
(448,-70,cs),
(448,-26,o),
(482,-8,o),
(517,2,cs),
(675,49,o),
(787,193,o),
(787,369,cs),
(787,582,o),
(616,762,o),
(405,762,cs)
);
},
{
closed = 1;
nodes = (
(184,577,o),
(261,674,o),
(394,674,cs),
(569,674,o),
(638,448,o),
(638,317,cs),
(638,175,o),
(562,76,o),
(426,76,cs),
(257,76,o),
(184,288,o),
(184,432,cs)
);
}
);
width = 822;
},
{
anchors = (
{
name = bottom;
pos = (426,0);
},
{
name = top;
pos = (405,750);
}
);
associatedMasterId = "6AD408C6-91F3-4F0B-A103-73D10F5280D9";
background = {
shapes = (
{
closed = 1;
nodes = (
(724,-100,ls),
(721,-94,o),
(717,-91,o),
(712,-91,cs),
(710,-91,o),
(707,-92,o),
(704,-93,c),
(648,-113,o),
(593,-132,o),
(540,-132,cs),
(481,-132,o),
(448,-112,o),
(448,-70,cs),
(448,-20,o),
(493,-8,o),
(530,5,cs),
(684,56,o),
(787,204,o),
(787,369,cs),
(787,396,o),
(784,424,o),
(778,452,cs),
(739,634,o),
(580,762,o),
(405,762,cs),
(380,762,o),
(355,759,o),
(329,754,cs),
(154,717,o),
(35,557,o),
(35,379,cs),
(35,351,o),
(38,324,o),
(44,296,cs),
(78,132,o),
(208,14,o),
(360,-9,c),
(334,-31,o),
(319,-60,o),
(319,-94,cs),
(319,-156,o),
(364,-227,o),
(520,-227,cs),
(603,-227,o),
(673,-197,o),
(740,-164,c),
(745,-161,o),
(748,-157,o),
(748,-152,cs),
(748,-149,o),
(748,-146,o),
(746,-143,cs)
);
},
{
closed = 1;
nodes = (
(188,361,o),
(184,397,o),
(184,432,cs),
(184,540,o),
(225,642,o),
(348,668,cs),
(364,672,o),
(380,674,o),
(394,674,cs),
(527,674,o),
(600,543,o),
(626,419,cs),
(633,386,o),
(638,351,o),
(638,317,cs),
(638,209,o),
(596,107,o),
(473,81,cs),
(456,77,o),
(441,76,o),
(426,76,cs),
(294,76,o),
(222,204,o),
(195,328,cs)
);
}
);
};
hints = (
{
horizontal = 1;
place = (-227.38, 95.38);
place = (-227.38, 95.38);
type = Stem;
},
{
horizontal = 1;
place = (-9.22, 21);
target = up;
type = BottomGhost;
},
{
horizontal = 1;
place = (673.61, 88.18);
place = (673.61, 88.18);
type = Stem;
},
{
place = (35, 149.05);
place = (35, 149.05);
type = Stem;
},
{
place = (318.77, 128.75);
place = (318.77, 128.75);
type = Stem;
},
{
place = (637.5, 149.21);
place = (637.5, 149.21);
type = Stem;
},
{
horizontal = 1;
place = (-13.06, 89.02);
place = (-13.06, 89.02);
type = Stem;
},
{
horizontal = 1;
place = (673.9, 88.26);
place = (673.9, 88.26);
type = Stem;
},
{
place = (35.12, 148.93);
place = (35.12, 148.93);
type = Stem;
},
{
place = (637.5, 149.21);
place = (637.5, 149.21);
type = Stem;
}
);
layerId = "64ED735C-43FD-46D3-BF27-AD304EC357F2";
name = "24 mars 23 à 12:38";
shapes = (
{
closed = 1;
nodes = (
(360,-8,l),
(334,-30,o),
(319,-60,o),
(319,-94,cs),
(319,-156,o),
(364,-227,o),
(520,-227,cs),
(603,-227,o),
(672,-198,o),
(740,-164,cs),
(747,-161,o),
(749,-157,o),
(749,-152,cs),
(749,-149,o),
(747,-145,o),
(746,-143,cs),
(724,-100,ls),
(721,-94,o),
(717,-91,o),
(712,-91,cs),
(710,-91,o),
(707,-92,o),
(704,-93,cs),
(648,-113,o),
(593,-132,o),
(540,-132,cs),
(481,-132,o),
(448,-112,o),
(448,-70,cs),
(448,-20,o),
(493,-7,o),
(530,6,c)
);
},
{
closed = 1;
nodes = (
(35,587,o),
(35,379,cs),
(35,167,o),
(204,-13,o),
(416,-13,cs),
(618,-13,o),
(787,156,o),
(787,369,cs),
(787,582,o),
(616,762,o),
(405,762,cs),
(195,762,o)
);
},
{
closed = 1;
nodes = (
(261,674,o),
(394,674,cs),
(569,674,o),
(638,448,o),
(638,317,cs),
(638,175,o),
(562,76,o),
(426,76,cs),
(257,76,o),
(184,288,o),
(184,432,cs),
(184,577,o)
);
}
);
width = 822;
}
);
note = Q;
unicode = 81;
},
{
glyphname = R;
kernLeft = B;
kernRight = R;
lastChange = "2023-03-30 09:40:37 +0000";
layers = (
{
anchors = (
{
name = bottom;
pos = (410,0);
},
{
name = top;
pos = (343,750);
}
);
layerId = "6AD408C6-91F3-4F0B-A103-73D10F5280D9";
shapes = (
{
closed = 1;
nodes = (
(770,60,ls),
(721,60,o),
(696,106,o),
(670,155,cs),
(561,361,l),
(647,402,o),
(680,471,o),
(680,539,cs),
(680,653,o),
(575,750,o),
(413,750,cs),
(46,750,ls),
(36,750,o),
(31,745,o),
(31,735,cs),
(31,705,ls),
(31,695,o),
(36,690,o),
(46,690,cs),
(102,690,o),
(119,649,o),
(119,595,cs),
(119,155,ls),
(119,102,o),
(103,60,o),
(52,60,cs),
(45,60,ls),
(35,60,o),
(30,55,o),
(30,45,cs),
(30,15,ls),
(30,5,o),
(35,0,o),
(45,0,cs),
(352,0,ls),
(362,0,o),
(367,5,o),
(367,15,cs),
(367,45,ls),
(367,55,o),
(362,60,o),
(352,60,cs),
(346,60,ls),
(296,60,o),
(279,102,o),
(279,155,cs),
(279,322,l),
(354,322,ls),
(377,322,o),
(399,323,o),
(419,325,c),
(510,155,ls),
(519,139,o),
(523,123,o),
(523,109,cs),
(523,82,o),
(507,60,o),
(474,60,cs),
(468,60,ls),
(458,60,o),
(453,55,o),
(453,45,cs),
(453,15,ls),
(453,5,o),
(458,0,o),
(468,0,cs),
(775,0,ls),
(785,0,o),
(790,5,o),
(790,15,cs),
(790,45,ls),
(790,55,o),
(785,60,o),
(775,60,cs)
);
},
{
closed = 1;
nodes = (
(279,393,l),
(279,690,l),
(369,690,ls),
(469,690,o),
(530,631,o),
(530,539,cs),
(530,448,o),
(470,393,o),
(337,393,cs)
);
}
);
width = 798;
}
);
note = R;
unicode = 82;
},
{
glyphname = S;
kernLeft = S;
kernRight = S;
lastChange = "2023-03-30 09:46:22 +0000";
layers = (
{
anchors = (
{
name = bottom;
pos = (369,0);
},
{
name = top;
pos = (369,750);
}
);
background = {
shapes = (
{
closed = 1;
nodes = (
(653,531,ls),
(661,535,o),
(664,540,o),
(664,546,cs),
(664,550,o),
(662,555,o),
(660,560,cs),
(590,739,ls),
(585,751,o),
(578,756,o),
(565,756,cs),
(529,756,ls),
(517,756,o),
(511,751,o),
(511,741,cs),
(511,728,o),
(516,715,o),
(516,708,cs),
(516,704,o),
(514,702,o),
(510,702,cs),
(506,702,o),
(500,705,o),
(488,711,cs),
(460,725,o),
(407,750,o),
(333,750,cs),
(178,750,o),
(80,681,o),
(80,569,cs),
(80,425,o),
(219,363,o),
(350,325,cs),
(494,283,o),
(558,264,o),
(558,176,cs),
(558,116,o),
(510,72,o),
(423,72,cs),
(308,72,o),
(194,137,o),
(104,275,cs),
(99,283,o),
(94,287,o),
(87,287,cs),
(83,287,o),
(79,285,o),
(75,283,cs),
(31,258,ls),
(24,254,o),
(20,248,o),
(20,241,cs),
(20,238,o),
(22,233,o),
(24,229,cs),
(145,2,ls),
(150,-8,o),
(158,-12,o),
(170,-12,cs),
(220,-12,ls),
(232,-12,o),
(237,-9,o),
(237,-1,cs),
(237,3,o),
(236,6,o),
(234,11,cs),
(233,15,o),
(232,19,o),
(232,22,cs),
(232,29,o),
(235,32,o),
(241,32,cs),
(245,32,o),
(250,31,o),
(256,28,cs),
(305,4,o),
(357,-13,o),
(417,-13,cs),
(601,-13,o),
(708,84,o),
(708,221,cs),
(708,371,o),
(549,423,o),
(396,467,cs),
(319,489,o),
(239,522,o),
(239,584,cs),
(239,654,o),
(296,670,o),
(346,670,cs),
(414,670,o),
(505,627,o),
(590,521,cs),
(595,514,o),
(601,509,o),
(607,509,cs),
(611,509,o),
(615,511,o),
(619,513,cs)
);
}
);
};
layerId = "6AD408C6-91F3-4F0B-A103-73D10F5280D9";
shapes = (
{
closed = 1;
nodes = (
(653,541,ls),
(661,545,o),
(664,550,o),
(664,556,cs),
(664,560,o),
(662,565,o),
(660,570,cs),
(590,749,ls),
(585,761,o),
(578,766,o),
(565,766,cs),
(529,766,ls),
(517,766,o),
(511,761,o),
(511,751,cs),
(511,738,o),
(516,725,o),
(516,718,cs),
(516,714,o),
(515,712,o),
(511,712,cs),
(507,712,o),
(500,715,o),
(488,722,cs),
(460,738,o),
(407,762,o),
(333,762,cs),
(189,762,o),
(80,701,o),
(80,569,cs),
(80,425,o),
(219,363,o),
(350,325,cs),
(494,283,o),
(558,264,o),
(558,176,cs),
(558,116,o),
(510,72,o),
(423,72,cs),
(308,72,o),
(194,137,o),
(104,275,cs),
(99,283,o),
(94,287,o),
(87,287,cs),
(83,287,o),
(79,285,o),
(75,283,cs),
(31,258,ls),
(24,254,o),
(20,248,o),
(20,241,cs),
(20,238,o),
(22,233,o),
(24,229,cs),
(145,2,ls),
(150,-8,o),
(158,-12,o),
(170,-12,cs),
(220,-12,ls),
(232,-12,o),
(237,-9,o),
(237,-1,cs),
(237,3,o),
(236,6,o),
(234,11,cs),
(233,15,o),
(232,19,o),
(232,22,cs),
(232,29,o),
(235,32,o),
(241,32,cs),
(245,32,o),
(250,31,o),
(256,28,cs),
(305,4,o),
(357,-13,o),
(417,-13,cs),
(601,-13,o),
(708,84,o),
(708,221,cs),
(708,371,o),
(549,423,o),
(396,467,cs),
(319,489,o),
(239,520,o),
(239,594,cs),
(239,654,o),
(282,681,o),
(336,681,cs),
(424,681,o),
(505,637,o),
(590,531,cs),
(595,524,o),
(601,519,o),
(607,519,cs),
(611,519,o),
(615,521,o),
(619,523,cs)
);
}
);
width = 723;
}
);
note = S;
unicode = 83;
},
{
glyphname = Germandbls;
kernLeft = m;
kernRight = B;
lastChange = "2023-03-30 09:35:03 +0000";
layers = (
{
layerId = "6AD408C6-91F3-4F0B-A103-73D10F5280D9";
shapes = (
{
closed = 1;
nodes = (
(611,561,ls),
(617,566,o),
(619,571,o),
(619,580,cs),
(619,697,o),
(520,762,o),
(374,762,cs),
(144,762,o),
(104,596,o),
(104,515,cs),
(104,500,l),
(48,500,ls),
(38,500,o),
(33,495,o),
(33,487,cs),
(33,453,ls),
(33,446,o),
(35,441,o),
(45,440,cs),
(100,434,o),
(104,379,o),
(104,325,cs),
(104,155,ls),
(104,101,o),
(87,60,o),
(33,60,cs),
(30,60,ls),
(21,60,o),
(15,55,o),
(15,45,cs),
(15,15,ls),
(15,5,o),
(21,0,o),
(30,0,cs),
(239,0,ls),
(248,0,o),
(254,5,o),
(254,15,cs),
(254,563,ls),
(254,643,o),
(303,686,o),
(374,686,cs),
(444,686,o),
(501,658,o),
(501,580,cs),
(501,572,o),
(500,566,o),
(494,561,cs),
(348,440,ls),
(341,435,o),
(335,431,o),
(330,431,cs),
(326,431,ls),
(320,431,o),
(317,428,o),
(317,423,cs),
(317,414,o),
(348,381,o),
(357,372,cs),
(364,365,o),
(369,360,o),
(376,360,cs),
(488,360,o),
(556,315,o),
(556,207,cs),
(556,112,o),
(492,68,o),
(419,68,cs),
(388,68,o),
(354,78,o),
(329,95,cs),
(325,98,o),
(320,100,o),
(316,100,cs),
(311,100,o),
(310,99,o),
(307,94,cs),
(297,76,o),
(291,65,o),
(291,62,cs),
(291,58,o),
(293,55,o),
(297,51,cs),
(334,14,o),
(388,-13,o),
(457,-13,cs),
(577,-13,o),
(702,47,o),
(702,207,cs),
(702,350,o),
(577,430,o),
(450,430,c)
);
}
);
width = 742;
}
);
unicode = 7838;
},
{
glyphname = T;
kernLeft = T;
kernRight = T;
lastChange = "2023-03-30 09:40:37 +0000";
layers = (
{
anchors = (
{
name = bottom;
pos = (386,0);
},
{
name = top;
pos = (388,750);
}
);
layerId = "6AD408C6-91F3-4F0B-A103-73D10F5280D9";
shapes = (
{
closed = 1;
nodes = (
(133,750,ls),
(126,750,o),
(117,751,o),
(108,760,cs),
(106,762,o),
(102,764,o),
(99,764,cs),
(94,764,o),
(90,761,o),
(87,755,cs),
(8,609,ls),
(6,605,o),
(5,603,o),
(5,600,cs),
(5,595,o),
(7,591,o),
(13,588,cs),
(55,565,ls),
(59,563,o),
(62,562,o),
(65,562,cs),
(70,562,o),
(73,566,o),
(76,571,cs),
(79,577,ls),
(112,644,o),
(178,669,o),
(259,669,cs),
(308,669,l),
(308,155,ls),
(308,102,o),
(291,60,o),
(240,60,cs),
(234,60,ls),
(224,60,o),
(219,55,o),
(219,45,cs),
(219,15,ls),
(219,5,o),
(224,0,o),
(234,0,cs),
(542,0,ls),
(551,0,o),
(557,5,o),
(557,15,cs),
(557,45,ls),
(557,55,o),
(551,60,o),
(542,60,cs),
(535,60,ls),
(484,60,o),
(467,102,o),
(467,155,cs),
(467,669,l),
(516,669,ls),
(597,669,o),
(663,644,o),
(696,577,cs),
(699,571,ls),
(702,566,o),
(705,562,o),
(710,562,cs),
(713,562,o),
(716,563,o),
(720,565,cs),
(762,588,ls),
(768,591,o),
(770,595,o),
(770,600,cs),
(770,603,o),
(769,605,o),
(767,609,cs),
(688,755,ls),
(685,761,o),
(681,764,o),
(676,764,cs),
(673,764,o),
(669,762,o),
(667,760,cs),
(658,751,o),
(649,750,o),
(642,750,cs)
);
}
);
width = 788;
}
);
note = T;
unicode = 84;
},
{
glyphname = Tbar;
kernLeft = T;
kernRight = T;
lastChange = "2023-03-30 09:40:37 +0000";
layers = (
{
layerId = "6AD408C6-91F3-4F0B-A103-73D10F5280D9";
shapes = (
{
closed = 1;
nodes = (
(523,860,ls),
(533,860,o),
(538,865,o),
(538,875,cs),
(538,935,ls),
(538,945,o),
(533,950,o),
(523,950,cs),
(256,950,ls),
(246,950,o),
(241,945,o),
(241,935,cs),
(241,875,ls),
(241,865,o),
(246,860,o),
(256,860,cs)
);
},
{
ref = T;
}
);
width = 788;
}
);
note = Tbar;
unicode = 358;
},
{
glyphname = U;
kernLeft = U;
kernRight = U;
lastChange = "2023-03-30 09:40:37 +0000";
layers = (
{
anchors = (
{
name = bottom;
pos = (440,0);
},
{
name = ogonek;
pos = (520,0);
},
{
name = top;
pos = (436,750);
}
);
layerId = "6AD408C6-91F3-4F0B-A103-73D10F5280D9";
shapes = (
{
closed = 1;
nodes = (
(535,750,ls),
(525,750,o),
(520,745,o),
(520,735,cs),
(520,705,ls),
(520,695,o),
(525,690,o),
(535,690,cs),
(541,690,ls),
(592,690,o),
(608,648,o),
(608,595,cs),
(608,285,ls),
(608,164,o),
(567,75,o),
(452,75,cs),
(296,75,o),
(274,173,o),
(274,285,cs),
(274,595,ls),
(274,648,o),
(291,690,o),
(341,690,cs),
(347,690,ls),
(357,690,o),
(362,695,o),
(362,705,cs),
(362,735,ls),
(362,745,o),
(357,750,o),
(347,750,cs),
(40,750,ls),
(30,750,o),
(25,745,o),
(25,735,cs),
(25,705,ls),
(25,695,o),
(30,690,o),
(40,690,cs),
(47,690,ls),
(98,690,o),
(114,648,o),
(114,595,cs),
(114,265,ls),
(114,91,o),
(225,-13,o),
(423,-13,cs),
(621,-13,o),
(709,91,o),
(709,275,cs),
(709,595,ls),
(709,648,o),
(726,690,o),
(776,690,cs),
(783,690,ls),
(793,690,o),
(798,695,o),
(798,705,cs),
(798,735,ls),
(798,745,o),
(793,750,o),
(783,750,cs)
);
}
);
width = 808;
}
);
note = U;
unicode = 85;
},
{
glyphname = V;
kernLeft = V;
kernRight = V;
lastChange = "2023-03-30 09:47:07 +0000";
layers = (
{
hints = (
{
horizontal = 1;
place = (0, 21);
target = up;
type = BottomGhost;
}
);
layerId = "6AD408C6-91F3-4F0B-A103-73D10F5280D9";
shapes = (
{
closed = 1;
nodes = (
(515,750,ls),
(506,750,o),
(500,744,o),
(500,735,cs),
(500,705,ls),
(500,695,o),
(506,690,o),
(515,690,cs),
(556,690,o),
(593,660,o),
(593,622,cs),
(593,614,o),
(592,606,o),
(589,597,cs),
(428,141,l),
(258,587,ls),
(252,602,o),
(249,612,o),
(249,621,cs),
(249,661,o),
(286,690,o),
(327,690,cs),
(336,690,o),
(342,695,o),
(342,705,cs),
(342,735,ls),
(342,744,o),
(336,750,o),
(327,750,cs),
(20,750,ls),
(10,750,o),
(5,744,o),
(5,735,cs),
(5,705,ls),
(5,695,o),
(10,690,o),
(20,690,cs),
(57,690,o),
(74,649,o),
(94,597,cs),
(319,12,ls),
(322,4,o),
(328,0,o),
(336,0,cs),
(457,0,ls),
(465,0,o),
(471,4,o),
(474,12,cs),
(689,597,ls),
(707,647,o),
(726,690,o),
(764,690,cs),
(774,690,o),
(779,695,o),
(779,705,cs),
(779,735,ls),
(779,744,o),
(774,750,o),
(764,750,cs)
);
}
);
width = 784;
}
);
note = V;
unicode = 86;
},
{
glyphname = W;
kernLeft = V;
kernRight = V;
lastChange = "2023-03-30 09:47:21 +0000";
layers = (
{
anchors = (
{
name = bottom;
pos = (525,0);
},
{
name = top;
pos = (625,750);
}
);
hints = (
{
horizontal = 1;
place = (0, 21);
target = up;
type = BottomGhost;
}
);
layerId = "6AD408C6-91F3-4F0B-A103-73D10F5280D9";
shapes = (
{
closed = 1;
nodes = (
(939,750,ls),
(929,750,o),
(924,744,o),
(924,735,cs),
(924,705,ls),
(924,695,o),
(929,690,o),
(939,690,cs),
(980,690,o),
(1016,660,o),
(1016,619,cs),
(1016,611,o),
(1015,603,o),
(1012,594,cs),
(861,141,l),
(696,600,ls),
(692,612,o),
(690,622,o),
(690,631,cs),
(690,670,o),
(720,690,o),
(744,690,cs),
(770,690,ls),
(780,690,o),
(785,695,o),
(785,705,cs),
(785,735,ls),
(785,744,o),
(780,750,o),
(770,750,cs),
(464,750,ls),
(454,750,o),
(449,744,o),
(449,735,cs),
(449,705,ls),
(449,695,o),
(454,690,o),
(464,690,cs),
(500,690,o),
(517,646,o),
(537,594,cs),
(554,549,l),
(418,141,l),
(254,594,ls),
(251,603,o),
(249,612,o),
(249,620,cs),
(249,661,o),
(286,690,o),
(327,690,cs),
(336,690,o),
(342,695,o),
(342,705,cs),
(342,735,ls),
(342,744,o),
(336,750,o),
(327,750,cs),
(20,750,ls),
(10,750,o),
(5,744,o),
(5,735,cs),
(5,705,ls),
(5,695,o),
(10,690,o),
(20,690,cs),
(58,690,o),
(75,646,o),
(94,594,cs),
(309,12,ls),
(312,4,o),
(318,0,o),
(326,0,cs),
(447,0,ls),
(455,0,o),
(461,4,o),
(464,12,cs),
(605,411,l),
(753,12,ls),
(756,4,o),
(761,0,o),
(770,0,cs),
(890,0,ls),
(899,0,o),
(904,4,o),
(907,12,cs),
(1113,594,ls),
(1132,647,o),
(1149,690,o),
(1187,690,cs),
(1197,690,o),
(1202,695,o),
(1202,705,cs),
(1202,735,ls),
(1202,744,o),
(1197,750,o),
(1187,750,cs)
);
}
);
width = 1207;
}
);
note = W;
unicode = 87;
},
{
glyphname = X;
kernLeft = X;
kernRight = X;
lastChange = "2023-03-30 09:47:46 +0000";
layers = (
{
layerId = "6AD408C6-91F3-4F0B-A103-73D10F5280D9";
shapes = (
{
closed = 1;
nodes = (
(824,67,ls),
(796,67,o),
(765,90,o),
(726,138,cs),
(512,399,l),
(681,612,ls),
(720,661,o),
(738,682,o),
(780,682,cs),
(796,682,ls),
(807,682,o),
(813,688,o),
(813,699,cs),
(813,733,ls),
(813,744,o),
(807,750,o),
(796,750,cs),
(561,750,ls),
(550,750,o),
(544,744,o),
(544,733,cs),
(544,699,ls),
(544,688,o),
(550,682,o),
(561,682,cs),
(572,682,ls),
(591,682,o),
(599,678,o),
(599,668,cs),
(599,657,o),
(586,638,o),
(566,612,cs),
(454,470,l),
(322,631,ls),
(309,646,o),
(303,658,o),
(303,666,cs),
(303,678,o),
(316,683,o),
(344,683,cs),
(346,683,ls),
(356,683,o),
(362,689,o),
(362,700,cs),
(362,733,ls),
(362,744,o),
(356,750,o),
(345,750,cs),
(55,750,ls),
(44,750,o),
(38,744,o),
(38,733,cs),
(38,700,ls),
(38,689,o),
(44,683,o),
(55,683,cs),
(57,683,ls),
(85,683,o),
(117,659,o),
(156,612,cs),
(333,396,l),
(131,137,ls),
(92,88,o),
(74,67,o),
(32,67,cs),
(27,67,ls),
(16,67,o),
(10,61,o),
(10,50,cs),
(10,17,ls),
(10,6,o),
(16,0,o),
(27,0,cs),
(262,0,ls),
(273,0,o),
(279,6,o),
(279,17,cs),
(279,50,ls),
(279,61,o),
(273,67,o),
(262,67,cs),
(240,67,ls),
(221,67,o),
(213,71,o),
(213,81,cs),
(213,92,o),
(225,111,o),
(246,138,cs),
(391,325,l),
(557,123,ls),
(569,109,o),
(573,99,o),
(573,91,cs),
(573,71,o),
(547,67,o),
(532,67,cs),
(530,67,ls),
(519,67,o),
(513,61,o),
(513,50,cs),
(513,17,ls),
(513,6,o),
(519,0,o),
(530,0,cs),
(827,0,ls),
(838,0,o),
(843,6,o),
(843,17,cs),
(843,50,ls),
(843,61,o),
(838,67,o),
(827,67,cs)
);
}
);
width = 853;
}
);
note = X;
unicode = 88;
},
{
glyphname = Y;
kernLeft = Y;
kernRight = Y;
lastChange = "2023-03-30 09:48:00 +0000";
layers = (
{
anchors = (
{
name = top;
pos = (444,750);
}
);
layerId = "6AD408C6-91F3-4F0B-A103-73D10F5280D9";
shapes = (
{
closed = 1;
nodes = (
(520,750,ls),
(511,750,o),
(505,744,o),
(505,735,cs),
(505,705,ls),
(505,695,o),
(511,690,o),
(520,690,cs),
(550,690,o),
(566,679,o),
(566,657,cs),
(566,642,o),
(559,621,o),
(544,594,cs),
(436,407,l),
(319,594,ls),
(307,614,o),
(302,630,o),
(302,643,cs),
(302,677,o),
(336,690,o),
(372,690,cs),
(381,690,o),
(387,695,o),
(387,705,cs),
(387,735,ls),
(387,744,o),
(381,750,o),
(372,750,cs),
(25,750,ls),
(15,750,o),
(10,744,o),
(10,735,cs),
(10,705,ls),
(10,695,o),
(15,690,o),
(25,690,cs),
(67,690,o),
(94,661,o),
(139,594,cs),
(319,327,ls),
(323,321,o),
(325,316,o),
(325,309,cs),
(325,155,ls),
(325,102,o),
(308,60,o),
(257,60,cs),
(251,60,ls),
(242,60,o),
(236,55,o),
(236,45,cs),
(236,15,ls),
(236,5,o),
(242,0,o),
(251,0,cs),
(559,0,ls),
(568,0,o),
(574,5,o),
(574,15,cs),
(574,45,ls),
(574,55,o),
(568,60,o),
(559,60,cs),
(552,60,ls),
(501,60,o),
(485,102,o),
(485,155,cs),
(485,314,ls),
(485,321,o),
(486,327,o),
(490,333,cs),
(644,594,ls),
(683,660,o),
(725,690,o),
(769,690,cs),
(779,690,o),
(784,695,o),
(784,705,cs),
(784,735,ls),
(784,744,o),
(779,750,o),
(769,750,cs)
);
}
);
width = 794;
}
);
note = Y;
unicode = 89;
},
{
glyphname = Z;
kernLeft = Z;
kernRight = Z;
lastChange = "2023-03-30 09:48:28 +0000";
layers = (
{
anchors = (
{
name = bottom;
pos = (341,0);
},
{
name = top;
pos = (418,750);
}
);
hints = (
{
horizontal = 1;
place = (-13.48, 21);
target = up;
type = BottomGhost;
}
);
layerId = "6AD408C6-91F3-4F0B-A103-73D10F5280D9";
shapes = (
{
closed = 1;
nodes = (
(676,195,ls),
(673,197,o),
(670,198,o),
(667,198,cs),
(662,198,o),
(658,194,o),
(655,189,cs),
(651,183,ls),
(610,121,o),
(541,91,o),
(355,91,cs),
(220,91,l),
(713,731,ls),
(716,735,o),
(717,738,o),
(717,743,cs),
(717,748,o),
(716,750,o),
(711,750,cs),
(176,750,ls),
(169,750,o),
(162,750,o),
(157,755,cs),
(149,763,o),
(147,763,o),
(143,763,cs),
(138,763,o),
(133,761,o),
(130,755,cs),
(51,599,ls),
(49,595,o),
(48,593,o),
(48,590,cs),
(48,585,o),
(51,581,o),
(56,578,cs),
(98,555,ls),
(101,553,o),
(104,552,o),
(107,552,cs),
(111,552,o),
(115,556,o),
(119,561,cs),
(123,566,ls),
(170,624,o),
(211,669,o),
(302,669,cs),
(472,669,l),
(15,81,l),
(15,15,ls),
(15,5,o),
(20,0,o),
(30,0,cs),
(598,0,ls),
(605,0,o),
(612,0,o),
(617,-5,cs),
(622,-10,ls),
(625,-13,o),
(628,-13,o),
(631,-13,cs),
(636,-13,o),
(640,-10,o),
(643,-5,cs),
(723,151,ls),
(725,155,o),
(726,157,o),
(726,160,cs),
(726,164,o),
(725,168,o),
(718,172,cs)
);
}
);
width = 745;
}
);
note = Z;
unicode = 90;
},
{
glyphname = a;
kernLeft = a;
kernRight = a;
lastChange = "2023-03-31 13:35:45 +0000";
layers = (
{
anchors = (
{
name = bottom;
pos = (319,0);
},
{
name = ogonek;
pos = (549,26);
},
{
name = top;
pos = (286,500);
}
);
layerId = "6AD408C6-91F3-4F0B-A103-73D10F5280D9";
shapes = (
{
closed = 1;
nodes = (
(533,294,o),
(533,402,o),
(533,511,cs),
(533,513,o),
(532,513,o),
(531,513,c),
(530,513,l),
(529,513,o),
(528,513,o),
(525,511,cs),
(516,505,o),
(509,500,o),
(502,495,cs),
(484,482,o),
(461,469,o),
(426,455,c),
(384,492,o),
(329,513,o),
(264,513,cs),
(143,513,o),
(30,436,o),
(30,251,cs),
(30,57,o),
(161,-13,o),
(252,-13,cs),
(354,-13,o),
(393,52,o),
(404,79,c),
(400,51,o),
(393,-2,o),
(393,-9,cs),
(393,-12,o),
(394,-13,o),
(395,-13,c),
(398,-13,l),
(401,-13,o),
(403,-12,o),
(405,-11,cs),
(450,9,o),
(491,27,o),
(589,27,cs),
(599,27,o),
(604,32,o),
(604,41,cs),
(604,74,ls),
(604,81,o),
(602,86,o),
(592,87,cs),
(543,93,o),
(533,137,o),
(533,185,cs)
);
},
{
closed = 1;
nodes = (
(393,141,l),
(391,135,o),
(368,75,o),
(297,75,cs),
(215,75,o),
(159,155,o),
(159,283,cs),
(159,366,o),
(185,446,o),
(282,446,cs),
(360,446,o),
(386,382,o),
(393,342,c)
);
}
);
width = 619;
}
);
note = a;
unicode = 97;
},
{
glyphname = ae;
kernLeft = a;
kernRight = e;
lastChange = "2023-03-30 09:40:38 +0000";
layers = (
{
anchors = (
{
name = top;
pos = (434,500);
}
);
layerId = "6AD408C6-91F3-4F0B-A103-73D10F5280D9";
shapes = (
{
closed = 1;
nodes = (
(386,382,o),
(360,446,o),
(282,446,cs),
(185,446,o),
(159,366,o),
(159,283,cs),
(159,155,o),
(215,75,o),
(297,75,cs),
(368,75,o),
(391,135,o),
(393,141,c),
(393,342,l)
);
},
{
closed = 1;
nodes = (
(30,436,o),
(143,513,o),
(264,513,cs),
(329,513,o),
(384,492,o),
(426,455,c),
(463,470,o),
(486,483,o),
(503,495,cs),
(512,501,o),
(519,506,o),
(525,511,cs),
(528,513,o),
(529,513,o),
(530,513,c),
(531,513,l),
(532,513,o),
(533,513,o),
(533,511,cs),
(533,489,l),
(566,504,o),
(603,511,o),
(640,511,cs),
(772,511,o),
(846,394,o),
(846,318,cs),
(846,313,o),
(844,309,o),
(837,306,cs),
(547,179,l),
(570,123,o),
(620,71,o),
(697,71,cs),
(740,71,o),
(790,94,o),
(825,145,cs),
(827,148,o),
(830,150,o),
(833,150,cs),
(839,150,o),
(841,149,o),
(873,130,cs),
(876,128,o),
(877,125,o),
(877,122,cs),
(877,117,o),
(874,110,o),
(871,105,cs),
(833,36,o),
(772,-12,o),
(670,-12,cs),
(615,-12,o),
(568,1,o),
(528,24,c),
(471,18,o),
(439,4,o),
(405,-11,cs),
(403,-12,o),
(401,-13,o),
(398,-13,cs),
(396,-13,ls),
(394,-13,o),
(393,-12,o),
(393,-10,cs),
(404,79,l),
(393,52,o),
(354,-13,o),
(252,-13,cs),
(161,-13,o),
(30,57,o),
(30,251,cs)
);
},
{
closed = 1;
nodes = (
(526,298,o),
(527,265,o),
(535,241,c),
(696,322,l),
(696,386,o),
(661,432,o),
(615,432,cs),
(560,432,o),
(526,383,o),
(526,318,cs)
);
}
);
width = 887;
}
);
metricLeft = a;
metricRight = e;
note = ae;
unicode = 230;
},
{
glyphname = b;
kernLeft = b;
kernRight = b;
lastChange = "2023-03-30 09:40:38 +0000";
layers = (
{
hints = (
{
horizontal = 1;
place = (800.01, -20);
target = down;
type = TopGhost;
}
);
layerId = "6AD408C6-91F3-4F0B-A103-73D10F5280D9";
shapes = (
{
closed = 1;
nodes = (
(76,215,ls),
(76,50,o),
(184,-13,o),
(317,-13,cs),
(479,-13,o),
(579,96,o),
(579,249,cs),
(579,443,o),
(444,513,o),
(336,513,cs),
(280,513,o),
(233,491,o),
(215,464,c),
(215,798,ls),
(215,800,o),
(214,800,o),
(213,800,cs),
(212,800,ls),
(211,800,o),
(210,800,o),
(207,798,cs),
(180,778,o),
(125,740,o),
(19,705,cs),
(10,702,o),
(5,700,o),
(5,692,cs),
(5,658,ls),
(5,651,o),
(7,646,o),
(17,645,cs),
(72,639,o),
(76,584,o),
(76,530,cs)
);
},
{
closed = 1;
nodes = (
(215,399,l),
(239,417,o),
(265,425,o),
(292,425,cs),
(394,425,o),
(450,345,o),
(450,217,cs),
(450,134,o),
(424,53,o),
(327,53,cs),
(270,53,o),
(215,96,o),
(215,194,cs)
);
}
);
width = 609;
}
);
note = b;
unicode = 98;
},
{
glyphname = c;
kernLeft = a;
kernRight = c;
lastChange = "2023-03-30 09:40:38 +0000";
layers = (
{
anchors = (
{
name = bottom;
pos = (283,0);
},
{
name = top;
pos = (268,500);
}
);
background = {
shapes = (
{
closed = 1;
nodes = (
(446,153,ls),
(443,155,o),
(440,156,o),
(437,156,cs),
(433,156,o),
(428,154,o),
(425,149,cs),
(395,103,o),
(348,76,o),
(295,76,cs),
(194,76,o),
(159,169,o),
(159,268,cs),
(159,350,o),
(184,432,o),
(260,432,cs),
(319,432,o),
(346,387,o),
(342,342,cs),
(341,331,ls),
(341,327,o),
(342,324,o),
(348,324,cs),
(350,324,o),
(354,325,o),
(357,326,cs),
(472,356,ls),
(479,358,o),
(484,361,o),
(484,367,cs),
(484,369,o),
(484,370,o),
(483,374,cs),
(466,444,o),
(415,512,o),
(283,512,cs),
(170,512,o),
(45,440,o),
(31,274,cs),
(19,131,o),
(119,-9,o),
(269,-9,cs),
(358,-9,o),
(439,28,o),
(478,114,cs),
(479,117,o),
(480,120,o),
(480,122,cs),
(480,127,o),
(477,131,o),
(472,135,cs)
);
}
);
};
layerId = "6AD408C6-91F3-4F0B-A103-73D10F5280D9";
shapes = (
{
closed = 1;
nodes = (
(446,153,ls),
(443,155,o),
(440,156,o),
(437,156,cs),
(433,156,o),
(428,154,o),
(425,149,cs),
(395,103,o),
(348,76,o),
(295,76,cs),
(194,76,o),
(159,169,o),
(159,268,cs),
(159,350,o),
(184,432,o),
(260,432,cs),
(316,432,o),
(342,392,o),
(342,350,cs),
(342,341,o),
(341,336,o),
(341,331,cs),
(341,327,o),
(342,324,o),
(348,324,cs),
(350,324,o),
(354,325,o),
(357,326,cs),
(472,356,ls),
(479,358,o),
(484,361,o),
(484,367,cs),
(484,369,o),
(484,370,o),
(483,374,cs),
(466,444,o),
(415,513,o),
(283,513,cs),
(170,513,o),
(45,440,o),
(31,274,cs),
(19,131,o),
(119,-13,o),
(269,-13,cs),
(358,-13,o),
(439,28,o),
(478,114,cs),
(479,117,o),
(480,120,o),
(480,122,cs),
(480,127,o),
(477,131,o),
(472,135,cs)
);
}
);
width = 514;
}
);
note = c;
unicode = 99;
},
{
glyphname = d;
kernLeft = a;
kernRight = a;
lastChange = "2023-03-30 09:40:37 +0000";
layers = (
{
anchors = (
{
name = bottom;
pos = (337,0);
}
);
hints = (
{
horizontal = 1;
place = (800, -20);
target = down;
type = TopGhost;
}
);
layerId = "6AD408C6-91F3-4F0B-A103-73D10F5280D9";
shapes = (
{
closed = 1;
nodes = (
(533,798,ls),
(533,800,o),
(532,800,o),
(531,800,cs),
(530,800,ls),
(529,800,o),
(528,800,o),
(525,798,cs),
(498,778,o),
(442,740,o),
(337,705,cs),
(328,702,o),
(322,700,o),
(322,692,cs),
(322,658,ls),
(322,651,o),
(324,646,o),
(334,645,cs),
(389,639,o),
(393,584,o),
(393,530,cs),
(393,466,l),
(358,497,o),
(314,513,o),
(264,513,cs),
(143,513,o),
(30,436,o),
(30,251,cs),
(30,57,o),
(161,-13,o),
(252,-13,cs),
(354,-13,o),
(393,52,o),
(404,79,c),
(399,49,o),
(396,20,o),
(393,-10,cs),
(393,-12,o),
(394,-13,o),
(396,-13,cs),
(398,-13,ls),
(401,-13,o),
(403,-12,o),
(405,-11,cs),
(450,9,o),
(491,27,o),
(589,27,cs),
(599,27,o),
(604,32,o),
(604,41,cs),
(604,74,ls),
(604,81,o),
(602,86,o),
(592,87,cs),
(543,93,o),
(533,137,o),
(533,185,cs)
);
},
{
closed = 1;
nodes = (
(393,160,l),
(384,123,o),
(351,75,o),
(297,75,cs),
(215,75,o),
(159,155,o),
(159,283,cs),
(159,366,o),
(185,437,o),
(282,437,cs),
(348,437,o),
(393,386,o),
(393,324,cs)
);
}
);
width = 619;
}
);
note = d;
unicode = 100;
},
{
glyphname = eth;
kernLeft = eth;
kernRight = eth;
lastChange = "2023-03-30 09:40:37 +0000";
layers = (
{
hints = (
{
horizontal = 1;
place = (750.53, -20);
target = down;
type = TopGhost;
},
{
horizontal = 1;
place = (807.97, -20);
target = down;
type = TopGhost;
},
{
horizontal = 1;
place = (503.57, -20);
target = down;
type = TopGhost;
}
);
layerId = "6AD408C6-91F3-4F0B-A103-73D10F5280D9";
shapes = (
{
closed = 1;
nodes = (
(160,212,o),
(207,60,o),
(307,60,cs),
(376,60,o),
(413,117,o),
(413,196,cs),
(413,282,o),
(366,434,o),
(266,434,cs),
(193,434,o),
(160,372,o),
(160,299,cs)
);
},
{
closed = 1;
nodes = (
(31,397,o),
(144,510,o),
(283,510,cs),
(302,510,o),
(321,508,o),
(340,504,c),
(305,600,o),
(207,708,o),
(58,722,cs),
(48,723,o),
(43,728,o),
(43,738,cs),
(43,774,ls),
(43,783,o),
(48,789,o),
(57,789,cs),
(328,788,o),
(542,514,o),
(542,259,cs),
(542,110,o),
(433,-13,o),
(290,-13,cs),
(146,-13,o),
(31,105,o),
(31,250,cs)
);
},
{
closed = 1;
nodes = (
(267,800,o),
(271,802,o),
(275,802,cs),
(278,802,o),
(281,801,o),
(285,798,cs),
(321,771,ls),
(326,767,o),
(328,764,o),
(328,760,cs),
(328,757,o),
(327,753,o),
(324,750,cs),
(185,584,ls),
(182,580,o),
(178,578,o),
(174,578,cs),
(171,578,o),
(168,579,o),
(164,582,cs),
(127,609,ls),
(123,612,o),
(121,616,o),
(121,620,cs),
(121,623,o),
(122,627,o),
(125,630,cs),
(264,796,ls)
);
}
);
width = 573;
}
);
note = eth;
unicode = 240;
},
{
glyphname = dcroat;
kernLeft = a;
kernRight = dcroat;
lastChange = "2023-03-30 09:40:37 +0000";
layers = (
{
hints = (
{
horizontal = 1;
place = (800, -20);
target = down;
type = TopGhost;
}
);
layerId = "6AD408C6-91F3-4F0B-A103-73D10F5280D9";
shapes = (
{
closed = 1;
nodes = (
(579,525,ls),
(589,525,o),
(594,531,o),
(594,540,cs),
(594,580,ls),
(594,590,o),
(589,595,o),
(579,595,cs),
(329,595,ls),
(319,595,o),
(314,590,o),
(314,580,cs),
(314,540,ls),
(314,531,o),
(319,525,o),
(329,525,cs)
);
},
{
ref = d;
}
);
width = 614;
}
);
note = dcroat;
unicode = 273;
},
{
glyphname = e;
kernLeft = a;
kernRight = e;
lastChange = "2023-03-31 13:35:21 +0000";
layers = (
{
anchors = (
{
name = bottom;
pos = (295,0);
},
{
name = ogonek;
pos = (411,27);
},
{
name = top;
pos = (256,500);
}
);
layerId = "6AD408C6-91F3-4F0B-A103-73D10F5280D9";
shapes = (
{
closed = 1;
nodes = (
(465,306,ls),
(472,309,o),
(474,313,o),
(474,318,cs),
(474,394,o),
(400,513,o),
(268,513,cs),
(150,513,o),
(30,440,o),
(30,255,cs),
(30,110,o),
(132,-13,o),
(298,-13,cs),
(400,-13,o),
(461,36,o),
(499,105,cs),
(502,110,o),
(505,117,o),
(505,122,cs),
(505,125,o),
(504,128,o),
(501,130,cs),
(469,149,o),
(467,150,o),
(461,150,cs),
(458,150,o),
(455,148,o),
(453,145,cs),
(418,94,o),
(368,71,o),
(325,71,cs),
(248,71,o),
(198,123,o),
(175,179,c)
);
},
{
closed = 1;
nodes = (
(163,241,l),
(155,265,o),
(154,298,o),
(154,318,cs),
(154,383,o),
(188,432,o),
(243,432,cs),
(289,432,o),
(324,386,o),
(324,322,c)
);
}
);
width = 515;
}
);
note = e;
unicode = 101;
},
{
glyphname = f;
kernLeft = f;
kernRight = f;
lastChange = "2023-03-30 09:40:37 +0000";
layers = (
{
layerId = "6AD408C6-91F3-4F0B-A103-73D10F5280D9";
shapes = (
{
closed = 1;
nodes = (
(109,500,l),
(35,500,ls),
(25,500,o),
(20,495,o),
(20,485,cs),
(20,455,ls),
(20,445,o),
(25,440,o),
(35,440,cs),
(107,440,o),
(108,380,o),
(108,326,cs),
(108,155,ls),
(108,101,o),
(84,60,o),
(35,60,cs),
(25,60,o),
(20,55,o),
(20,45,cs),
(20,15,ls),
(20,5,o),
(25,0,o),
(35,0,cs),
(317,0,ls),
(326,0,o),
(332,5,o),
(332,15,cs),
(332,45,ls),
(332,55,o),
(326,60,o),
(317,60,cs),
(268,60,o),
(243,101,o),
(243,155,cs),
(243,427,l),
(377,427,ls),
(386,427,o),
(392,432,o),
(392,442,cs),
(392,485,ls),
(392,495,o),
(386,500,o),
(377,500,cs),
(243,500,l),
(243,566,ls),
(243,642,o),
(250,693,o),
(275,723,cs),
(287,738,o),
(302,745,o),
(317,745,cs),
(341,745,o),
(364,725,o),
(364,688,cs),
(364,669,o),
(358,648,o),
(345,622,cs),
(343,618,o),
(342,614,o),
(342,611,cs),
(342,606,o),
(344,602,o),
(348,602,cs),
(353,602,o),
(421,617,o),
(457,625,cs),
(472,628,o),
(478,634,o),
(482,644,cs),
(489,661,o),
(492,678,o),
(492,694,cs),
(492,754,o),
(441,800,o),
(335,800,cs),
(160,800,o),
(109,627,o),
(109,508,cs)
);
}
);
width = 402;
}
);
note = f;
unicode = 102;
},
{
glyphname = g;
kernLeft = g;
kernRight = g;
lastChange = "2023-03-30 09:40:37 +0000";
layers = (
{
anchors = (
{
name = top;
pos = (260,500);
}
);
layerId = "6AD408C6-91F3-4F0B-A103-73D10F5280D9";
shapes = (
{
closed = 1;
nodes = (
(433,514,ls),
(424,512,o),
(422,507,o),
(422,499,cs),
(422,496,ls),
(422,476,o),
(414,470,o),
(404,470,cs),
(401,470,o),
(396,470,o),
(390,474,cs),
(354,498,o),
(308,513,o),
(252,513,cs),
(115,513,o),
(32,426,o),
(32,321,cs),
(32,267,o),
(53,220,o),
(91,185,c),
(55,170,o),
(29,137,o),
(29,92,cs),
(29,54,o),
(45,23,o),
(80,1,c),
(46,-18,o),
(20,-49,o),
(20,-93,cs),
(20,-177,o),
(125,-215,o),
(247,-215,cs),
(367,-215,o),
(496,-176,o),
(496,-67,cs),
(496,53,o),
(381,75,o),
(264,81,cs),
(141,87,o),
(118,102,o),
(118,133,cs),
(118,143,o),
(123,152,o),
(131,158,c),
(164,140,o),
(205,130,o),
(252,130,cs),
(389,130,o),
(472,215,o),
(472,321,cs),
(472,354,o),
(464,386,o),
(448,413,c),
(493,413,o),
(519,451,o),
(519,516,cs),
(519,525,o),
(519,531,o),
(514,531,cs),
(512,531,o),
(510,531,o),
(506,530,cs)
);
},
{
closed = 1;
nodes = (
(328,453,o),
(343,379,o),
(343,321,cs),
(343,263,o),
(328,189,o),
(252,189,cs),
(176,189,o),
(154,263,o),
(154,321,cs),
(154,379,o),
(176,453,o),
(252,453,cs)
);
},
{
closed = 1;
nodes = (
(148,-146,o),
(120,-110,o),
(120,-79,cs),
(120,-57,o),
(129,-39,o),
(148,-26,c),
(174,-32,o),
(205,-36,o),
(241,-38,cs),
(342,-43,o),
(401,-52,o),
(401,-95,cs),
(401,-126,o),
(347,-146,o),
(248,-146,cs)
);
}
);
width = 522;
}
);
note = g;
unicode = 103;
},
{
glyphname = h;
kernLeft = h;
kernRight = h;
lastChange = "2023-03-30 09:40:37 +0000";
layers = (
{
anchors = (
{
name = bottom;
pos = (351,0);
}
);
hints = (
{
horizontal = 1;
place = (800, -20);
target = down;
type = TopGhost;
}
);
layerId = "6AD408C6-91F3-4F0B-A103-73D10F5280D9";
shapes = (
{
closed = 1;
nodes = (
(653,60,ls),
(604,60,o),
(580,101,o),
(580,155,cs),
(580,340,ls),
(580,476,o),
(503,513,o),
(410,513,cs),
(318,513,o),
(262,449,o),
(244,414,c),
(244,798,ls),
(244,800,o),
(243,800,o),
(242,800,cs),
(241,800,ls),
(240,800,o),
(239,800,o),
(236,798,cs),
(177,754,o),
(111,726,o),
(48,705,cs),
(39,702,o),
(34,700,o),
(34,692,cs),
(34,658,ls),
(34,651,o),
(36,646,o),
(46,645,cs),
(101,639,o),
(105,584,o),
(105,530,cs),
(105,155,ls),
(105,101,o),
(81,60,o),
(32,60,cs),
(30,60,ls),
(20,60,o),
(15,55,o),
(15,45,cs),
(15,15,ls),
(15,5,o),
(20,0,o),
(30,0,cs),
(321,0,ls),
(331,0,o),
(336,5,o),
(336,15,cs),
(336,45,ls),
(336,55,o),
(331,60,o),
(321,60,cs),
(319,60,ls),
(270,60,o),
(245,101,o),
(245,155,cs),
(245,349,l),
(263,392,o),
(318,425,o),
(367,425,cs),
(428,425,o),
(439,393,o),
(439,326,cs),
(439,155,ls),
(439,101,o),
(424,60,o),
(387,60,cs),
(384,60,ls),
(375,60,o),
(369,55,o),
(369,45,cs),
(369,15,ls),
(369,5,o),
(375,0,o),
(384,0,cs),
(656,0,ls),
(665,0,o),
(671,5,o),
(671,15,cs),
(671,45,ls),
(671,55,o),
(665,60,o),
(656,60,cs)
);
}
);
width = 681;
}
);
note = h;
unicode = 104;
},
{
glyphname = hbar;
kernLeft = h;
kernRight = h;
lastChange = "2023-03-30 09:40:37 +0000";
layers = (
{
hints = (
{
horizontal = 1;
place = (800, -20);
target = down;
type = TopGhost;
}
);
layerId = "6AD408C6-91F3-4F0B-A103-73D10F5280D9";
shapes = (
{
ref = h;
},
{
closed = 1;
nodes = (
(54,595,ls),
(44,595,o),
(39,590,o),
(39,580,cs),
(39,540,ls),
(39,531,o),
(44,525,o),
(54,525,cs),
(344,525,ls),
(354,525,o),
(359,531,o),
(359,540,cs),
(359,580,ls),
(359,590,o),
(354,595,o),
(344,595,cs)
);
}
);
width = 681;
}
);
note = hbar;
unicode = 295;
},
{
glyphname = idotless;
kernLeft = i;
kernRight = a;
lastChange = "2023-03-30 09:40:37 +0000";
layers = (
{
anchors = (
{
name = bottom;
pos = (174,0);
},
{
name = ogonek;
pos = (315,0);
},
{
name = top;
pos = (174,500);
}
);
layerId = "6AD408C6-91F3-4F0B-A103-73D10F5280D9";
shapes = (
{
closed = 1;
nodes = (
(314,60,ls),
(265,60,o),
(241,102,o),
(241,156,cs),
(241,529,ls),
(241,530,o),
(240,531,o),
(239,531,cs),
(236,531,ls),
(234,531,o),
(233,530,o),
(232,529,cs),
(205,501,o),
(153,462,o),
(48,427,cs),
(38,424,o),
(33,422,o),
(33,414,cs),
(33,380,ls),
(33,373,o),
(35,368,o),
(45,367,cs),
(100,361,o),
(104,306,o),
(104,261,cs),
(104,155,ls),
(104,101,o),
(81,60,o),
(32,60,cs),
(30,60,ls),
(20,60,o),
(15,55,o),
(15,45,cs),
(15,15,ls),
(15,5,o),
(22,0,o),
(32,0,cs),
(315,0,ls),
(325,0,o),
(332,5,o),
(332,15,cs),
(332,45,ls),
(332,55,o),
(327,60,o),
(317,60,cs)
);
}
);
width = 347;
}
);
note = dotlessi;
unicode = 305;
},
{
glyphname = jdotless;
kernLeft = j;
kernRight = j;
lastChange = "2023-03-30 09:35:03 +0000";
layers = (
{
anchors = (
{
name = top;
pos = (174,500);
}
);
layerId = "6AD408C6-91F3-4F0B-A103-73D10F5280D9";
shapes = (
{
closed = 1;
nodes = (
(107,-5,ls),
(107,-87,o),
(105,-158,o),
(44,-158,cs),
(-11,-158,o),
(-25,-105,o),
(-25,-56,cs),
(-25,-46,o),
(-31,-42,o),
(-36,-42,cs),
(-40,-42,o),
(-43,-44,o),
(-50,-49,cs),
(-114,-95,ls),
(-122,-101,o),
(-125,-109,o),
(-125,-116,cs),
(-125,-135,o),
(-86,-214,o),
(37,-214,cs),
(212,-214,o),
(244,-62,o),
(244,62,cs),
(244,529,ls),
(244,530,o),
(243,531,o),
(242,531,cs),
(239,531,ls),
(237,531,o),
(236,530,o),
(235,529,cs),
(208,501,o),
(156,462,o),
(51,427,cs),
(41,424,o),
(36,422,o),
(36,414,cs),
(36,380,ls),
(36,373,o),
(38,368,o),
(48,367,cs),
(103,361,o),
(107,306,o),
(107,261,cs)
);
}
);
width = 303;
}
);
unicode = 567;
},
{
glyphname = k;
kernLeft = h;
kernRight = k;
lastChange = "2023-03-30 09:40:37 +0000";
layers = (
{
anchors = (
{
name = bottom;
pos = (329,0);
}
);
hints = (
{
horizontal = 1;
place = (800.01, -20);
target = down;
type = TopGhost;
}
);
layerId = "6AD408C6-91F3-4F0B-A103-73D10F5280D9";
shapes = (
{
closed = 1;
nodes = (
(608,60,ls),
(594,60,o),
(584,68,o),
(561,91,cs),
(347,306,l),
(424,375,ls),
(476,422,o),
(498,440,o),
(537,440,cs),
(549,440,ls),
(557,440,o),
(562,445,o),
(562,455,cs),
(562,485,ls),
(562,495,o),
(557,500,o),
(547,500,cs),
(325,500,ls),
(315,500,o),
(310,495,o),
(310,485,cs),
(310,455,ls),
(310,445,o),
(315,440,o),
(323,440,cs),
(353,440,ls),
(367,440,o),
(373,434,o),
(373,427,cs),
(373,422,o),
(370,418,o),
(365,413,cs),
(243,302,l),
(243,798,ls),
(243,800,o),
(242,800,o),
(241,800,cs),
(239,800,ls),
(238,800,o),
(237,800,o),
(234,798,cs),
(207,778,o),
(152,740,o),
(46,705,cs),
(37,702,o),
(32,700,o),
(32,692,cs),
(32,658,ls),
(32,651,o),
(34,646,o),
(43,645,cs),
(99,639,o),
(103,584,o),
(103,530,cs),
(103,155,ls),
(103,101,o),
(79,60,o),
(30,60,cs),
(20,60,o),
(15,55,o),
(15,45,cs),
(15,15,ls),
(15,5,o),
(20,0,o),
(30,0,cs),
(297,0,ls),
(306,0,o),
(312,5,o),
(312,15,cs),
(312,45,ls),
(312,55,o),
(306,60,o),
(297,60,cs),
(248,60,o),
(243,77,o),
(243,155,cs),
(243,214,l),
(264,233,l),
(396,90,ls),
(402,84,o),
(404,79,o),
(404,75,cs),
(404,65,o),
(390,60,o),
(377,60,cs),
(362,60,ls),
(354,60,o),
(349,55,o),
(349,46,cs),
(349,15,ls),
(349,5,o),
(354,0,o),
(364,0,cs),
(609,0,ls),
(619,0,o),
(624,5,o),
(624,15,cs),
(624,45,ls),
(624,55,o),
(619,60,o),
(611,60,cs)
);
}
);
width = 631;
}
);
note = k;
unicode = 107;
},
{
glyphname = kgreenlandic;
kernLeft = h;
kernRight = k;
lastChange = "2023-03-30 09:40:37 +0000";
layers = (
{
layerId = "6AD408C6-91F3-4F0B-A103-73D10F5280D9";
shapes = (
{
closed = 1;
nodes = (
(253,245,l),
(396,90,ls),
(402,84,o),
(404,79,o),
(404,75,cs),
(404,65,o),
(390,60,o),
(377,60,cs),
(362,60,ls),
(354,60,o),
(349,55,o),
(349,46,cs),
(349,15,ls),
(349,5,o),
(354,0,o),
(364,0,cs),
(609,0,ls),
(619,0,o),
(624,5,o),
(624,15,cs),
(624,45,ls),
(624,55,o),
(619,60,o),
(611,60,cs),
(608,60,ls),
(594,60,o),
(584,68,o),
(561,91,cs),
(336,317,l)
);
},
{
closed = 1;
nodes = (
(243,345,ls),
(243,423,o),
(248,440,o),
(297,440,cs),
(306,440,o),
(312,445,o),
(312,455,cs),
(312,485,ls),
(312,495,o),
(306,500,o),
(297,500,cs),
(30,500,ls),
(20,500,o),
(15,495,o),
(15,485,cs),
(15,455,ls),
(15,445,o),
(20,440,o),
(30,440,cs),
(79,440,o),
(103,399,o),
(103,345,cs),
(103,155,ls),
(103,101,o),
(79,60,o),
(30,60,cs),
(20,60,o),
(15,55,o),
(15,45,cs),
(15,15,ls),
(15,5,o),
(20,0,o),
(30,0,cs),
(297,0,ls),
(306,0,o),
(312,5,o),
(312,15,cs),
(312,45,ls),
(312,55,o),
(306,60,o),
(297,60,cs),
(248,60,o),
(243,77,o),
(243,155,cs)
);
},
{
closed = 1;
nodes = (
(464,375,ls),
(516,422,o),
(538,440,o),
(577,440,cs),
(589,440,ls),
(597,440,o),
(602,445,o),
(602,455,cs),
(602,485,ls),
(602,495,o),
(597,500,o),
(587,500,cs),
(365,500,ls),
(355,500,o),
(350,495,o),
(350,485,cs),
(350,455,ls),
(350,445,o),
(355,440,o),
(363,440,cs),
(393,440,ls),
(407,440,o),
(413,434,o),
(413,427,cs),
(413,422,o),
(410,418,o),
(405,413,cs),
(231,253,l),
(231,165,l)
);
}
);
width = 631;
}
);
metricLeft = k;
metricRight = k;
unicode = 312;
},
{
glyphname = l;
kernLeft = h;
kernRight = a;
lastChange = "2023-03-30 09:40:37 +0000";
layers = (
{
anchors = (
{
name = bottom;
pos = (172,0);
},
{
name = top;
pos = (174,782);
}
);
hints = (
{
horizontal = 1;
place = (800, -20);
target = down;
type = TopGhost;
}
);
layerId = "6AD408C6-91F3-4F0B-A103-73D10F5280D9";
shapes = (
{
closed = 1;
nodes = (
(314,60,ls),
(265,60,o),
(241,102,o),
(241,156,cs),
(241,798,ls),
(241,799,o),
(240,800,o),
(239,800,cs),
(236,800,ls),
(234,800,o),
(233,799,o),
(232,798,cs),
(195,770,o),
(143,741,o),
(48,706,cs),
(38,702,o),
(33,701,o),
(33,693,cs),
(33,659,ls),
(33,652,o),
(35,647,o),
(45,646,cs),
(100,640,o),
(104,585,o),
(104,530,cs),
(104,155,ls),
(104,101,o),
(81,60,o),
(32,60,cs),
(30,60,ls),
(20,60,o),
(15,55,o),
(15,45,cs),
(15,15,ls),
(15,5,o),
(22,0,o),
(32,0,cs),
(315,0,ls),
(325,0,o),
(332,5,o),
(332,15,cs),
(332,45,ls),
(332,55,o),
(327,60,o),
(317,60,cs)
);
}
);
width = 347;
}
);
note = l;
unicode = 108;
},
{
glyphname = lslash;
kernLeft = h;
kernRight = a;
lastChange = "2023-03-30 09:40:38 +0000";
layers = (
{
hints = (
{
horizontal = 1;
place = (800, -20);
target = down;
type = TopGhost;
}
);
layerId = "6AD408C6-91F3-4F0B-A103-73D10F5280D9";
shapes = (
{
closed = 1;
nodes = (
(33,399,ls),
(25,396,o),
(22,390,o),
(22,382,cs),
(23,302,ls),
(23,293,o),
(27,288,o),
(34,288,cs),
(36,288,o),
(38,289,o),
(40,290,cs),
(413,430,ls),
(421,433,o),
(424,438,o),
(424,447,cs),
(423,527,ls),
(423,536,o),
(419,540,o),
(412,540,cs),
(410,540,o),
(408,540,o),
(406,539,cs)
);
},
{
pos = (48,0);
ref = l;
}
);
width = 445;
}
);
note = lslash;
unicode = 322;
},
{
glyphname = m;
kernLeft = m;
kernRight = h;
lastChange = "2023-03-30 09:40:38 +0000";
layers = (
{
anchors = (
{
name = bottom;
pos = (509,0);
}
);
layerId = "6AD408C6-91F3-4F0B-A103-73D10F5280D9";
shapes = (
{
closed = 1;
nodes = (
(995,60,ls),
(947,60,o),
(922,101,o),
(922,155,cs),
(922,320,ls),
(922,416,o),
(895,513,o),
(752,513,cs),
(673,513,o),
(613,473,o),
(568,415,c),
(551,472,o),
(507,513,o),
(409,513,cs),
(318,513,o),
(264,443,o),
(236,398,c),
(253,521,ls),
(254,527,o),
(254,528,o),
(254,529,cs),
(254,530,o),
(254,531,o),
(252,531,cs),
(251,531,ls),
(249,531,o),
(247,530,o),
(243,527,cs),
(216,508,o),
(144,471,o),
(48,456,cs),
(38,454,o),
(34,451,o),
(34,443,cs),
(34,409,ls),
(34,402,o),
(36,397,o),
(45,396,cs),
(101,390,o),
(105,334,o),
(105,281,cs),
(105,155,ls),
(105,101,o),
(81,60,o),
(32,60,cs),
(30,60,ls),
(20,60,o),
(15,55,o),
(15,45,cs),
(15,15,ls),
(15,5,o),
(20,0,o),
(30,0,cs),
(311,0,ls),
(321,0,o),
(326,5,o),
(326,15,cs),
(326,45,ls),
(326,55,o),
(321,60,o),
(311,60,cs),
(309,60,ls),
(270,60,o),
(245,101,o),
(245,155,cs),
(245,339,l),
(262,382,o),
(317,425,o),
(367,425,cs),
(430,425,o),
(439,390,o),
(439,326,cs),
(439,155,ls),
(439,81,o),
(414,60,o),
(386,60,cs),
(379,60,ls),
(370,60,o),
(364,55,o),
(364,45,cs),
(364,15,ls),
(364,5,o),
(370,0,o),
(379,0,cs),
(651,0,ls),
(661,0,o),
(666,5,o),
(666,15,cs),
(666,45,ls),
(666,55,o),
(661,60,o),
(651,60,cs),
(643,60,ls),
(604,60,o),
(579,81,o),
(579,155,cs),
(579,330,l),
(608,384,o),
(651,425,o),
(709,425,cs),
(773,425,o),
(781,380,o),
(781,326,cs),
(781,155,ls),
(781,91,o),
(771,60,o),
(729,60,cs),
(724,60,ls),
(714,60,o),
(709,55,o),
(709,45,cs),
(709,15,ls),
(709,5,o),
(714,0,o),
(724,0,cs),
(1006,0,ls),
(1015,0,o),
(1021,5,o),
(1021,15,cs),
(1021,45,ls),
(1021,55,o),
(1015,60,o),
(1006,60,cs)
);
}
);
width = 1036;
}
);
note = m;
unicode = 109;
},
{
glyphname = n;
kernLeft = m;
kernRight = h;
lastChange = "2023-03-30 09:40:37 +0000";
layers = (
{
anchors = (
{
name = bottom;
pos = (348,0);
},
{
name = top;
pos = (342,500);
}
);
layerId = "6AD408C6-91F3-4F0B-A103-73D10F5280D9";
shapes = (
{
closed = 1;
nodes = (
(579,418,o),
(554,513,o),
(409,513,cs),
(318,513,o),
(264,443,o),
(236,398,c),
(253,521,ls),
(254,527,o),
(254,528,o),
(254,529,cs),
(254,530,o),
(254,531,o),
(252,531,cs),
(251,531,ls),
(249,531,o),
(247,530,o),
(243,527,cs),
(216,508,o),
(144,471,o),
(48,456,cs),
(38,454,o),
(34,451,o),
(34,443,cs),
(34,409,ls),
(34,402,o),
(36,397,o),
(45,396,cs),
(101,390,o),
(105,334,o),
(105,281,cs),
(105,155,ls),
(105,101,o),
(81,60,o),
(32,60,cs),
(30,60,ls),
(20,60,o),
(15,55,o),
(15,45,cs),
(15,15,ls),
(15,5,o),
(20,0,o),
(30,0,cs),
(311,0,ls),
(321,0,o),
(326,5,o),
(326,15,cs),
(326,45,ls),
(326,55,o),
(321,60,o),
(311,60,cs),
(309,60,ls),
(270,60,o),
(245,101,o),
(245,155,cs),
(245,339,l),
(262,382,o),
(317,425,o),
(367,425,cs),
(423,425,o),
(439,390,o),
(439,326,cs),
(439,155,ls),
(439,81,o),
(420,60,o),
(392,60,cs),
(385,60,ls),
(376,60,o),
(370,55,o),
(370,45,cs),
(370,15,ls),
(370,5,o),
(376,0,o),
(385,0,cs),
(651,0,ls),
(661,0,o),
(666,5,o),
(666,15,cs),
(666,45,ls),
(666,55,o),
(661,60,o),
(651,60,cs),
(643,60,ls),
(604,60,o),
(579,81,o),
(579,155,cs),
(579,326,ls)
);
}
);
width = 681;
}
);
note = n;
unicode = 110;
},
{
glyphname = nhookleft;
kernLeft = m;
kernRight = h;
lastChange = "2023-03-30 09:40:38 +0000";
layers = (
{
anchors = (
{
name = bottom;
pos = (348,0);
},
{
name = top;
pos = (342,500);
}
);
layerId = "6AD408C6-91F3-4F0B-A103-73D10F5280D9";
shapes = (
{
closed = 1;
nodes = (
(245,339,l),
(262,382,o),
(317,425,o),
(367,425,cs),
(423,425,o),
(439,390,o),
(439,326,cs),
(439,155,ls),
(439,81,o),
(420,60,o),
(392,60,cs),
(385,60,ls),
(376,60,o),
(370,55,o),
(370,45,cs),
(370,15,ls),
(370,5,o),
(376,0,o),
(385,0,cs),
(651,0,ls),
(661,0,o),
(666,5,o),
(666,15,cs),
(666,45,ls),
(666,55,o),
(661,60,o),
(651,60,cs),
(643,60,ls),
(604,60,o),
(579,81,o),
(579,155,cs),
(579,326,ls),
(579,418,o),
(554,513,o),
(409,513,cs),
(318,513,o),
(264,443,o),
(236,398,c),
(253,521,ls),
(254,527,o),
(254,528,o),
(254,529,cs),
(254,531,o),
(253,531,o),
(252,531,cs),
(251,531,ls),
(249,531,o),
(247,530,o),
(243,527,cs),
(216,508,o),
(144,471,o),
(48,456,cs),
(38,454,o),
(34,451,o),
(34,443,cs),
(34,409,ls),
(34,402,o),
(36,397,o),
(45,396,cs),
(101,390,o),
(105,334,o),
(105,281,cs),
(105,0,ls),
(105,-82,o),
(112,-158,o),
(42,-158,cs),
(35,-158,o),
(29,-157,o),
(23,-156,cs),
(18,-154,o),
(12,-157,o),
(11,-162,cs),
(0,-200,ls),
(-2,-206,o),
(2,-212,o),
(8,-213,cs),
(16,-214,o),
(25,-214,o),
(34,-214,cs),
(210,-214,o),
(245,-114,o),
(245,0,cs)
);
}
);
width = 681;
}
);
metricRight = n;
unicode = 626;
},
{
glyphname = eng;
kernLeft = m;
kernRight = ij;
lastChange = "2023-03-30 09:40:37 +0000";
layers = (
{
layerId = "6AD408C6-91F3-4F0B-A103-73D10F5280D9";
shapes = (
{
closed = 1;
nodes = (
(579,326,ls),
(579,418,o),
(554,513,o),
(409,513,cs),
(318,513,o),
(264,443,o),
(236,398,c),
(254,525,o),
(254,526,o),
(254,529,cs),
(254,530,o),
(254,531,o),
(252,531,cs),
(251,531,ls),
(249,531,o),
(247,530,o),
(243,527,cs),
(216,508,o),
(144,471,o),
(48,456,cs),
(38,454,o),
(34,451,o),
(34,443,cs),
(34,409,ls),
(34,402,o),
(36,397,o),
(45,396,cs),
(101,390,o),
(105,334,o),
(105,281,cs),
(105,155,ls),
(105,101,o),
(81,60,o),
(32,60,cs),
(30,60,ls),
(20,60,o),
(15,55,o),
(15,45,cs),
(15,15,ls),
(15,5,o),
(20,0,o),
(30,0,cs),
(311,0,ls),
(321,0,o),
(326,5,o),
(326,15,cs),
(326,45,ls),
(326,55,o),
(321,60,o),
(311,60,cs),
(309,60,ls),
(270,60,o),
(245,101,o),
(245,155,cs),
(245,339,l),
(262,382,o),
(317,425,o),
(367,425,cs),
(443,425,o),
(439,369,o),
(439,306,cs),
(439,-5,ls),
(439,-87,o),
(437,-158,o),
(376,-158,cs),
(321,-158,o),
(307,-105,o),
(307,-56,cs),
(307,-46,o),
(301,-42,o),
(296,-42,cs),
(293,-42,o),
(291,-43,o),
(289,-44,cs),
(218,-95,ls),
(210,-101,o),
(207,-109,o),
(207,-116,cs),
(207,-135,o),
(246,-214,o),
(369,-214,cs),
(544,-214,o),
(579,-62,o),
(579,62,cs)
);
}
);
width = 614;
}
);
note = eng;
unicode = 331;
},
{
glyphname = o;
kernLeft = a;
kernRight = b;
lastChange = "2023-03-30 09:40:38 +0000";
layers = (
{
anchors = (
{
name = bottom;
pos = (288,0);
},
{
name = top;
pos = (288,500);
}
);
layerId = "6AD408C6-91F3-4F0B-A103-73D10F5280D9";
shapes = (
{
closed = 1;
nodes = (
(143,513,o),
(30,402,o),
(30,256,cs),
(30,114,o),
(142,-13,o),
(293,-13,cs),
(426,-13,o),
(544,97,o),
(544,245,cs),
(544,380,o),
(434,513,o),
(281,513,cs)
);
},
{
closed = 1;
nodes = (
(225,68,o),
(149,227,o),
(149,318,cs),
(149,389,o),
(195,432,o),
(250,432,cs),
(348,432,o),
(424,274,o),
(424,182,cs),
(424,94,o),
(361,68,o),
(324,68,cs)
);
}
);
width = 574;
}
);
note = o;
unicode = 111;
},
{
glyphname = oslash;
kernLeft = a;
kernRight = b;
lastChange = "2023-03-30 09:40:37 +0000";
layers = (
{
hints = (
{
horizontal = 1;
place = (-199.88, 21);
target = up;
type = BottomGhost;
},
{
horizontal = 1;
place = (-6.28, 21);
target = up;
type = BottomGhost;
},
{
horizontal = 1;
place = (-12.06, 21);
target = up;
type = BottomGhost;
}
);
layerId = "6AD408C6-91F3-4F0B-A103-73D10F5280D9";
shapes = (
{
closed = 1;
nodes = (
(255,38,l),
(373,366,l),
(407,461,l),
(493,701,ls),
(497,712,o),
(492,719,o),
(481,719,cs),
(400,719,ls),
(391,719,o),
(386,715,o),
(383,706,cs),
(63,-183,ls),
(59,-194,o),
(64,-200,o),
(75,-200,cs),
(156,-200,ls),
(165,-200,o),
(170,-197,o),
(174,-188,cs)
);
},
{
ref = o;
}
);
width = 574;
}
);
note = oslash;
unicode = 248;
},
{
glyphname = oe;
kernLeft = a;
kernRight = e;
lastChange = "2023-03-30 09:40:38 +0000";
layers = (
{
layerId = "6AD408C6-91F3-4F0B-A103-73D10F5280D9";
shapes = (
{
closed = 1;
nodes = (
(143,512,o),
(30,402,o),
(30,256,cs),
(30,114,o),
(142,-12,o),
(293,-12,cs),
(357,-12,o),
(419,14,o),
(465,57,c),
(510,14,o),
(574,-12,o),
(651,-12,cs),
(753,-12,o),
(814,36,o),
(852,105,cs),
(855,110,o),
(858,117,o),
(858,122,cs),
(858,125,o),
(857,128,o),
(854,130,cs),
(822,149,o),
(820,150,o),
(814,150,cs),
(811,150,o),
(808,148,o),
(806,145,cs),
(771,94,o),
(721,71,o),
(678,71,cs),
(601,71,o),
(551,123,o),
(528,179,c),
(818,306,ls),
(825,309,o),
(827,313,o),
(827,318,cs),
(827,394,o),
(753,511,o),
(621,511,cs),
(560,511,o),
(497,491,o),
(452,447,c),
(407,486,o),
(348,512,o),
(281,512,cs)
);
},
{
closed = 1;
nodes = (
(149,389,o),
(195,432,o),
(250,432,cs),
(348,432,o),
(424,274,o),
(424,182,cs),
(424,94,o),
(361,68,o),
(324,68,cs),
(225,68,o),
(149,227,o),
(149,318,cs)
);
},
{
closed = 1;
nodes = (
(507,383,o),
(541,432,o),
(596,432,cs),
(642,432,o),
(677,386,o),
(677,322,c),
(516,241,l),
(508,265,o),
(507,298,o),
(507,318,cs)
);
}
);
width = 868;
}
);
metricLeft = o;
metricRight = e;
note = oe;
unicode = 339;
},
{
glyphname = p;
kernLeft = p;
kernRight = b;
lastChange = "2023-03-30 09:40:37 +0000";
layers = (
{
layerId = "6AD408C6-91F3-4F0B-A103-73D10F5280D9";
shapes = (
{
closed = 1;
nodes = (
(238,508,o),
(238,509,o),
(238,511,cs),
(238,514,o),
(237,514,o),
(236,514,cs),
(235,514,ls),
(234,514,o),
(230,514,o),
(226,512,cs),
(180,489,o),
(141,474,o),
(42,474,cs),
(32,474,o),
(28,469,o),
(28,461,cs),
(28,427,ls),
(28,420,o),
(29,415,o),
(39,414,cs),
(95,408,o),
(98,352,o),
(98,299,cs),
(98,-45,ls),
(98,-99,o),
(75,-140,o),
(26,-140,cs),
(15,-140,o),
(10,-145,o),
(10,-155,cs),
(10,-185,ls),
(10,-195,o),
(15,-200,o),
(25,-200,cs),
(311,-200,ls),
(321,-200,o),
(326,-195,o),
(326,-185,cs),
(326,-155,ls),
(326,-145,o),
(321,-140,o),
(311,-140,cs),
(262,-140,o),
(238,-99,o),
(238,-45,cs),
(238,35,l),
(273,4,o),
(317,-13,o),
(368,-13,cs),
(489,-13,o),
(601,65,o),
(601,250,cs),
(601,444,o),
(470,513,o),
(380,513,cs),
(277,513,o),
(238,449,o),
(227,422,c)
);
},
{
closed = 1;
nodes = (
(238,360,l),
(247,388,o),
(280,426,o),
(334,426,cs),
(416,426,o),
(473,346,o),
(473,218,cs),
(473,135,o),
(446,53,o),
(350,53,cs),
(283,53,o),
(245,115,o),
(238,178,c)
);
}
);
width = 631;
}
);
note = p;
unicode = 112;
},
{
glyphname = thorn;
kernLeft = thorn;
kernRight = b;
lastChange = "2023-03-30 09:40:37 +0000";
layers = (
{
hints = (
{
horizontal = 1;
place = (754.7, -20);
target = down;
type = TopGhost;
}
);
layerId = "6AD408C6-91F3-4F0B-A103-73D10F5280D9";
shapes = (
{
closed = 1;
nodes = (
(238,520,l),
(238,753,ls),
(238,755,o),
(237,755,o),
(236,755,cs),
(234,755,ls),
(231,755,o),
(228,754,o),
(226,753,cs),
(181,733,o),
(141,714,o),
(42,714,cs),
(32,714,o),
(28,710,o),
(28,701,cs),
(28,667,ls),
(28,660,o),
(29,655,o),
(39,654,cs),
(95,648,o),
(98,593,o),
(98,539,cs),
(98,-45,ls),
(98,-99,o),
(75,-140,o),
(26,-140,cs),
(15,-140,o),
(10,-145,o),
(10,-155,cs),
(10,-185,ls),
(10,-195,o),
(15,-200,o),
(25,-200,cs),
(311,-200,ls),
(321,-200,o),
(326,-195,o),
(326,-185,cs),
(326,-155,ls),
(326,-145,o),
(321,-140,o),
(311,-140,cs),
(262,-140,o),
(238,-99,o),
(238,-45,cs),
(238,35,l),
(273,4,o),
(317,-12,o),
(368,-12,cs),
(489,-12,o),
(601,65,o),
(601,250,cs),
(601,444,o),
(470,514,o),
(380,514,cs),
(277,514,o),
(238,449,o),
(227,422,c)
);
},
{
closed = 1;
nodes = (
(238,360,l),
(247,388,o),
(280,426,o),
(334,426,cs),
(416,426,o),
(473,346,o),
(473,218,cs),
(473,135,o),
(446,53,o),
(350,53,cs),
(283,53,o),
(245,115,o),
(238,178,c)
);
}
);
width = 631;
}
);
note = thorn;
unicode = 254;
},
{
glyphname = q;
kernLeft = a;
kernRight = q;
lastChange = "2023-03-30 09:40:38 +0000";
layers = (
{
layerId = "6AD408C6-91F3-4F0B-A103-73D10F5280D9";
shapes = (
{
closed = 1;
nodes = (
(143,513,o),
(30,436,o),
(30,251,cs),
(30,57,o),
(161,-13,o),
(252,-13,cs),
(333,-13,o),
(374,28,o),
(393,58,c),
(393,-45,ls),
(393,-99,o),
(369,-140,o),
(320,-140,cs),
(318,-140,ls),
(309,-140,o),
(303,-145,o),
(303,-155,cs),
(303,-185,ls),
(303,-195,o),
(309,-200,o),
(318,-200,cs),
(605,-200,ls),
(615,-200,o),
(620,-195,o),
(620,-185,cs),
(620,-155,ls),
(620,-145,o),
(615,-140,o),
(605,-140,cs),
(556,-140,o),
(533,-99,o),
(533,-45,cs),
(533,513,ls),
(533,514,o),
(533,515,o),
(532,515,cs),
(531,515,ls),
(530,515,o),
(529,515,o),
(525,512,cs),
(503,495,o),
(481,478,o),
(425,454,c),
(383,491,o),
(328,513,o),
(264,513,cs)
);
},
{
closed = 1;
nodes = (
(380,446,o),
(393,328,o),
(393,270,cs),
(393,141,l),
(391,135,o),
(371,75,o),
(297,75,cs),
(215,75,o),
(159,155,o),
(159,283,cs),
(159,366,o),
(185,446,o),
(282,446,cs)
);
}
);
width = 625;
}
);
note = q;
unicode = 113;
},
{
glyphname = r;
kernLeft = m;
kernRight = r;
lastChange = "2023-03-30 09:40:38 +0000";
layers = (
{
anchors = (
{
name = bottom;
pos = (175,0);
},
{
name = top;
pos = (273,500);
}
);
layerId = "6AD408C6-91F3-4F0B-A103-73D10F5280D9";
shapes = (
{
closed = 1;
nodes = (
(240,440,o),
(255,527,o),
(255,529,cs),
(255,531,o),
(254,531,o),
(253,531,cs),
(251,531,ls),
(250,531,o),
(249,531,o),
(246,529,cs),
(220,510,o),
(144,471,o),
(49,456,cs),
(39,454,o),
(34,451,o),
(34,443,cs),
(34,409,ls),
(34,402,o),
(36,397,o),
(46,396,cs),
(101,390,o),
(105,334,o),
(105,281,cs),
(105,155,ls),
(105,101,o),
(81,60,o),
(32,60,cs),
(30,60,ls),
(20,60,o),
(15,55,o),
(15,45,cs),
(15,15,ls),
(15,5,o),
(20,0,o),
(30,0,cs),
(321,0,ls),
(331,0,o),
(336,5,o),
(336,15,cs),
(336,45,ls),
(336,55,o),
(331,60,o),
(321,60,cs),
(319,60,ls),
(270,60,o),
(246,101,o),
(246,155,cs),
(246,339,l),
(260,376,o),
(300,426,o),
(346,426,cs),
(373,426,o),
(393,410,o),
(393,374,cs),
(393,360,o),
(392,343,o),
(384,324,cs),
(383,321,o),
(382,318,o),
(382,315,cs),
(382,310,o),
(385,306,o),
(391,306,cs),
(394,306,o),
(397,307,o),
(400,308,cs),
(494,346,ls),
(518,356,o),
(520,380,o),
(520,410,cs),
(520,478,o),
(469,513,o),
(407,513,cs),
(336,513,o),
(267,472,o),
(231,395,c)
);
}
);
width = 530;
}
);
note = r;
unicode = 114;
},
{
glyphname = s;
kernLeft = s;
kernRight = s;
lastChange = "2023-03-30 09:40:38 +0000";
layers = (
{
anchors = (
{
name = bottom;
pos = (276,0);
},
{
name = top;
pos = (276,500);
}
);
layerId = "6AD408C6-91F3-4F0B-A103-73D10F5280D9";
shapes = (
{
closed = 1;
nodes = (
(474,357,ls),
(480,360,o),
(482,363,o),
(482,368,cs),
(482,370,o),
(481,374,o),
(479,378,cs),
(429,505,ls),
(426,513,o),
(421,516,o),
(412,516,cs),
(386,516,ls),
(378,516,o),
(373,513,o),
(373,506,cs),
(373,503,o),
(373,500,o),
(375,494,cs),
(377,488,o),
(378,485,o),
(378,482,cs),
(378,480,o),
(377,478,o),
(375,478,cs),
(373,478,o),
(371,479,o),
(369,480,cs),
(350,491,o),
(298,513,o),
(236,513,cs),
(131,513,o),
(65,455,o),
(65,375,cs),
(65,316,o),
(86,245,o),
(256,202,cs),
(325,185,o),
(407,164,o),
(407,112,cs),
(407,74,o),
(373,55,o),
(311,55,cs),
(229,55,o),
(149,92,o),
(84,190,cs),
(81,195,o),
(77,199,o),
(73,199,cs),
(70,199,o),
(68,198,o),
(64,196,cs),
(33,178,ls),
(28,175,o),
(25,171,o),
(25,166,cs),
(25,163,o),
(26,161,o),
(28,157,cs),
(114,-4,ls),
(118,-11,o),
(123,-14,o),
(131,-14,cs),
(167,-14,ls),
(175,-14,o),
(179,-12,o),
(179,-6,cs),
(179,-4,o),
(178,-1,o),
(177,2,cs),
(176,5,o),
(175,8,o),
(175,10,cs),
(175,15,o),
(178,17,o),
(182,17,cs),
(184,17,o),
(187,16,o),
(191,14,cs),
(225,-2,o),
(266,-13,o),
(307,-13,cs),
(437,-13,o),
(517,57,o),
(517,151,cs),
(517,267,o),
(395,301,o),
(292,325,cs),
(237,338,o),
(180,357,o),
(180,401,cs),
(180,439,o),
(215,452,o),
(250,452,cs),
(298,452,o),
(369,425,o),
(429,349,cs),
(433,344,o),
(437,342,o),
(442,342,cs),
(445,342,o),
(448,343,o),
(452,345,cs)
);
}
);
width = 542;
},
{
anchors = (
{
name = bottom;
pos = (276,0);
},
{
name = top;
pos = (276,500);
}
);
associatedMasterId = "6AD408C6-91F3-4F0B-A103-73D10F5280D9";
background = {
shapes = (
{
closed = 1;
nodes = (
(474,357,ls),
(480,360,o),
(482,363,o),
(482,368,cs),
(482,370,o),
(481,374,o),
(479,378,cs),
(429,505,ls),
(426,513,o),
(421,516,o),
(412,516,cs),
(386,516,ls),
(378,516,o),
(373,513,o),
(373,506,cs),
(373,504,o),
(374,502,o),
(374,499,cs),
(378,488,o),
(379,478,o),
(373,478,cs),
(372,478,o),
(370,479,o),
(369,480,cs),
(351,490,o),
(298,512,o),
(236,512,cs),
(131,512,o),
(65,455,o),
(65,375,cs),
(65,310,o),
(92,251,o),
(256,202,cs),
(323,182,o),
(407,164,o),
(407,112,cs),
(407,74,o),
(373,55,o),
(311,55,cs),
(229,55,o),
(149,92,o),
(84,190,c),
(81,195,o),
(77,198,o),
(73,198,cs),
(70,198,o),
(67,197,o),
(64,196,cs),
(33,178,ls),
(28,175,o),
(25,171,o),
(25,166,cs),
(25,163,o),
(26,160,o),
(28,157,cs),
(114,-4,ls),
(118,-11,o),
(123,-14,o),
(131,-14,cs),
(167,-14,l),
(175,-15,o),
(179,-12,o),
(179,-6,cs),
(179,-4,o),
(178,-1,o),
(177,2,cs),
(174,11,o),
(176,17,o),
(182,17,cs),
(184,17,o),
(187,16,o),
(191,14,cs),
(225,-2,o),
(266,-11,o),
(307,-11,cs),
(437,-11,o),
(517,57,o),
(517,151,cs),
(517,272,o),
(384,302,o),
(292,325,cs),
(237,339,o),
(180,357,o),
(180,401,cs),
(180,439,o),
(215,452,o),
(250,452,cs),
(298,452,o),
(369,425,o),
(429,349,cs),
(433,344,o),
(437,342,o),
(442,342,cs),
(444,342,o),
(447,342,o),
(450,344,cs)
);
}
);
};
hints = (
{
horizontal = 1;
place = (-11.5, 66.86);
place = (-11.5, 66.86);
type = Stem;
},
{
horizontal = 1;
place = (451.66, 60.55);
place = (451.66, 60.55);
type = Stem;
},
{
place = (64.66, 115.52);
place = (64.66, 115.52);
type = Stem;
},
{
place = (407.12, 110.32);
place = (407.12, 110.32);
type = Stem;
}
);
layerId = "E5F2A7A5-A45C-4DEE-8FE7-62500045176C";
name = "29 mars 23 à 21:29";
shapes = (
{
closed = 1;
nodes = (
(474,357,ls),
(480,360,o),
(482,363,o),
(482,368,cs),
(482,370,o),
(481,374,o),
(479,378,cs),
(429,505,ls),
(426,513,o),
(421,516,o),
(412,516,cs),
(386,516,ls),
(378,516,o),
(373,513,o),
(373,506,cs),
(373,498,o),
(383,478,o),
(375,478,cs),
(373,478,o),
(371,479,o),
(369,480,cs),
(350,491,o),
(298,512,o),
(236,512,cs),
(131,512,o),
(65,455,o),
(65,375,cs),
(65,321,o),
(90,284,o),
(127,258,cs),
(226,188,o),
(407,191,o),
(407,112,cs),
(407,74,o),
(373,55,o),
(311,55,cs),
(229,55,o),
(149,92,o),
(84,190,cs),
(81,195,o),
(77,199,o),
(73,199,cs),
(70,199,o),
(68,198,o),
(64,196,cs),
(33,178,ls),
(28,175,o),
(25,171,o),
(25,166,cs),
(25,163,o),
(26,161,o),
(28,157,cs),
(114,-4,ls),
(118,-11,o),
(123,-14,o),
(131,-14,cs),
(167,-14,ls),
(175,-14,o),
(179,-12,o),
(179,-6,cs),
(179,-4,o),
(178,-1,o),
(177,2,cs),
(174,11,o),
(176,17,o),
(182,17,cs),
(184,17,o),
(187,16,o),
(191,14,cs),
(225,-2,o),
(266,-11,o),
(307,-11,cs),
(437,-11,o),
(517,57,o),
(517,151,cs),
(517,350,o),
(180,291,o),
(180,401,cs),
(180,439,o),
(215,452,o),
(250,452,cs),
(298,452,o),
(369,425,o),
(429,349,cs),
(433,344,o),
(437,342,o),
(442,342,cs),
(445,342,o),
(448,343,o),
(452,345,cs)
);
}
);
width = 542;
}
);
note = s;
unicode = 115;
},
{
glyphname = germandbls;
kernLeft = h;
kernRight = b;
lastChange = "2023-03-30 09:40:37 +0000";
layers = (
{
hints = (
{
horizontal = 1;
place = (500, -20);
target = down;
type = TopGhost;
}
);
layerId = "6AD408C6-91F3-4F0B-A103-73D10F5280D9";
shapes = (
{
closed = 1;
nodes = (
(440,466,o),
(589,461,o),
(589,600,cs),
(589,717,o),
(480,762,o),
(354,762,cs),
(124,762,o),
(104,596,o),
(104,515,cs),
(104,155,ls),
(104,101,o),
(87,60,o),
(33,60,cs),
(30,60,ls),
(21,60,o),
(15,55,o),
(15,45,cs),
(15,15,ls),
(15,5,o),
(21,0,o),
(30,0,cs),
(239,0,ls),
(248,0,o),
(254,5,o),
(254,15,cs),
(254,563,ls),
(254,643,o),
(283,686,o),
(354,686,cs),
(404,686,o),
(451,658,o),
(451,600,cs),
(451,491,o),
(328,524,o),
(328,430,cs),
(328,318,o),
(526,367,o),
(526,197,cs),
(526,135,o),
(496,87,o),
(438,87,cs),
(400,87,o),
(359,103,o),
(323,129,cs),
(320,131,o),
(317,132,o),
(314,132,cs),
(308,132,o),
(303,128,o),
(303,120,cs),
(303,56,ls),
(303,48,o),
(306,45,o),
(312,41,cs),
(354,13,o),
(406,-13,o),
(465,-13,cs),
(587,-13,o),
(672,72,o),
(672,197,cs),
(672,399,o),
(440,393,o),
(440,430,cs)
);
}
);
width = 702;
}
);
note = germandbls;
unicode = 223;
},
{
glyphname = t;
kernLeft = t;
kernRight = t;
lastChange = "2023-03-30 09:40:37 +0000";
layers = (
{
anchors = (
{
name = bottom;
pos = (232,0);
}
);
hints = (
{
horizontal = 1;
place = (-12.69, 21);
target = up;
type = BottomGhost;
}
);
layerId = "6AD408C6-91F3-4F0B-A103-73D10F5280D9";
shapes = (
{
closed = 1;
nodes = (
(381,98,ls),
(377,105,o),
(374,106,o),
(370,106,cs),
(367,106,o),
(364,105,o),
(359,102,cs),
(338,89,o),
(310,73,o),
(288,73,cs),
(264,73,o),
(246,89,o),
(246,141,cs),
(246,427,l),
(380,427,ls),
(389,427,o),
(395,432,o),
(395,442,cs),
(395,485,ls),
(395,495,o),
(389,500,o),
(380,500,cs),
(246,500,l),
(246,667,ls),
(246,669,o),
(246,670,o),
(244,670,cs),
(242,670,ls),
(240,670,o),
(239,670,o),
(237,668,cs),
(199,630,o),
(144,601,o),
(115,585,cs),
(108,581,o),
(106,575,o),
(106,567,cs),
(106,500,l),
(33,500,ls),
(23,500,o),
(18,495,o),
(18,485,cs),
(18,455,ls),
(18,445,o),
(23,440,o),
(33,440,cs),
(105,440,o),
(106,380,o),
(106,326,cs),
(106,141,ls),
(106,23,o),
(160,-13,o),
(221,-13,cs),
(271,-13,o),
(326,10,o),
(362,33,cs),
(392,52,ls),
(397,55,o),
(400,59,o),
(400,63,cs),
(400,66,o),
(399,69,o),
(397,72,cs)
);
}
);
width = 410;
}
);
note = t;
unicode = 116;
},
{
glyphname = tbar;
kernLeft = t;
kernRight = t;
lastChange = "2023-03-30 09:40:37 +0000";
layers = (
{
hints = (
{
horizontal = 1;
place = (-12.69, 21);
target = up;
type = BottomGhost;
}
);
layerId = "6AD408C6-91F3-4F0B-A103-73D10F5280D9";
shapes = (
{
closed = 1;
nodes = (
(334,231,ls),
(344,231,o),
(349,237,o),
(349,246,cs),
(349,306,ls),
(349,316,o),
(344,321,o),
(334,321,cs),
(67,321,ls),
(57,321,o),
(52,316,o),
(52,306,cs),
(52,246,ls),
(52,237,o),
(57,231,o),
(67,231,cs)
);
},
{
ref = t;
}
);
width = 410;
}
);
note = tbar;
unicode = 359;
},
{
glyphname = u;
kernLeft = u;
kernRight = u;
lastChange = "2023-03-30 09:40:37 +0000";
layers = (
{
anchors = (
{
name = bottom;
pos = (364,0);
},
{
name = ogonek;
pos = (591,27);
},
{
name = top;
pos = (336,500);
}
);
layerId = "6AD408C6-91F3-4F0B-A103-73D10F5280D9";
shapes = (
{
closed = 1;
nodes = (
(578,485,ls),
(578,495,o),
(572,500,o),
(563,500,cs),
(362,500,ls),
(352,500,o),
(347,494,o),
(347,485,cs),
(347,455,ls),
(347,445,o),
(352,440,o),
(362,440,cs),
(364,440,ls),
(412,440,o),
(437,399,o),
(437,345,cs),
(437,160,l),
(420,118,o),
(365,75,o),
(315,75,cs),
(252,75,o),
(243,120,o),
(243,174,cs),
(243,485,ls),
(243,495,o),
(238,500,o),
(228,500,cs),
(25,500,ls),
(15,500,o),
(10,494,o),
(10,485,cs),
(10,455,ls),
(10,445,o),
(15,440,o),
(25,440,cs),
(29,440,ls),
(78,440,o),
(103,399,o),
(103,345,cs),
(103,180,ls),
(103,84,o),
(130,-13,o),
(273,-13,cs),
(365,-13,o),
(426,60,o),
(454,116,c),
(442,25,o),
(438,-6,o),
(438,-10,cs),
(438,-12,o),
(439,-13,o),
(440,-13,cs),
(442,-13,ls),
(445,-13,o),
(448,-12,o),
(450,-11,cs),
(495,9,o),
(536,27,o),
(634,27,cs),
(644,27,o),
(648,32,o),
(648,41,cs),
(648,74,ls),
(648,81,o),
(647,86,o),
(637,87,cs),
(582,93,o),
(578,149,o),
(578,202,cs)
);
}
);
width = 659;
}
);
note = u;
unicode = 117;
},
{
glyphname = v;
kernLeft = v;
kernRight = v;
lastChange = "2023-03-30 09:40:37 +0000";
layers = (
{
hints = (
{
horizontal = 1;
place = (0, 21);
target = up;
type = BottomGhost;
}
);
layerId = "6AD408C6-91F3-4F0B-A103-73D10F5280D9";
shapes = (
{
closed = 1;
nodes = (
(395,500,ls),
(386,500,o),
(380,495,o),
(380,485,cs),
(380,455,ls),
(380,446,o),
(386,440,o),
(395,440,cs),
(415,440,ls),
(431,440,o),
(437,432,o),
(437,419,cs),
(437,402,o),
(426,375,o),
(413,345,cs),
(329,150,l),
(237,345,ls),
(224,373,o),
(216,393,o),
(216,411,cs),
(216,429,o),
(225,440,o),
(250,440,cs),
(252,440,ls),
(262,440,o),
(267,446,o),
(267,455,cs),
(267,485,ls),
(267,495,o),
(262,500,o),
(252,500,cs),
(21,500,ls),
(11,500,o),
(6,495,o),
(6,485,cs),
(6,455,ls),
(6,446,o),
(11,440,o),
(21,440,cs),
(23,440,ls),
(49,440,o),
(58,427,o),
(81,377,cs),
(249,11,ls),
(252,4,o),
(256,0,o),
(265,0,cs),
(322,0,ls),
(330,0,o),
(334,4,o),
(337,11,cs),
(506,378,ls),
(529,428,o),
(543,440,o),
(564,440,cs),
(579,440,ls),
(588,440,o),
(594,446,o),
(594,455,cs),
(594,485,ls),
(594,495,o),
(588,500,o),
(579,500,cs)
);
}
);
width = 600;
}
);
note = v;
unicode = 118;
},
{
glyphname = w;
kernLeft = v;
kernRight = v;
lastChange = "2023-03-30 09:40:38 +0000";
layers = (
{
anchors = (
{
name = bottom;
pos = (460,0);
},
{
name = top;
pos = (497,500);
}
);
hints = (
{
horizontal = 1;
place = (0, 21);
target = up;
type = BottomGhost;
}
);
layerId = "6AD408C6-91F3-4F0B-A103-73D10F5280D9";
shapes = (
{
closed = 1;
nodes = (
(727,500,ls),
(717,500,o),
(712,495,o),
(712,485,cs),
(712,455,ls),
(712,446,o),
(717,440,o),
(727,440,cs),
(747,440,ls),
(760,440,o),
(768,434,o),
(768,419,cs),
(768,408,o),
(764,392,o),
(755,371,cs),
(669,158,l),
(588,345,ls),
(577,370,o),
(568,393,o),
(568,411,cs),
(568,429,o),
(577,440,o),
(602,440,cs),
(614,440,ls),
(624,440,o),
(629,446,o),
(629,455,cs),
(629,485,ls),
(629,495,o),
(623,500,o),
(614,500,cs),
(374,500,ls),
(365,500,o),
(360,495,o),
(360,485,cs),
(360,455,ls),
(360,446,o),
(365,440,o),
(373,440,cs),
(395,440,ls),
(409,440,o),
(416,434,o),
(416,419,cs),
(416,408,o),
(412,392,o),
(403,371,cs),
(317,158,l),
(237,345,ls),
(226,370,o),
(216,393,o),
(216,411,cs),
(216,429,o),
(225,440,o),
(250,440,cs),
(252,440,ls),
(262,440,o),
(267,446,o),
(267,455,cs),
(267,485,ls),
(267,495,o),
(262,500,o),
(252,500,cs),
(21,500,ls),
(11,500,o),
(6,495,o),
(6,485,cs),
(6,455,ls),
(6,446,o),
(11,440,o),
(21,440,cs),
(23,440,ls),
(49,440,o),
(60,427,o),
(81,377,cs),
(239,11,ls),
(242,4,o),
(246,0,o),
(255,0,cs),
(311,0,ls),
(319,0,o),
(324,3,o),
(327,11,cs),
(459,317,l),
(591,11,ls),
(594,4,o),
(598,0,o),
(607,0,cs),
(664,0,ls),
(672,0,o),
(676,3,o),
(679,11,cs),
(838,378,ls),
(860,429,o),
(875,440,o),
(896,440,cs),
(911,440,ls),
(920,440,o),
(926,446,o),
(926,455,cs),
(926,485,ls),
(926,495,o),
(920,500,o),
(911,500,cs)
);
}
);
width = 932;
}
);
note = w;
unicode = 119;
},
{
glyphname = x;
kernLeft = x;
kernRight = x;
lastChange = "2023-03-30 09:40:37 +0000";
layers = (
{
layerId = "6AD408C6-91F3-4F0B-A103-73D10F5280D9";
shapes = (
{
closed = 1;
nodes = (
(13,60,o),
(8,55,o),
(8,45,cs),
(8,15,ls),
(8,5,o),
(13,0,o),
(23,0,cs),
(206,0,ls),
(216,0,o),
(221,5,o),
(221,15,cs),
(221,45,ls),
(221,55,o),
(216,60,o),
(206,60,cs),
(187,60,ls),
(170,60,o),
(162,64,o),
(162,72,cs),
(162,82,o),
(174,99,o),
(192,123,cs),
(262,214,l),
(348,110,ls),
(358,97,o),
(363,88,o),
(363,81,cs),
(363,64,o),
(339,60,o),
(326,60,cs),
(324,60,ls),
(315,60,o),
(309,54,o),
(309,45,cs),
(309,15,ls),
(309,5,o),
(315,0,o),
(324,0,cs),
(580,0,ls),
(590,0,o),
(595,5,o),
(595,15,cs),
(595,45,ls),
(595,55,o),
(590,60,o),
(580,60,cs),
(578,60,ls),
(553,60,o),
(525,80,o),
(490,123,cs),
(373,265,l),
(460,378,ls),
(494,423,o),
(508,440,o),
(549,440,cs),
(563,440,ls),
(573,440,o),
(578,446,o),
(578,455,cs),
(578,485,ls),
(578,495,o),
(573,500,o),
(563,500,cs),
(380,500,ls),
(370,500,o),
(365,495,o),
(365,485,cs),
(365,455,ls),
(365,446,o),
(370,440,o),
(380,440,cs),
(390,440,ls),
(407,440,o),
(414,436,o),
(414,428,cs),
(414,418,o),
(403,401,o),
(384,377,cs),
(334,312,l),
(267,394,ls),
(255,408,o),
(249,418,o),
(249,426,cs),
(249,436,o),
(261,440,o),
(286,440,cs),
(288,440,ls),
(297,440,o),
(303,446,o),
(303,455,cs),
(303,485,ls),
(303,495,o),
(297,500,o),
(288,500,cs),
(37,500,ls),
(27,500,o),
(22,495,o),
(22,485,cs),
(22,455,ls),
(22,446,o),
(27,440,o),
(37,440,cs),
(39,440,ls),
(64,440,o),
(92,419,o),
(127,377,cs),
(224,260,l),
(116,122,ls),
(82,79,o),
(64,60,o),
(23,60,cs)
);
}
);
width = 603;
}
);
note = x;
unicode = 120;
},
{
glyphname = y;
kernLeft = y;
kernRight = y;
lastChange = "2023-03-30 09:40:37 +0000";
layers = (
{
anchors = (
{
name = top;
pos = (307,500);
}
);
layerId = "6AD408C6-91F3-4F0B-A103-73D10F5280D9";
shapes = (
{
closed = 1;
nodes = (
(364,500,ls),
(354,500,o),
(349,495,o),
(349,485,cs),
(349,455,ls),
(349,446,o),
(354,440,o),
(364,440,cs),
(382,440,ls),
(398,440,o),
(405,432,o),
(405,419,cs),
(405,402,o),
(394,376,o),
(380,348,cs),
(308,200,l),
(241,346,ls),
(229,372,o),
(218,397,o),
(218,414,cs),
(218,430,o),
(227,440,o),
(250,440,cs),
(252,440,ls),
(262,440,o),
(267,446,o),
(267,455,cs),
(267,485,ls),
(267,495,o),
(262,500,o),
(252,500,cs),
(21,500,ls),
(11,500,o),
(6,495,o),
(6,485,cs),
(6,455,ls),
(6,446,o),
(11,440,o),
(21,440,cs),
(23,440,ls),
(49,440,o),
(57,426,o),
(81,377,cs),
(228,73,l),
(116,-167,ls),
(112,-176,o),
(115,-183,o),
(124,-187,cs),
(175,-213,ls),
(184,-217,o),
(191,-214,o),
(195,-206,cs),
(485,378,ls),
(509,427,o),
(522,440,o),
(543,440,cs),
(557,440,ls),
(567,440,o),
(572,446,o),
(572,455,cs),
(572,485,ls),
(572,495,o),
(567,500,o),
(557,500,cs)
);
}
);
width = 578;
}
);
note = y;
unicode = 121;
},
{
glyphname = z;
kernLeft = z;
kernRight = z;
lastChange = "2023-03-30 09:40:37 +0000";
layers = (
{
anchors = (
{
name = bottom;
pos = (266,0);
},
{
name = top;
pos = (288,500);
}
);
hints = (
{
horizontal = 1;
place = (512.89, -20);
target = down;
type = TopGhost;
},
{
horizontal = 1;
place = (-13.17, 21);
target = up;
type = BottomGhost;
}
);
layerId = "6AD408C6-91F3-4F0B-A103-73D10F5280D9";
shapes = (
{
closed = 1;
nodes = (
(497,165,ls),
(494,167,o),
(491,168,o),
(487,168,cs),
(482,168,o),
(478,165,o),
(475,160,cs),
(472,155,ls),
(422,72,o),
(316,69,o),
(247,69,cs),
(170,69,l),
(522,482,ls),
(525,485,o),
(526,488,o),
(526,491,cs),
(526,496,o),
(521,500,o),
(513,500,cs),
(143,500,ls),
(136,500,o),
(130,500,o),
(125,505,cs),
(118,512,o),
(116,513,o),
(112,513,cs),
(107,513,o),
(103,509,o),
(100,504,cs),
(18,373,ls),
(16,369,o),
(15,367,o),
(15,364,cs),
(15,357,o),
(19,354,o),
(23,352,cs),
(57,332,ls),
(62,329,o),
(63,328,o),
(67,328,cs),
(72,328,o),
(75,333,o),
(78,338,cs),
(82,345,ls),
(116,404,o),
(164,431,o),
(232,431,cs),
(328,431,l),
(13,69,ls),
(11,66,o),
(10,63,o),
(10,58,cs),
(10,15,ls),
(10,5,o),
(15,0,o),
(25,0,cs),
(410,0,ls),
(417,0,o),
(423,0,o),
(428,-5,cs),
(437,-12,o),
(438,-13,o),
(442,-13,cs),
(447,-13,o),
(451,-10,o),
(454,-5,cs),
(532,127,ls),
(534,130,o),
(535,133,o),
(535,136,cs),
(535,140,o),
(532,145,o),
(526,148,cs)
);
}
);
width = 544;
}
);
note = z;
unicode = 122;
},
{
glyphname = f_f;
kernLeft = f;
kernRight = a;
lastChange = "2023-03-30 09:40:37 +0000";
layers = (
{
anchors = (
{
name = caret;
pos = (358,1);
}
);
layerId = "6AD408C6-91F3-4F0B-A103-73D10F5280D9";
shapes = (
{
ref = f;
},
{
closed = 1;
nodes = (
(488,500,l),
(374,500,ls),
(364,500,o),
(359,495,o),
(359,485,cs),
(359,442,ls),
(359,432,o),
(364,427,o),
(374,427,cs),
(456,427,o),
(487,410,o),
(487,326,cs),
(487,155,ls),
(487,101,o),
(463,60,o),
(414,60,cs),
(404,60,o),
(399,55,o),
(399,45,cs),
(399,15,ls),
(399,5,o),
(404,0,o),
(414,0,cs),
(696,0,ls),
(705,0,o),
(711,5,o),
(711,15,cs),
(711,45,ls),
(711,55,o),
(705,60,o),
(696,60,cs),
(647,60,o),
(622,101,o),
(622,155,cs),
(622,427,l),
(756,427,ls),
(765,427,o),
(771,432,o),
(771,442,cs),
(771,485,ls),
(771,495,o),
(765,500,o),
(756,500,cs),
(622,500,l),
(622,566,ls),
(622,642,o),
(629,693,o),
(654,723,cs),
(666,738,o),
(681,745,o),
(696,745,cs),
(720,745,o),
(743,725,o),
(743,688,cs),
(743,669,o),
(737,648,o),
(724,622,cs),
(722,618,o),
(721,614,o),
(721,611,cs),
(721,606,o),
(723,602,o),
(727,602,cs),
(732,602,o),
(800,617,o),
(836,625,cs),
(851,628,o),
(857,634,o),
(861,644,cs),
(868,661,o),
(871,678,o),
(871,694,cs),
(871,754,o),
(820,800,o),
(714,800,cs),
(539,800,o),
(488,627,o),
(488,508,cs)
);
}
);
width = 781;
}
);
metricLeft = f;
metricRight = f;
unicode = 64256;
},
{
glyphname = f_f_i;
kernLeft = f;
kernRight = a;
lastChange = "2023-03-30 09:40:37 +0000";
layers = (
{
anchors = (
{
name = caret;
pos = (358,1);
}
);
layerId = "6AD408C6-91F3-4F0B-A103-73D10F5280D9";
shapes = (
{
ref = f;
},
{
closed = 1;
nodes = (
(1061,60,ls),
(1012,60,o),
(987,101,o),
(987,155,cs),
(987,529,ls),
(987,530,o),
(986,531,o),
(985,531,cs),
(983,531,ls),
(981,531,o),
(977,530,o),
(974,529,cs),
(946,521,o),
(861,500,o),
(775,500,cs),
(630,500,l),
(630,566,ls),
(630,665,o),
(666,745,o),
(758,745,cs),
(818,745,o),
(859,712,o),
(859,650,cs),
(859,633,o),
(854,615,o),
(842,592,cs),
(840,588,o),
(839,584,o),
(839,581,cs),
(839,575,o),
(843,571,o),
(849,572,cs),
(954,595,ls),
(969,598,o),
(975,604,o),
(979,614,cs),
(985,629,o),
(988,643,o),
(988,656,cs),
(988,740,o),
(913,800,o),
(773,800,cs),
(567,800,o),
(491,627,o),
(491,508,cs),
(491,500,l),
(377,500,ls),
(367,500,o),
(362,495,o),
(362,485,cs),
(362,442,ls),
(362,432,o),
(367,427,o),
(377,427,cs),
(459,427,o),
(490,410,o),
(490,326,cs),
(490,155,ls),
(490,101,o),
(466,60,o),
(417,60,cs),
(408,60,o),
(402,55,o),
(402,45,cs),
(402,15,ls),
(402,5,o),
(408,0,o),
(417,0,cs),
(704,0,ls),
(714,0,o),
(719,5,o),
(719,15,cs),
(719,45,ls),
(719,55,o),
(714,60,o),
(704,60,cs),
(655,60,o),
(631,101,o),
(631,155,cs),
(631,427,l),
(775,427,ls),
(844,427,o),
(851,376,o),
(851,331,cs),
(851,155,ls),
(851,101,o),
(827,60,o),
(778,60,cs),
(777,60,ls),
(767,60,o),
(762,55,o),
(762,46,cs),
(762,15,ls),
(762,5,o),
(769,0,o),
(778,0,cs),
(1061,0,ls),
(1071,0,o),
(1078,5,o),
(1078,15,cs),
(1078,45,ls),
(1078,55,o),
(1073,60,o),
(1063,60,cs)
);
}
);
width = 1093;
}
);
metricLeft = f;
metricRight = i;
unicode = 64259;
},
{
glyphname = f_f_l;
kernLeft = f;
kernRight = a;
lastChange = "2023-03-30 09:40:37 +0000";
layers = (
{
anchors = (
{
name = caret;
pos = (358,1);
}
);
layerId = "6AD408C6-91F3-4F0B-A103-73D10F5280D9";
shapes = (
{
ref = f;
},
{
closed = 1;
nodes = (
(1002,798,ls),
(1002,800,o),
(1001,800,o),
(1000,800,cs),
(998,800,ls),
(997,800,o),
(996,800,o),
(993,798,cs),
(972,782,o),
(933,755,o),
(866,728,c),
(850,771,o),
(800,800,o),
(715,800,cs),
(539,800,o),
(483,627,o),
(483,508,cs),
(483,500,l),
(369,500,ls),
(359,500,o),
(354,495,o),
(354,485,cs),
(354,442,ls),
(354,432,o),
(359,427,o),
(369,427,cs),
(451,427,o),
(482,410,o),
(482,326,cs),
(482,155,ls),
(482,101,o),
(458,60,o),
(409,60,cs),
(400,60,o),
(394,55,o),
(394,45,cs),
(394,15,ls),
(394,5,o),
(400,0,o),
(409,0,cs),
(696,0,ls),
(706,0,o),
(711,5,o),
(711,15,cs),
(711,45,ls),
(711,55,o),
(706,60,o),
(696,60,cs),
(647,60,o),
(623,101,o),
(623,155,cs),
(623,427,l),
(756,427,ls),
(766,427,o),
(771,432,o),
(771,442,cs),
(771,485,ls),
(771,495,o),
(766,500,o),
(756,500,cs),
(622,500,l),
(622,566,ls),
(622,622,o),
(630,745,o),
(696,745,cs),
(721,745,o),
(743,725,o),
(743,688,cs),
(743,669,o),
(738,647,o),
(724,622,cs),
(720,613,o),
(721,602,o),
(729,602,cs),
(746,602,o),
(800,617,o),
(836,625,cs),
(857,630,o),
(862,619,o),
(862,576,cs),
(862,155,ls),
(862,101,o),
(838,60,o),
(789,60,cs),
(779,60,o),
(774,55,o),
(774,45,cs),
(774,15,ls),
(774,5,o),
(779,0,o),
(789,0,cs),
(1076,0,ls),
(1085,0,o),
(1091,5,o),
(1091,15,cs),
(1091,45,ls),
(1091,55,o),
(1085,60,o),
(1076,60,cs),
(1027,60,o),
(1002,101,o),
(1002,155,cs)
);
}
);
width = 1106;
}
);
metricLeft = f;
metricRight = l;
unicode = 64260;
},
{
glyphname = f_i;
kernLeft = f;
kernRight = a;
lastChange = "2023-03-30 09:40:38 +0000";
layers = (
{
anchors = (
{
name = caret;
pos = (358,1);
}
);
layerId = "6AD408C6-91F3-4F0B-A103-73D10F5280D9";
shapes = (
{
closed = 1;
nodes = (
(679,60,ls),
(630,60,o),
(605,101,o),
(605,155,cs),
(605,529,ls),
(605,530,o),
(604,531,o),
(603,531,cs),
(601,531,ls),
(599,531,o),
(595,530,o),
(592,529,cs),
(564,521,o),
(479,500,o),
(393,500,cs),
(248,500,l),
(248,566,ls),
(248,665,o),
(284,745,o),
(376,745,cs),
(436,745,o),
(477,712,o),
(477,650,cs),
(477,633,o),
(472,615,o),
(460,592,cs),
(458,588,o),
(457,584,o),
(457,581,cs),
(457,575,o),
(461,571,o),
(467,572,cs),
(572,595,ls),
(587,598,o),
(593,604,o),
(597,614,cs),
(603,629,o),
(606,643,o),
(606,656,cs),
(606,740,o),
(531,800,o),
(391,800,cs),
(185,800,o),
(109,627,o),
(109,508,cs),
(109,500,l),
(35,500,ls),
(26,500,o),
(20,495,o),
(20,485,cs),
(20,455,ls),
(20,445,o),
(26,440,o),
(35,440,cs),
(108,440,o),
(108,380,o),
(108,326,cs),
(108,155,ls),
(108,101,o),
(84,60,o),
(35,60,cs),
(26,60,o),
(20,55,o),
(20,45,cs),
(20,15,ls),
(20,5,o),
(26,0,o),
(35,0,cs),
(322,0,ls),
(332,0,o),
(337,5,o),
(337,15,cs),
(337,45,ls),
(337,55,o),
(332,60,o),
(322,60,cs),
(273,60,o),
(249,101,o),
(249,155,cs),
(249,427,l),
(393,427,ls),
(462,427,o),
(469,376,o),
(469,331,cs),
(469,155,ls),
(469,101,o),
(445,60,o),
(396,60,cs),
(395,60,ls),
(385,60,o),
(380,55,o),
(380,46,cs),
(380,15,ls),
(380,5,o),
(387,0,o),
(396,0,cs),
(679,0,ls),
(689,0,o),
(696,5,o),
(696,15,cs),
(696,45,ls),
(696,55,o),
(691,60,o),
(681,60,cs)
);
}
);
width = 711;
}
);
metricLeft = f;
metricRight = i;
note = fi;
unicode = 64257;
},
{
glyphname = f_l;
kernLeft = f;
kernRight = a;
lastChange = "2023-03-30 09:40:37 +0000";
layers = (
{
anchors = (
{
name = caret;
pos = (358,1);
}
);
layerId = "6AD408C6-91F3-4F0B-A103-73D10F5280D9";
shapes = (
{
closed = 1;
nodes = (
(628,798,ls),
(628,800,o),
(627,800,o),
(626,800,cs),
(624,800,ls),
(623,800,o),
(622,800,o),
(619,798,cs),
(598,782,o),
(559,755,o),
(492,728,c),
(476,771,o),
(426,800,o),
(341,800,cs),
(165,800,o),
(109,627,o),
(109,508,cs),
(109,500,l),
(35,500,ls),
(26,500,o),
(20,495,o),
(20,485,cs),
(20,455,ls),
(20,445,o),
(26,440,o),
(35,440,cs),
(108,440,o),
(108,380,o),
(108,326,cs),
(108,155,ls),
(108,101,o),
(84,60,o),
(35,60,cs),
(26,60,o),
(20,55,o),
(20,45,cs),
(20,15,ls),
(20,5,o),
(26,0,o),
(35,0,cs),
(322,0,ls),
(332,0,o),
(337,5,o),
(337,15,cs),
(337,45,ls),
(337,55,o),
(332,60,o),
(322,60,cs),
(273,60,o),
(249,101,o),
(249,155,cs),
(249,427,l),
(382,427,ls),
(392,427,o),
(397,432,o),
(397,442,cs),
(397,485,ls),
(397,495,o),
(392,500,o),
(382,500,cs),
(248,500,l),
(248,566,ls),
(248,622,o),
(256,745,o),
(322,745,cs),
(347,745,o),
(369,725,o),
(369,688,cs),
(369,669,o),
(364,647,o),
(350,622,cs),
(346,613,o),
(347,602,o),
(355,602,cs),
(372,602,o),
(426,617,o),
(462,625,cs),
(483,630,o),
(488,619,o),
(488,576,cs),
(488,155,ls),
(488,101,o),
(464,60,o),
(415,60,cs),
(405,60,o),
(400,55,o),
(400,45,cs),
(400,15,ls),
(400,5,o),
(405,0,o),
(415,0,cs),
(702,0,ls),
(711,0,o),
(717,5,o),
(717,15,cs),
(717,45,ls),
(717,55,o),
(711,60,o),
(702,60,cs),
(653,60,o),
(628,101,o),
(628,155,cs)
);
}
);
width = 732;
}
);
metricLeft = f;
metricRight = l;
note = fl;
unicode = 64258;
},
{
glyphname = Delta;
kernLeft = Delta;
lastChange = "2023-03-30 09:40:37 +0000";
layers = (
{
layerId = "6AD408C6-91F3-4F0B-A103-73D10F5280D9";
shapes = (
{
closed = 1;
nodes = (
(12,17,ls),
(11,15,o),
(10,12,o),
(10,8,cs),
(10,3,o),
(16,0,o),
(23,0,cs),
(595,0,ls),
(603,0,o),
(608,4,o),
(608,10,cs),
(608,12,o),
(607,15,o),
(606,17,cs),
(319,699,ls),
(317,705,o),
(313,709,o),
(309,709,cs),
(305,709,o),
(301,705,o),
(299,699,cs)
);
},
{
closed = 1;
nodes = (
(463,99,l),
(155,99,l),
(309,464,l)
);
}
);
width = 618;
}
);
note = Delta;
unicode = 916;
},
{
glyphname = Omega;
lastChange = "2023-03-30 09:40:37 +0000";
layers = (
{
layerId = "6AD408C6-91F3-4F0B-A103-73D10F5280D9";
shapes = (
{
closed = 1;
nodes = (
(610,90,l),
(674,152,o),
(720,242,o),
(720,348,cs),
(720,562,o),
(551,707,o),
(374,707,cs),
(196,707,o),
(29,562,o),
(29,348,cs),
(29,242,o),
(75,152,o),
(139,90,c),
(35,90,ls),
(26,90,o),
(20,85,o),
(20,75,cs),
(20,16,ls),
(20,6,o),
(26,1,o),
(35,1,cs),
(313,1,ls),
(323,1,o),
(328,6,o),
(328,16,cs),
(328,75,ls),
(328,85,o),
(323,90,o),
(313,90,cs),
(257,90,o),
(184,218,o),
(184,348,cs),
(184,489,o),
(238,620,o),
(374,620,cs),
(510,620,o),
(565,489,o),
(565,348,cs),
(565,218,o),
(492,90,o),
(436,90,cs),
(427,90,o),
(421,85,o),
(421,75,cs),
(421,16,ls),
(421,6,o),
(427,1,o),
(436,1,cs),
(714,1,ls),
(724,1,o),
(729,6,o),
(729,16,cs),
(729,75,ls),
(729,85,o),
(724,90,o),
(714,90,cs)
);
}
);
width = 749;
}
);
note = Omega;
unicode = 937;
},
{
glyphname = mu;
lastChange = "2023-03-30 09:40:37 +0000";
layers = (
{
hints = (
{
horizontal = 1;
place = (-200, 21);
target = up;
type = BottomGhost;
}
);
layerId = "6AD408C6-91F3-4F0B-A103-73D10F5280D9";
shapes = (
{
closed = 1;
nodes = (
(588,485,ls),
(588,495,o),
(583,500,o),
(573,500,cs),
(372,500,ls),
(362,500,o),
(357,494,o),
(357,485,cs),
(357,455,ls),
(357,445,o),
(362,440,o),
(372,440,cs),
(374,440,ls),
(423,440,o),
(447,399,o),
(447,345,cs),
(447,160,l),
(430,118,o),
(375,75,o),
(326,75,cs),
(249,75,o),
(254,140,o),
(254,194,cs),
(254,485,ls),
(254,495,o),
(248,500,o),
(239,500,cs),
(35,500,ls),
(25,500,o),
(20,494,o),
(20,485,cs),
(20,455,ls),
(20,445,o),
(25,440,o),
(35,440,cs),
(40,440,ls),
(88,440,o),
(113,399,o),
(113,345,cs),
(113,-185,ls),
(113,-195,o),
(119,-200,o),
(128,-200,cs),
(239,-200,ls),
(249,-200,o),
(254,-195,o),
(254,-185,cs),
(254,-13,l),
(283,-13,ls),
(375,-13,o),
(436,60,o),
(464,116,c),
(448,-10,ls),
(448,-12,o),
(448,-13,o),
(450,-13,cs),
(452,-13,ls),
(455,-13,o),
(459,-12,o),
(460,-11,c),
(505,9,o),
(546,27,o),
(644,27,cs),
(654,27,o),
(659,32,o),
(659,41,cs),
(659,74,ls),
(659,81,o),
(657,86,o),
(647,87,cs),
(592,93,o),
(588,149,o),
(588,202,cs)
);
}
);
width = 679;
}
);
note = mu;
unicode = 956;
},
{
glyphname = pi;
lastChange = "2023-03-30 09:40:37 +0000";
layers = (
{
layerId = "6AD408C6-91F3-4F0B-A103-73D10F5280D9";
shapes = (
{
closed = 1;
nodes = (
(34,500,ls),
(24,500,o),
(19,495,o),
(19,485,cs),
(19,435,ls),
(19,425,o),
(24,420,o),
(34,420,cs),
(109,420,l),
(109,155,ls),
(109,101,o),
(86,60,o),
(37,60,cs),
(34,60,ls),
(24,60,o),
(19,55,o),
(19,45,cs),
(19,15,ls),
(19,5,o),
(24,0,o),
(34,0,cs),
(325,0,ls),
(335,0,o),
(340,5,o),
(340,15,cs),
(340,45,ls),
(340,55,o),
(335,60,o),
(325,60,cs),
(323,60,ls),
(274,60,o),
(250,101,o),
(250,155,cs),
(250,415,l),
(439,415,l),
(439,108,ls),
(439,54,o),
(462,0,o),
(540,0,cs),
(662,0,ls),
(672,0,o),
(677,5,o),
(677,15,cs),
(677,45,ls),
(677,55,o),
(672,60,o),
(662,60,cs),
(658,60,ls),
(609,60,o),
(584,101,o),
(584,155,cs),
(584,420,l),
(667,420,ls),
(677,420,o),
(682,425,o),
(682,435,cs),
(682,485,ls),
(682,495,o),
(677,500,o),
(667,500,cs)
);
}
);
width = 697;
}
);
note = pi;
unicode = 960;
},
{
glyphname = zero;
kernLeft = zero;
kernRight = zero;
lastChange = "2023-03-30 09:40:38 +0000";
layers = (
{
layerId = "6AD408C6-91F3-4F0B-A103-73D10F5280D9";
shapes = (
{
closed = 1;
nodes = (
(149,550,o),
(26,423,o),
(25,266,cs),
(25,109,o),
(149,-18,o),
(301,-18,cs),
(453,-18,o),
(577,109,o),
(577,266,cs),
(577,423,o),
(453,550,o),
(301,550,cs)
);
},
{
closed = 1;
nodes = (
(392,474,o),
(435,370,o),
(435,268,cs),
(435,167,o),
(395,52,o),
(303,52,cs),
(211,52,o),
(165,162,o),
(165,264,cs),
(165,365,o),
(208,474,o),
(300,474,cs)
);
}
);
width = 602;
}
);
note = zero;
unicode = 48;
},
{
glyphname = one;
kernLeft = one;
kernRight = one;
lastChange = "2023-03-30 09:40:37 +0000";
layers = (
{
layerId = "6AD408C6-91F3-4F0B-A103-73D10F5280D9";
shapes = (
{
closed = 1;
nodes = (
(269,388,ls),
(269,459,o),
(265,473,o),
(302,484,cs),
(312,487,ls),
(322,490,o),
(327,492,o),
(327,502,cs),
(327,545,ls),
(327,554,o),
(322,564,o),
(312,560,cs),
(209,523,o),
(141,513,o),
(25,513,cs),
(15,513,o),
(10,507,o),
(10,498,cs),
(10,468,ls),
(10,458,o),
(15,453,o),
(25,453,cs),
(106,453,o),
(129,412,o),
(129,358,cs),
(129,155,ls),
(129,102,o),
(113,60,o),
(62,60,cs),
(35,60,ls),
(25,60,o),
(20,55,o),
(20,45,cs),
(20,15,ls),
(20,5,o),
(25,0,o),
(35,0,cs),
(362,0,ls),
(372,0,o),
(377,5,o),
(377,15,cs),
(377,45,ls),
(377,55,o),
(372,60,o),
(362,60,cs),
(336,60,ls),
(286,60,o),
(269,102,o),
(269,155,cs)
);
}
);
width = 397;
},
{
associatedMasterId = "6AD408C6-91F3-4F0B-A103-73D10F5280D9";
hints = (
{
horizontal = 1;
place = (0, 60.12);
place = (0, 60.12);
type = Stem;
},
{
horizontal = 1;
place = (452.61, 60.12);
place = (452.61, 60.12);
type = Stem;
},
{
place = (129.21, 139);
place = (129.21, 139);
type = Stem;
}
);
layerId = "48B56475-915A-4B4C-8B72-B6ED37B6FD5A";
name = "27 mars 23 à 11:44";
shapes = (
{
closed = 1;
nodes = (
(269,358,ls),
(269,442,o),
(287,476,o),
(342,481,cs),
(362,483,ls),
(372,484,o),
(377,488,o),
(377,498,cs),
(377,528,ls),
(377,537,o),
(372,545,o),
(362,543,cs),
(247,523,o),
(151,513,o),
(35,513,cs),
(25,513,o),
(20,507,o),
(20,498,cs),
(20,468,ls),
(20,458,o),
(25,453,o),
(35,453,cs),
(116,453,o),
(129,412,o),
(129,358,cs),
(129,155,ls),
(129,102,o),
(113,60,o),
(62,60,cs),
(35,60,ls),
(25,60,o),
(20,55,o),
(20,45,cs),
(20,15,ls),
(20,5,o),
(25,0,o),
(35,0,cs),
(362,0,ls),
(372,0,o),
(377,5,o),
(377,15,cs),
(377,45,ls),
(377,55,o),
(372,60,o),
(362,60,cs),
(336,60,ls),
(286,60,o),
(269,102,o),
(269,155,cs)
);
}
);
width = 397;
}
);
note = one;
unicode = 49;
},
{
glyphname = two;
kernLeft = two;
kernRight = two;
lastChange = "2023-03-30 09:40:37 +0000";
layers = (
{
hints = (
{
horizontal = 1;
place = (-13.17, 21);
target = up;
type = BottomGhost;
}
);
layerId = "6AD408C6-91F3-4F0B-A103-73D10F5280D9";
shapes = (
{
closed = 1;
nodes = (
(492,157,ls),
(489,159,o),
(486,160,o),
(484,160,cs),
(479,160,o),
(475,157,o),
(472,151,cs),
(469,146,ls),
(433,85,o),
(313,85,o),
(244,85,cs),
(151,85,l),
(242,203,o),
(463,246,o),
(463,399,cs),
(463,498,o),
(389,546,o),
(253,546,cs),
(130,546,o),
(46,477,o),
(46,406,cs),
(46,394,o),
(49,382,o),
(54,370,cs),
(58,359,o),
(64,354,o),
(79,351,cs),
(184,327,ls),
(190,326,o),
(193,330,o),
(193,336,cs),
(193,357,o),
(169,374,o),
(169,420,cs),
(169,471,o),
(212,488,o),
(248,488,cs),
(292,488,o),
(319,458,o),
(319,400,cs),
(319,278,o),
(103,200,o),
(33,59,cs),
(31,55,o),
(30,51,o),
(30,43,cs),
(30,15,ls),
(30,5,o),
(35,0,o),
(45,0,cs),
(410,0,ls),
(417,0,o),
(423,0,o),
(428,-5,cs),
(436,-12,o),
(439,-13,o),
(442,-13,cs),
(447,-13,o),
(451,-10,o),
(454,-5,cs),
(529,118,ls),
(532,123,o),
(533,125,o),
(533,128,cs),
(533,133,o),
(529,136,o),
(523,139,cs)
);
}
);
width = 543;
}
);
note = two;
unicode = 50;
},
{
glyphname = three;
kernLeft = three;
kernRight = three;
lastChange = "2023-03-30 09:40:37 +0000";
layers = (
{
layerId = "6AD408C6-91F3-4F0B-A103-73D10F5280D9";
shapes = (
{
closed = 1;
nodes = (
(157,327,ls),
(164,325,o),
(167,330,o),
(167,336,cs),
(167,346,o),
(143,382,o),
(143,420,cs),
(143,471,o),
(185,488,o),
(222,488,cs),
(266,488,o),
(292,458,o),
(292,400,cs),
(292,328,o),
(229,264,o),
(116,228,cs),
(109,226,o),
(102,222,o),
(103,215,cs),
(109,179,ls),
(110,171,o),
(114,167,o),
(123,167,cs),
(137,167,o),
(163,176,o),
(208,176,cs),
(290,176,o),
(345,141,o),
(345,47,cs),
(345,-73,o),
(261,-125,o),
(152,-125,cs),
(123,-125,o),
(93,-122,o),
(63,-115,cs),
(53,-113,o),
(46,-119,o),
(47,-127,cs),
(53,-173,ls),
(54,-182,o),
(59,-186,o),
(69,-187,cs),
(100,-191,o),
(132,-193,o),
(162,-193,cs),
(350,-193,o),
(499,-115,o),
(499,44,cs),
(499,155,o),
(417,220,o),
(303,237,c),
(382,266,o),
(436,316,o),
(436,399,cs),
(436,498,o),
(362,546,o),
(227,546,cs),
(103,546,o),
(20,478,o),
(20,406,cs),
(20,394,o),
(22,382,o),
(27,370,cs),
(32,360,o),
(37,354,o),
(52,351,cs)
);
}
);
width = 529;
}
);
note = three;
unicode = 51;
},
{
glyphname = four;
kernLeft = four;
kernRight = four;
lastChange = "2023-03-30 09:40:37 +0000";
layers = (
{
hints = (
{
horizontal = 1;
place = (-200, 21);
target = up;
type = BottomGhost;
}
);
layerId = "6AD408C6-91F3-4F0B-A103-73D10F5280D9";
shapes = (
{
closed = 1;
nodes = (
(550,73,ls),
(550,83,o),
(545,88,o),
(535,88,cs),
(423,88,l),
(423,210,ls),
(423,219,o),
(419,226,o),
(411,224,cs),
(318,206,ls),
(309,204,o),
(305,199,o),
(305,190,cs),
(305,88,l),
(127,88,l),
(196,169,o),
(380,351,o),
(380,470,cs),
(380,481,o),
(379,492,o),
(375,502,cs),
(371,513,o),
(365,519,o),
(350,522,cs),
(206,552,ls),
(200,553,o),
(196,551,o),
(196,544,cs),
(196,540,o),
(197,536,o),
(199,531,cs),
(215,496,o),
(222,468,o),
(222,439,cs),
(222,318,o),
(101,229,o),
(15,97,cs),
(11,91,o),
(10,85,o),
(10,78,cs),
(10,16,ls),
(10,6,o),
(15,1,o),
(25,1,cs),
(305,1,l),
(305,-185,ls),
(305,-195,o),
(310,-200,o),
(320,-200,cs),
(408,-200,ls),
(418,-200,o),
(423,-195,o),
(423,-185,cs),
(423,1,l),
(535,1,ls),
(545,1,o),
(550,6,o),
(550,16,cs)
);
}
);
width = 575;
}
);
note = four;
unicode = 52;
},
{
glyphname = five;
kernLeft = five;
kernRight = five;
lastChange = "2023-03-30 09:40:37 +0000";
layers = (
{
layerId = "6AD408C6-91F3-4F0B-A103-73D10F5280D9";
shapes = (
{
closed = 1;
nodes = (
(193,460,l),
(406,460,ls),
(414,460,o),
(419,461,o),
(425,455,cs),
(433,447,o),
(436,447,o),
(439,447,cs),
(443,447,o),
(448,450,o),
(451,455,cs),
(514,561,ls),
(516,564,o),
(517,566,o),
(517,569,cs),
(517,574,o),
(514,578,o),
(509,581,cs),
(478,599,ls),
(475,601,o),
(472,602,o),
(469,602,cs),
(465,602,o),
(460,599,o),
(457,593,cs),
(454,588,ls),
(431,549,o),
(310,546,o),
(261,546,cs),
(114,546,ls),
(104,546,o),
(99,542,o),
(97,533,cs),
(43,245,ls),
(41,236,o),
(45,230,o),
(53,230,cs),
(62,230,o),
(111,241,o),
(144,241,cs),
(225,241,o),
(317,211,o),
(317,81,cs),
(317,-64,o),
(226,-121,o),
(112,-121,cs),
(84,-121,o),
(55,-118,o),
(25,-111,cs),
(16,-109,o),
(10,-115,o),
(10,-123,cs),
(10,-135,o),
(12,-146,o),
(15,-169,cs),
(16,-178,o),
(22,-182,o),
(31,-183,cs),
(62,-187,o),
(93,-189,o),
(124,-189,cs),
(317,-189,o),
(481,-107,o),
(481,78,cs),
(481,228,o),
(362,307,o),
(217,307,cs),
(198,307,o),
(179,306,o),
(159,303,c)
);
}
);
width = 537;
}
);
note = five;
unicode = 53;
},
{
glyphname = six;
kernLeft = six;
kernRight = six;
lastChange = "2023-03-30 09:40:38 +0000";
layers = (
{
layerId = "6AD408C6-91F3-4F0B-A103-73D10F5280D9";
shapes = (
{
closed = 1;
nodes = (
(172,289,o),
(172,310,o),
(172,329,cs),
(172,568,o),
(229,695,o),
(357,695,cs),
(433,695,o),
(473,637,o),
(483,556,cs),
(484,548,o),
(485,538,o),
(487,536,cs),
(489,534,o),
(492,535,o),
(495,538,cs),
(583,619,ls),
(586,622,o),
(588,627,o),
(588,632,cs),
(588,672,o),
(511,763,o),
(371,763,cs),
(145,763,o),
(30,572,o),
(30,322,cs),
(30,145,o),
(125,-14,o),
(302,-14,cs),
(456,-14,o),
(580,81,o),
(580,235,cs),
(580,369,o),
(483,490,o),
(315,490,cs),
(266,490,o),
(193,482,o),
(146,433,c),
(173,268,l),
(170,334,o),
(198,414,o),
(298,414,cs),
(407,414,o),
(442,276,o),
(442,197,cs),
(442,124,o),
(411,62,o),
(327,62,cs),
(222,62,o),
(176,192,o),
(173,268,cs)
);
}
);
width = 608;
},
{
associatedMasterId = "6AD408C6-91F3-4F0B-A103-73D10F5280D9";
hints = (
{
horizontal = 1;
place = (-14.3, 75.4);
place = (-14.3, 75.4);
type = Stem;
},
{
horizontal = 1;
place = (439.19, 75.3);
place = (439.19, 75.3);
type = Stem;
},
{
horizontal = 1;
place = (694.13, 67.83);
place = (694.13, 67.83);
type = Stem;
},
{
place = (30, 146.54);
place = (30, 146.54);
type = Stem;
},
{
place = (451.67, 142.57);
place = (451.67, 142.57);
type = Stem;
},
{
place = (489.6, 122.5);
place = (489.6, 122.5);
type = Stem;
}
);
layerId = "6B2FF801-F61C-4483-906F-380C1D0BA6DF";
name = "27 mars 23 à 11:39";
shapes = (
{
closed = 1;
nodes = (
(99,762,o),
(20,483,o),
(20,303,cs),
(20,126,o),
(120,-14,o),
(319,-14,cs),
(466,-14,o),
(584,94,o),
(584,237,cs),
(584,386,o),
(450,514,o),
(290,514,cs),
(253,514,o),
(223,509,o),
(188,496,c),
(217,601,o),
(278,694,o),
(400,694,cs),
(437,694,o),
(480,682,o),
(480,635,cs),
(480,617,o),
(473,593,o),
(458,564,cs),
(453,554,o),
(454,543,o),
(462,543,cs),
(473,543,o),
(524,556,o),
(570,567,cs),
(586,571,o),
(590,575,o),
(595,586,cs),
(600,598,o),
(602,610,o),
(602,622,cs),
(602,694,o),
(519,762,o),
(396,762,cs)
);
},
{
closed = 1;
nodes = (
(390,439,o),
(442,283,o),
(442,196,cs),
(442,119,o),
(404,61,o),
(329,61,cs),
(250,61,o),
(197,142,o),
(176,228,cs),
(148,328,o),
(172,439,o),
(278,439,cs)
);
}
);
width = 627;
}
);
note = six;
unicode = 54;
},
{
glyphname = seven;
kernLeft = seven;
kernRight = seven;
lastChange = "2023-03-30 09:40:37 +0000";
layers = (
{
layerId = "6AD408C6-91F3-4F0B-A103-73D10F5280D9";
shapes = (
{
closed = 1;
nodes = (
(131,546,ls),
(123,546,o),
(118,547,o),
(112,552,cs),
(104,560,o),
(101,560,o),
(98,560,cs),
(94,560,o),
(89,557,o),
(86,552,cs),
(13,444,ls),
(11,441,o),
(10,438,o),
(10,436,cs),
(10,431,o),
(13,427,o),
(18,424,cs),
(49,406,ls),
(52,404,o),
(55,403,o),
(58,403,cs),
(64,403,o),
(67,405,o),
(73,417,cs),
(96,456,o),
(217,460,o),
(266,460,cs),
(466,460,l),
(394,376,o),
(64,-7,o),
(64,-147,cs),
(64,-166,o),
(67,-182,o),
(92,-187,cs),
(256,-218,ls),
(263,-219,o),
(266,-215,o),
(266,-208,cs),
(266,-205,o),
(265,-203,o),
(263,-198,cs),
(252,-174,o),
(248,-149,o),
(248,-122,cs),
(248,57,o),
(455,312,o),
(547,454,cs),
(551,460,o),
(552,465,o),
(552,473,cs),
(552,532,ls),
(552,542,o),
(547,547,o),
(537,547,cs)
);
}
);
width = 572;
}
);
note = seven;
unicode = 55;
},
{
glyphname = eight;
kernLeft = eight;
kernRight = eight;
lastChange = "2023-03-30 09:40:38 +0000";
layers = (
{
layerId = "6AD408C6-91F3-4F0B-A103-73D10F5280D9";
shapes = (
{
closed = 1;
nodes = (
(148,765,o),
(46,684,o),
(46,567,cs),
(46,473,o),
(104,411,o),
(166,371,c),
(89,339,o),
(30,285,o),
(30,194,cs),
(30,66,o),
(127,-10,o),
(273,-10,cs),
(419,-10,o),
(528,68,o),
(528,194,cs),
(528,292,o),
(473,354,o),
(389,400,c),
(453,434,o),
(507,502,o),
(507,577,cs),
(507,684,o),
(418,765,o),
(283,765,cs)
);
},
{
closed = 1;
nodes = (
(361,703,o),
(396,640,o),
(396,577,cs),
(396,516,o),
(367,460,o),
(298,440,c),
(251,456,o),
(174,508,o),
(174,578,cs),
(174,661,o),
(219,703,o),
(283,703,cs)
);
},
{
closed = 1;
nodes = (
(305,312,o),
(396,265,o),
(396,181,cs),
(396,98,o),
(360,53,o),
(273,53,cs),
(180,53,o),
(139,121,o),
(139,194,cs),
(139,252,o),
(171,300,o),
(257,326,c)
);
}
);
width = 558;
}
);
note = eight;
unicode = 56;
},
{
glyphname = nine;
kernLeft = nine;
kernRight = nine;
lastChange = "2023-03-30 09:40:37 +0000";
layers = (
{
layerId = "6AD408C6-91F3-4F0B-A103-73D10F5280D9";
shapes = (
{
closed = 1;
nodes = (
(436,440,o),
(436,419,o),
(436,400,cs),
(436,161,o),
(379,34,o),
(251,34,cs),
(175,34,o),
(135,92,o),
(125,173,cs),
(124,181,o),
(123,191,o),
(121,193,cs),
(119,195,o),
(116,194,o),
(113,191,cs),
(25,110,ls),
(22,107,o),
(20,102,o),
(20,97,cs),
(20,57,o),
(97,-34,o),
(237,-34,cs),
(483,-34,o),
(578,157,o),
(578,407,cs),
(578,584,o),
(493,743,o),
(306,743,cs),
(152,743,o),
(28,648,o),
(28,494,cs),
(28,360,o),
(125,239,o),
(293,239,cs),
(342,239,o),
(415,247,o),
(462,296,c),
(435,461,l),
(438,395,o),
(410,315,o),
(310,315,cs),
(201,315,o),
(166,453,o),
(166,532,cs),
(166,605,o),
(197,667,o),
(281,667,cs),
(386,667,o),
(432,537,o),
(435,461,cs)
);
}
);
width = 608;
},
{
associatedMasterId = "6AD408C6-91F3-4F0B-A103-73D10F5280D9";
hints = (
{
horizontal = 1;
place = (-34, 67.52);
place = (-34, 67.52);
type = Stem;
},
{
horizontal = 1;
place = (238.69, 75.84);
place = (238.69, 75.84);
type = Stem;
},
{
horizontal = 1;
place = (666.8, 76.69);
place = (666.8, 76.69);
type = Stem;
},
{
place = (48.13, 137.96);
place = (48.13, 137.96);
type = Stem;
},
{
place = (454.79, 143.29);
place = (454.79, 143.29);
type = Stem;
},
{
place = (25.72, 122.44);
place = (25.72, 122.44);
type = Stem;
}
);
layerId = "A9E4958E-7403-43B5-BF37-1066C62E679F";
name = "27 mars 23 à 11:32";
shapes = (
{
closed = 1;
nodes = (
(171,743,o),
(47,648,o),
(47,494,cs),
(47,360,o),
(144,239,o),
(312,239,cs),
(356,239,o),
(399,245,o),
(439,264,c),
(416,143,o),
(358,34,o),
(227,34,cs),
(190,34,o),
(147,46,o),
(147,93,cs),
(147,111,o),
(153,134,o),
(169,164,cs),
(172,169,o),
(173,174,o),
(173,177,cs),
(173,182,o),
(172,185,o),
(167,185,cs),
(164,185,o),
(146,181,o),
(57,161,cs),
(29,155,o),
(25,131,o),
(25,106,cs),
(25,34,o),
(108,-34,o),
(231,-34,cs),
(535,-34,o),
(597,277,o),
(597,447,cs),
(597,604,o),
(522,743,o),
(325,743,cs)
);
},
{
closed = 1;
nodes = (
(405,667,o),
(454,536,o),
(454,461,cs),
(454,393,o),
(429,315,o),
(329,315,cs),
(220,315,o),
(185,453,o),
(185,532,cs),
(185,605,o),
(216,667,o),
(300,667,cs)
);
}
);
width = 617;
},
{
associatedMasterId = "6AD408C6-91F3-4F0B-A103-73D10F5280D9";
background = {
shapes = (
{
closed = 1;
nodes = (
(171,743,o),
(47,648,o),
(47,494,cs),
(47,360,o),
(144,239,o),
(312,239,cs),
(356,239,o),
(399,245,o),
(439,264,c),
(416,143,o),
(358,34,o),
(227,34,cs),
(190,34,o),
(147,46,o),
(147,93,cs),
(147,111,o),
(153,134,o),
(169,164,cs),
(172,169,o),
(173,174,o),
(173,177,cs),
(173,182,o),
(172,185,o),
(167,185,cs),
(164,185,o),
(146,181,o),
(57,161,cs),
(29,155,o),
(25,131,o),
(25,106,cs),
(25,34,o),
(108,-34,o),
(231,-34,cs),
(535,-34,o),
(597,277,o),
(597,447,cs),
(597,604,o),
(522,743,o),
(325,743,cs)
);
},
{
closed = 1;
nodes = (
(405,667,o),
(454,536,o),
(454,461,cs),
(454,393,o),
(429,315,o),
(329,315,cs),
(220,315,o),
(185,453,o),
(185,532,cs),
(185,605,o),
(216,667,o),
(300,667,cs)
);
}
);
};
hints = (
{
horizontal = 1;
place = (-34, 67.52);
place = (-34, 67.52);
type = Stem;
},
{
horizontal = 1;
place = (238.69, 75.84);
place = (238.69, 75.84);
type = Stem;
},
{
horizontal = 1;
place = (666.8, 76.69);
place = (666.8, 76.69);
type = Stem;
},
{
place = (48.13, 137.96);
place = (48.13, 137.96);
type = Stem;
},
{
place = (454.79, 143.29);
place = (454.79, 143.29);
type = Stem;
},
{
place = (43, 106);
place = (43, 106);
type = Stem;
}
);
layerId = "0C8C966E-3967-4DBA-96A7-9FF9FD1AB124";
name = "27 mars 23 à 11:41";
shapes = (
{
closed = 1;
nodes = (
(464,183,o),
(409,34,o),
(270,34,cs),
(194,34,o),
(154,92,o),
(144,173,cs),
(143,181,o),
(142,191,o),
(140,193,cs),
(138,195,o),
(135,194,o),
(132,191,cs),
(44,110,ls),
(18,86,o),
(95,-34,o),
(256,-34,cs),
(502,-34,o),
(597,157,o),
(597,407,cs),
(597,584,o),
(512,743,o),
(325,743,cs),
(171,743,o),
(47,648,o),
(47,494,cs),
(47,360,o),
(144,239,o),
(312,239,cs),
(361,239,o),
(434,247,o),
(481,296,c),
(454,461,l),
(457,395,o),
(429,315,o),
(329,315,cs),
(220,315,o),
(185,453,o),
(185,532,cs),
(185,605,o),
(216,667,o),
(300,667,cs),
(405,667,o),
(451,537,o),
(454,461,cs)
);
}
);
width = 617;
}
);
note = nine;
unicode = 57;
},
{
glyphname = zero.zero;
kernLeft = zero;
kernRight = zero;
lastChange = "2023-03-30 09:35:03 +0000";
layers = (
{
layerId = "6AD408C6-91F3-4F0B-A103-73D10F5280D9";
shapes = (
{
ref = zero;
},
{
closed = 1;
nodes = (
(190,61,l),
(257,34,l),
(419,486,l),
(351,511,l)
);
}
);
width = 602;
}
);
metricLeft = zero;
metricRight = zero;
},
{
glyphname = zero.lf;
kernLeft = zero.lf;
kernRight = zero.lf;
lastChange = "2023-03-30 09:35:03 +0000";
layers = (
{
layerId = "6AD408C6-91F3-4F0B-A103-73D10F5280D9";
shapes = (
{
closed = 1;
nodes = (
(643,635,o),
(520,762,o),
(337,762,cs),
(154,762,o),
(29,635,o),
(30,374,cs),
(31,114,o),
(154,-13,o),
(337,-13,cs),
(520,-13,o),
(645,114,o),
(644,374,cs)
);
},
{
closed = 1;
nodes = (
(504,167,o),
(461,63,o),
(337,63,cs),
(213,63,o),
(170,167,o),
(170,374,cs),
(170,582,o),
(213,686,o),
(337,686,cs),
(461,686,o),
(504,582,o),
(504,374,cs)
);
}
);
width = 674;
}
);
},
{
glyphname = one.lf;
lastChange = "2023-03-30 09:40:37 +0000";
layers = (
{
layerId = "6AD408C6-91F3-4F0B-A103-73D10F5280D9";
shapes = (
{
closed = 1;
nodes = (
(319,748,ls),
(319,755,o),
(313,757,o),
(304,751,cs),
(221,698,o),
(131,652,o),
(45,615,cs),
(35,611,o),
(30,609,o),
(30,600,cs),
(30,565,ls),
(30,555,o),
(35,547,o),
(45,550,cs),
(151,587,ls),
(171,594,o),
(179,586,o),
(179,565,cs),
(179,155,ls),
(179,72,o),
(134,60,o),
(83,60,cs),
(56,60,ls),
(46,60,o),
(41,55,o),
(41,45,cs),
(41,15,ls),
(41,5,o),
(46,0,o),
(56,0,cs),
(442,0,ls),
(452,0,o),
(457,5,o),
(457,15,cs),
(457,45,ls),
(457,55,o),
(452,60,o),
(442,60,cs),
(416,60,ls),
(366,60,o),
(319,72,o),
(319,155,cs)
);
}
);
width = 487;
}
);
},
{
glyphname = two.lf;
lastChange = "2023-03-30 09:40:37 +0000";
layers = (
{
hints = (
{
horizontal = 1;
place = (-13.17, 21);
target = up;
type = BottomGhost;
}
);
layerId = "6AD408C6-91F3-4F0B-A103-73D10F5280D9";
shapes = (
{
closed = 1;
nodes = (
(176,85,l),
(230,162,o),
(608,282,o),
(608,525,cs),
(608,684,o),
(478,762,o),
(312,762,cs),
(103,762,o),
(26,590,o),
(26,546,cs),
(26,536,o),
(32,530,o),
(43,526,cs),
(165,483,ls),
(171,481,o),
(176,479,o),
(183,479,cs),
(191,479,o),
(195,482,o),
(195,489,cs),
(195,497,o),
(193,504,o),
(193,522,cs),
(193,616,o),
(240,683,o),
(320,683,cs),
(395,683,o),
(434,621,o),
(434,526,cs),
(434,296,o),
(118,230,o),
(28,59,cs),
(26,55,o),
(25,51,o),
(25,43,cs),
(25,15,ls),
(25,5,o),
(30,0,o),
(40,0,cs),
(514,0,ls),
(526,0,o),
(529,-1,o),
(533,-5,cs),
(538,-10,ls),
(541,-13,o),
(544,-14,o),
(547,-14,cs),
(552,-14,o),
(556,-11,o),
(559,-5,cs),
(653,193,ls),
(655,197,o),
(656,200,o),
(656,203,cs),
(656,208,o),
(652,211,o),
(647,214,cs),
(615,233,ls),
(612,235,o),
(610,235,o),
(607,235,cs),
(601,235,o),
(597,232,o),
(594,227,cs),
(591,221,ls),
(535,109,o),
(480,85,o),
(353,85,cs)
);
}
);
width = 676;
},
{
associatedMasterId = "6AD408C6-91F3-4F0B-A103-73D10F5280D9";
hints = (
{
horizontal = 1;
place = (0.03, 83.95);
place = (0.03, 83.95);
type = Stem;
},
{
horizontal = 1;
place = (487.95, 57.83);
place = (487.95, 57.83);
type = Stem;
},
{
place = (36.48, 122.36);
place = (36.48, 122.36);
type = Stem;
},
{
place = (308.77, 144.03);
place = (308.77, 144.03);
type = Stem;
},
{
horizontal = 1;
place = (-13.17, 21);
target = up;
type = BottomGhost;
}
);
layerId = "CBBC072F-006C-41D1-9765-64BE22D4647E";
name = "27 mars 23 à 12:20";
shapes = (
{
closed = 1;
nodes = (
(555,157,ls),
(552,159,o),
(549,160,o),
(547,160,cs),
(542,160,o),
(538,157,o),
(535,151,cs),
(532,146,ls),
(496,85,o),
(376,85,o),
(307,85,cs),
(145,85,l),
(226,223,o),
(537,322,o),
(537,535,cs),
(537,694,o),
(443,762,o),
(267,762,cs),
(91,762,o),
(20,683,o),
(20,582,cs),
(20,570,o),
(23,558,o),
(28,546,cs),
(32,535,o),
(38,530,o),
(53,527,cs),
(158,503,ls),
(164,502,o),
(167,506,o),
(167,512,cs),
(167,533,o),
(143,550,o),
(143,596,cs),
(143,657,o),
(178,704,o),
(262,704,cs),
(346,704,o),
(393,654,o),
(393,536,cs),
(393,324,o),
(117,230,o),
(27,59,cs),
(25,55,o),
(24,51,o),
(24,43,cs),
(24,15,ls),
(24,5,o),
(29,0,o),
(39,0,cs),
(473,0,ls),
(480,0,o),
(486,0,o),
(491,-5,cs),
(499,-12,o),
(502,-13,o),
(505,-13,cs),
(510,-13,o),
(514,-10,o),
(517,-5,cs),
(592,118,ls),
(595,123,o),
(596,125,o),
(596,128,cs),
(596,133,o),
(592,136,o),
(586,139,cs)
);
}
);
width = 626;
},
{
associatedMasterId = "6AD408C6-91F3-4F0B-A103-73D10F5280D9";
hints = (
{
horizontal = 1;
place = (0.03, 83.95);
place = (0.03, 83.95);
type = Stem;
},
{
horizontal = 1;
place = (487.95, 57.83);
place = (487.95, 57.83);
type = Stem;
},
{
place = (36.48, 122.36);
place = (36.48, 122.36);
type = Stem;
},
{
place = (308.77, 144.03);
place = (308.77, 144.03);
type = Stem;
},
{
horizontal = 1;
place = (-13.17, 21);
target = up;
type = BottomGhost;
}
);
layerId = "BF9BA135-552A-4A7A-B257-8ACA8EE788CD";
name = "27 mars 23 à 12:22";
shapes = (
{
closed = 1;
nodes = (
(403,683,o),
(443,624,o),
(443,526,cs),
(443,314,o),
(117,230,o),
(27,59,cs),
(25,55,o),
(24,51,o),
(24,43,cs),
(24,15,ls),
(24,5,o),
(29,0,o),
(39,0,cs),
(533,0,ls),
(540,0,o),
(546,0,o),
(551,-5,cs),
(559,-12,o),
(562,-13,o),
(565,-13,cs),
(570,-13,o),
(574,-10,o),
(577,-5,cs),
(652,118,ls),
(655,123,o),
(656,125,o),
(656,128,cs),
(656,133,o),
(652,136,o),
(646,139,cs),
(615,157,ls),
(612,159,o),
(609,160,o),
(607,160,cs),
(602,160,o),
(598,157,o),
(595,151,cs),
(592,146,ls),
(556,85,o),
(436,85,o),
(367,85,cs),
(145,85,l),
(226,223,o),
(617,312,o),
(617,525,cs),
(617,684,o),
(487,762,o),
(311,762,cs),
(82,762,o),
(15,590,o),
(15,546,cs),
(15,536,o),
(21,530,o),
(32,526,cs),
(154,483,ls),
(160,481,o),
(165,479,o),
(172,479,cs),
(180,479,o),
(184,482,o),
(184,489,cs),
(184,497,o),
(182,508,o),
(182,522,cs),
(182,593,o),
(215,683,o),
(319,683,cs)
);
}
);
width = 626;
}
);
},
{
glyphname = three.lf;
lastChange = "2023-03-30 09:40:37 +0000";
layers = (
{
layerId = "6AD408C6-91F3-4F0B-A103-73D10F5280D9";
shapes = (
{
closed = 1;
nodes = (
(205,55,o),
(145,122,o),
(135,203,cs),
(133,220,o),
(127,217,o),
(120,210,cs),
(35,131,ls),
(32,128,o),
(30,123,o),
(30,118,cs),
(30,78,o),
(137,-13,o),
(297,-13,cs),
(484,-13,o),
(629,66,o),
(629,213,cs),
(629,330,o),
(545,389,o),
(438,397,c),
(533,417,o),
(605,470,o),
(605,567,cs),
(605,692,o),
(494,762,o),
(331,762,cs),
(122,762,o),
(35,590,o),
(35,546,cs),
(35,536,o),
(41,530,o),
(52,526,cs),
(174,483,ls),
(180,481,o),
(185,479,o),
(192,479,cs),
(200,479,o),
(204,482,o),
(204,489,cs),
(204,497,o),
(202,504,o),
(202,522,cs),
(202,616,o),
(259,683,o),
(339,683,cs),
(393,683,o),
(444,649,o),
(444,568,cs),
(444,453,o),
(348,425,o),
(212,397,cs),
(203,395,o),
(195,391,o),
(196,383,cs),
(203,346,ls),
(205,337,o),
(210,333,o),
(220,333,cs),
(237,333,o),
(268,342,o),
(303,342,cs),
(402,342,o),
(468,306,o),
(468,207,cs),
(468,120,o),
(411,55,o),
(301,55,cs)
);
}
);
width = 659;
}
);
},
{
glyphname = four.lf;
lastChange = "2023-03-30 09:40:37 +0000";
layers = (
{
hints = (
{
horizontal = 1;
place = (0, 21);
target = up;
type = BottomGhost;
}
);
layerId = "6AD408C6-91F3-4F0B-A103-73D10F5280D9";
shapes = (
{
closed = 1;
nodes = (
(469,211,l),
(575,211,ls),
(585,211,o),
(590,216,o),
(590,226,cs),
(590,283,ls),
(590,293,o),
(585,298,o),
(575,298,cs),
(469,298,l),
(469,736,ls),
(469,745,o),
(465,750,o),
(457,750,cs),
(342,750,ls),
(333,750,o),
(329,743,o),
(329,734,cs),
(329,298,l),
(139,298,l),
(459,746,l),
(342,750,l),
(333,750,o),
(328,743,o),
(322,734,cs),
(25,307,ls),
(21,301,o),
(20,295,o),
(20,288,cs),
(20,226,ls),
(20,216,o),
(25,211,o),
(35,211,cs),
(329,211,l),
(329,155,ls),
(329,72,o),
(284,60,o),
(233,60,cs),
(206,60,ls),
(196,60,o),
(191,55,o),
(191,45,cs),
(191,15,ls),
(191,5,o),
(196,0,o),
(206,0,cs),
(592,0,ls),
(602,0,o),
(607,5,o),
(607,15,cs),
(607,45,ls),
(607,55,o),
(602,60,o),
(592,60,cs),
(566,60,ls),
(516,60,o),
(469,72,o),
(469,155,cs)
);
}
);
width = 627;
}
);
},
{
glyphname = five.lf;
lastChange = "2023-03-30 09:40:38 +0000";
layers = (
{
layerId = "6AD408C6-91F3-4F0B-A103-73D10F5280D9";
shapes = (
{
closed = 1;
nodes = (
(176,55,o),
(130,122,o),
(120,203,cs),
(118,220,o),
(112,217,o),
(105,210,cs),
(20,131,ls),
(17,128,o),
(15,123,o),
(15,118,cs),
(15,78,o),
(100,-13,o),
(272,-13,cs),
(452,-13,o),
(579,85,o),
(579,224,cs),
(579,450,o),
(324,491,o),
(176,459,c),
(211,664,l),
(444,664,ls),
(452,664,o),
(457,665,o),
(463,659,cs),
(471,651,o),
(474,651,o),
(477,651,cs),
(481,651,o),
(486,654,o),
(489,659,cs),
(562,775,ls),
(564,778,o),
(565,780,o),
(565,783,cs),
(565,788,o),
(562,792,o),
(557,795,cs),
(526,813,ls),
(523,815,o),
(520,816,o),
(517,816,cs),
(513,816,o),
(510,813,o),
(505,807,cs),
(488,786,ls),
(460,751,o),
(428,750,o),
(309,750,cs),
(132,750,ls),
(122,750,o),
(116,746,o),
(115,737,cs),
(61,381,ls),
(60,372,o),
(63,364,o),
(71,366,cs),
(225,404,o),
(415,398,o),
(415,217,cs),
(415,117,o),
(364,55,o),
(270,55,cs)
);
}
);
width = 609;
},
{
associatedMasterId = "6AD408C6-91F3-4F0B-A103-73D10F5280D9";
hints = (
{
horizontal = 1;
place = (15.08, 67.84);
place = (15.08, 67.84);
type = Stem;
},
{
horizontal = 1;
place = (444.87, 66.27);
place = (444.87, 66.27);
type = Stem;
},
{
horizontal = 1;
place = (664.26, 84.09);
place = (664.26, 84.09);
type = Stem;
},
{
place = (322.34, 164.02);
place = (322.34, 164.02);
type = Stem;
}
);
layerId = "161CF57C-9256-4FB7-98B9-70AD69BC6559";
name = "27 mars 23 à 13:48";
shapes = (
{
closed = 1;
nodes = (
(198,664,l),
(411,664,ls),
(419,664,o),
(424,665,o),
(430,659,cs),
(438,651,o),
(441,651,o),
(444,651,cs),
(448,651,o),
(453,654,o),
(456,659,cs),
(519,765,ls),
(521,768,o),
(522,770,o),
(522,773,cs),
(522,778,o),
(519,782,o),
(514,785,cs),
(483,803,ls),
(480,805,o),
(477,806,o),
(474,806,cs),
(470,806,o),
(465,803,o),
(462,797,cs),
(459,792,ls),
(436,753,o),
(315,750,o),
(266,750,cs),
(119,750,ls),
(109,750,o),
(104,746,o),
(102,737,cs),
(48,449,ls),
(46,440,o),
(50,434,o),
(58,434,cs),
(67,434,o),
(116,445,o),
(149,445,cs),
(230,445,o),
(322,415,o),
(322,285,cs),
(322,140,o),
(231,83,o),
(117,83,cs),
(89,83,o),
(60,86,o),
(30,93,cs),
(21,95,o),
(15,89,o),
(15,81,cs),
(15,69,o),
(17,58,o),
(20,35,cs),
(21,26,o),
(27,22,o),
(36,21,cs),
(67,17,o),
(98,15,o),
(129,15,cs),
(322,15,o),
(486,97,o),
(486,282,cs),
(486,432,o),
(367,511,o),
(222,511,cs),
(203,511,o),
(184,510,o),
(164,507,c)
);
}
);
width = 552;
}
);
},
{
glyphname = six.lf;
lastChange = "2023-03-30 09:40:38 +0000";
layers = (
{
layerId = "6AD408C6-91F3-4F0B-A103-73D10F5280D9";
shapes = (
{
closed = 1;
nodes = (
(172,290,o),
(172,311,o),
(172,330,cs),
(172,569,o),
(229,683,o),
(357,683,cs),
(433,683,o),
(473,638,o),
(483,557,cs),
(484,549,o),
(485,539,o),
(487,537,cs),
(489,535,o),
(492,536,o),
(495,539,cs),
(583,620,ls),
(586,623,o),
(588,628,o),
(588,633,cs),
(588,673,o),
(511,762,o),
(371,762,cs),
(145,762,o),
(30,573,o),
(30,323,cs),
(30,146,o),
(125,-13,o),
(302,-13,cs),
(456,-13,o),
(580,82,o),
(580,236,cs),
(580,370,o),
(483,491,o),
(315,491,cs),
(266,491,o),
(193,483,o),
(146,434,c),
(173,269,l),
(170,335,o),
(198,415,o),
(298,415,cs),
(407,415,o),
(442,277,o),
(442,198,cs),
(442,125,o),
(411,63,o),
(327,63,cs),
(222,63,o),
(176,193,o),
(173,269,cs)
);
}
);
width = 618;
}
);
},
{
glyphname = seven.lf;
lastChange = "2023-03-30 09:40:38 +0000";
layers = (
{
layerId = "6AD408C6-91F3-4F0B-A103-73D10F5280D9";
shapes = (
{
closed = 1;
nodes = (
(437,665,l),
(213,155,ls),
(174,67,o),
(148,60,o),
(97,60,cs),
(70,60,ls),
(60,60,o),
(55,55,o),
(55,45,cs),
(55,15,ls),
(55,5,o),
(60,0,o),
(70,0,cs),
(476,0,ls),
(486,0,o),
(491,5,o),
(491,15,cs),
(491,45,ls),
(491,55,o),
(486,60,o),
(476,60,cs),
(450,60,ls),
(400,60,o),
(319,76,o),
(353,155,cs),
(568,658,ls),
(571,665,o),
(573,669,o),
(573,677,cs),
(573,736,ls),
(573,746,o),
(568,751,o),
(558,751,cs),
(152,750,ls),
(140,750,o),
(137,751,o),
(133,755,cs),
(128,760,ls),
(125,763,o),
(122,764,o),
(119,764,cs),
(114,764,o),
(110,761,o),
(107,755,cs),
(13,557,ls),
(11,553,o),
(10,550,o),
(10,547,cs),
(10,542,o),
(14,539,o),
(19,536,cs),
(51,517,ls),
(54,515,o),
(56,515,o),
(59,515,cs),
(65,515,o),
(69,518,o),
(72,523,cs),
(75,529,ls),
(131,641,o),
(186,665,o),
(323,665,cs)
);
}
);
width = 583;
},
{
associatedMasterId = "6AD408C6-91F3-4F0B-A103-73D10F5280D9";
hints = (
{
horizontal = 1;
place = (665.83, 83.71);
place = (665.83, 83.71);
type = Stem;
},
{
place = (73.99, 183.58);
place = (73.99, 183.58);
type = Stem;
}
);
layerId = "EE136EDB-8EAA-49B3-995E-D953F48DABED";
name = "27 mars 23 à 13:59";
shapes = (
{
closed = 1;
nodes = (
(141,750,ls),
(133,750,o),
(128,751,o),
(122,756,cs),
(114,764,o),
(111,764,o),
(108,764,cs),
(104,764,o),
(99,761,o),
(96,756,cs),
(23,648,ls),
(21,645,o),
(20,642,o),
(20,640,cs),
(20,635,o),
(23,631,o),
(28,628,cs),
(59,610,ls),
(62,608,o),
(65,607,o),
(68,607,cs),
(74,607,o),
(77,609,o),
(83,621,cs),
(106,660,o),
(227,664,o),
(276,664,cs),
(476,664,l),
(404,580,o),
(74,197,o),
(74,57,cs),
(74,28,o),
(79,0,o),
(102,0,cs),
(266,0,ls),
(273,0,o),
(276,3,o),
(276,10,cs),
(276,13,o),
(275,15,o),
(273,20,cs),
(262,44,o),
(258,55,o),
(258,82,cs),
(258,261,o),
(465,516,o),
(557,658,cs),
(561,664,o),
(562,669,o),
(562,677,cs),
(562,736,ls),
(562,746,o),
(557,751,o),
(547,751,cs)
);
},
{
closed = 0;
nodes = (
(262,155,ls),
(262,72,o),
(309,60,o),
(359,60,cs),
(385,60,ls),
(395,60,o),
(400,55,o),
(400,45,cs),
(400,15,ls),
(400,5,o),
(395,0,o),
(385,0,cs),
(-1,0,ls),
(-11,0,o),
(-16,5,o),
(-16,15,cs),
(-16,45,ls),
(-16,55,o),
(-11,60,o),
(-1,60,cs),
(26,60,ls),
(77,60,o),
(122,72,o),
(122,155,cs)
);
}
);
width = 572;
},
{
associatedMasterId = "6AD408C6-91F3-4F0B-A103-73D10F5280D9";
hints = (
{
horizontal = 1;
origin = (1,0);
place = (665, 83.71);
type = Stem;
},
{
place = (73.99, 183.58);
place = (73.99, 183.58);
type = Stem;
}
);
layerId = "0DC29132-FD7E-4A09-A761-AE195344FBD0";
name = "27 mars 23 à 14:02";
shapes = (
{
closed = 1;
nodes = (
(118,340,ls),
(118,330,o),
(123,325,o),
(133,325,cs),
(547,325,ls),
(557,325,o),
(562,330,o),
(562,340,cs),
(562,397,ls),
(562,407,o),
(557,412,o),
(547,412,cs),
(133,412,ls),
(123,412,o),
(118,407,o),
(118,397,cs)
);
},
{
closed = 1;
nodes = (
(426,665,l),
(202,155,ls),
(163,67,o),
(137,60,o),
(86,60,cs),
(59,60,ls),
(49,60,o),
(44,55,o),
(44,45,cs),
(44,15,ls),
(44,5,o),
(49,0,o),
(59,0,cs),
(465,0,ls),
(475,0,o),
(480,5,o),
(480,15,cs),
(480,45,ls),
(480,55,o),
(475,60,o),
(465,60,cs),
(439,60,ls),
(389,60,o),
(308,76,o),
(342,155,cs),
(557,658,ls),
(560,665,o),
(562,669,o),
(562,677,cs),
(562,736,ls),
(562,746,o),
(557,751,o),
(547,751,cs),
(141,750,ls),
(129,750,o),
(126,751,o),
(122,755,cs),
(117,760,ls),
(114,763,o),
(111,764,o),
(108,764,cs),
(103,764,o),
(99,761,o),
(96,755,cs),
(2,557,ls),
(0,553,o),
(-1,550,o),
(-1,547,cs),
(-1,542,o),
(3,539,o),
(8,536,cs),
(40,517,ls),
(43,515,o),
(45,515,o),
(48,515,cs),
(54,515,o),
(58,518,o),
(61,523,cs),
(64,529,ls),
(120,641,o),
(175,665,o),
(312,665,cs)
);
}
);
width = 572;
}
);
},
{
glyphname = eight.lf;
lastChange = "2023-03-30 09:40:38 +0000";
layers = (
{
layerId = "6AD408C6-91F3-4F0B-A103-73D10F5280D9";
shapes = (
{
closed = 1;
nodes = (
(148,762,o),
(46,684,o),
(46,567,cs),
(46,473,o),
(104,411,o),
(166,371,c),
(89,339,o),
(30,285,o),
(30,194,cs),
(30,66,o),
(127,-10,o),
(273,-10,cs),
(419,-10,o),
(528,68,o),
(528,194,cs),
(528,292,o),
(473,354,o),
(389,400,c),
(453,434,o),
(507,502,o),
(507,577,cs),
(507,684,o),
(418,762,o),
(283,762,cs)
);
},
{
closed = 1;
nodes = (
(361,683,o),
(396,630,o),
(396,577,cs),
(396,516,o),
(367,460,o),
(298,440,c),
(251,456,o),
(174,508,o),
(174,578,cs),
(174,641,o),
(219,683,o),
(283,683,cs)
);
},
{
closed = 1;
nodes = (
(305,312,o),
(396,265,o),
(396,181,cs),
(396,108,o),
(350,69,o),
(273,69,cs),
(180,69,o),
(139,131,o),
(139,194,cs),
(139,252,o),
(171,300,o),
(257,326,c)
);
}
);
width = 558;
}
);
},
{
glyphname = nine.lf;
lastChange = "2023-03-30 09:40:37 +0000";
layers = (
{
layerId = "6AD408C6-91F3-4F0B-A103-73D10F5280D9";
shapes = (
{
closed = 1;
nodes = (
(446,459,o),
(446,438,o),
(446,419,cs),
(446,180,o),
(389,66,o),
(261,66,cs),
(185,66,o),
(145,111,o),
(135,192,cs),
(134,200,o),
(133,210,o),
(131,212,cs),
(129,214,o),
(126,213,o),
(123,210,cs),
(35,129,ls),
(32,126,o),
(30,121,o),
(30,116,cs),
(30,76,o),
(107,-13,o),
(247,-13,cs),
(473,-13,o),
(588,176,o),
(588,426,cs),
(588,603,o),
(493,762,o),
(316,762,cs),
(162,762,o),
(38,667,o),
(38,513,cs),
(38,379,o),
(135,258,o),
(303,258,cs),
(352,258,o),
(425,266,o),
(472,315,c),
(445,480,l),
(448,414,o),
(420,334,o),
(320,334,cs),
(211,334,o),
(176,472,o),
(176,551,cs),
(176,624,o),
(207,686,o),
(291,686,cs),
(396,686,o),
(442,556,o),
(445,480,cs)
);
}
);
width = 618;
}
);
},
{
glyphname = zero.lf.zero;
kernLeft = zero.lf;
kernRight = zero.lf;
lastChange = "2023-03-30 09:35:03 +0000";
layers = (
{
layerId = "6AD408C6-91F3-4F0B-A103-73D10F5280D9";
shapes = (
{
ref = zero.lf;
},
{
closed = 1;
nodes = (
(182,66,l),
(249,39,l),
(482,685,l),
(414,710,l)
);
}
);
width = 674;
}
);
metricLeft = zero.lf;
metricRight = zero.lf;
},
{
glyphname = zero.tf.zero;
kernLeft = zero.tf;
kernRight = zero.tf;
lastChange = "2023-03-30 09:35:03 +0000";
layers = (
{
layerId = "6AD408C6-91F3-4F0B-A103-73D10F5280D9";
shapes = (
{
ref = zero.tf;
},
{
closed = 1;
nodes = (
(182,66,l),
(249,39,l),
(482,685,l),
(414,710,l)
);
}
);
width = 650;
}
);
metricLeft = zero.tf;
metricRight = zero.tf;
},
{
glyphname = zero.tosf.zero;
kernLeft = zero.tosf;
kernRight = zero.tosf;
lastChange = "2023-03-30 09:35:03 +0000";
layers = (
{
layerId = "6AD408C6-91F3-4F0B-A103-73D10F5280D9";
shapes = (
{
ref = zero.tosf;
},
{
closed = 1;
nodes = (
(190,61,l),
(257,34,l),
(419,486,l),
(351,511,l)
);
}
);
width = 620;
}
);
metricLeft = zero.tosf;
metricRight = zero.tosf;
},
{
glyphname = three.dnom;
kernLeft = three.dnom;
kernRight = three.dnom;
lastChange = "2023-03-30 09:35:03 +0000";
layers = (
{
layerId = "6AD408C6-91F3-4F0B-A103-73D10F5280D9";
shapes = (
{
closed = 1;
nodes = (
(124,257,ls),
(129,256,o),
(131,259,o),
(131,263,cs),
(131,270,o),
(113,294,o),
(113,321,cs),
(113,356,o),
(145,368,o),
(173,368,cs),
(206,368,o),
(226,347,o),
(226,307,cs),
(226,257,o),
(178,239,o),
(92,215,cs),
(87,213,o),
(83,211,o),
(84,203,cs),
(89,171,ls),
(90,166,o),
(93,163,o),
(100,163,cs),
(110,163,o),
(138,177,o),
(168,177,cs),
(210,177,o),
(236,154,o),
(236,119,cs),
(236,65,o),
(186,44,o),
(134,44,cs),
(92,44,o),
(56,57,o),
(32,66,cs),
(25,68,o),
(19,63,o),
(20,57,cs),
(25,17,ls),
(26,11,o),
(30,8,o),
(37,6,cs),
(62,-4,o),
(99,-13,o),
(141,-13,cs),
(254,-13,o),
(353,26,o),
(353,117,cs),
(353,192,o),
(290,218,o),
(234,221,c),
(284,232,o),
(335,249,o),
(335,306,cs),
(335,374,o),
(279,408,o),
(177,408,cs),
(83,408,o),
(20,361,o),
(20,311,cs),
(20,302,o),
(21,294,o),
(25,286,cs),
(29,280,o),
(33,275,o),
(44,273,cs)
);
}
);
width = 383;
}
);
},
{
glyphname = four.dnom;
kernLeft = four.dnom;
kernRight = four.dnom;
lastChange = "2023-03-30 09:40:38 +0000";
layers = (
{
hints = (
{
horizontal = 1;
place = (-160.52, 21);
target = up;
type = BottomGhost;
}
);
layerId = "6AD408C6-91F3-4F0B-A103-73D10F5280D9";
shapes = (
{
closed = 1;
nodes = (
(417,46,ls),
(417,54,o),
(413,58,o),
(405,58,cs),
(320,58,l),
(320,150,ls),
(320,157,o),
(317,162,o),
(311,161,cs),
(241,147,ls),
(234,146,o),
(231,142,o),
(231,135,cs),
(231,58,l),
(96,58,l),
(148,119,o),
(288,257,o),
(288,347,cs),
(288,355,o),
(287,364,o),
(284,371,cs),
(281,380,o),
(277,383,o),
(265,386,cs),
(156,409,ls),
(152,410,o),
(148,408,o),
(148,403,cs),
(148,400,o),
(149,397,o),
(151,393,cs),
(163,367,o),
(168,346,o),
(168,324,cs),
(168,232,o),
(77,164,o),
(11,64,cs),
(8,60,o),
(8,55,o),
(8,50,cs),
(8,3,ls),
(8,-4,o),
(11,-8,o),
(19,-8,cs),
(231,-8,l),
(231,-117,ls),
(231,-125,o),
(235,-129,o),
(242,-129,cs),
(309,-129,ls),
(317,-129,o),
(320,-125,o),
(320,-117,cs),
(320,-8,l),
(405,-8,ls),
(413,-8,o),
(417,-4,o),
(417,3,cs)
);
}
);
width = 436;
}
);
note = four.dnom;
},
{
glyphname = five.dnom;
kernLeft = five.dnom;
kernRight = five.dnom;
lastChange = "2023-03-30 09:35:03 +0000";
layers = (
{
layerId = "6AD408C6-91F3-4F0B-A103-73D10F5280D9";
shapes = (
{
closed = 1;
nodes = (
(132,-77,o),
(97,-26,o),
(90,35,cs),
(88,48,o),
(84,46,o),
(78,40,cs),
(14,-19,ls),
(11,-21,o),
(10,-26,o),
(10,-29,cs),
(10,-60,o),
(74,-129,o),
(205,-129,cs),
(331,-129,o),
(427,-64,o),
(427,41,cs),
(427,192,o),
(244,223,o),
(132,199,c),
(152,302,l),
(335,302,ls),
(341,302,o),
(345,303,o),
(349,299,cs),
(356,292,o),
(358,292,o),
(360,292,cs),
(363,292,o),
(367,295,o),
(369,299,cs),
(424,386,ls),
(426,389,o),
(427,390,o),
(427,392,cs),
(427,396,o),
(425,400,o),
(421,402,cs),
(397,415,ls),
(395,416,o),
(393,417,o),
(390,417,cs),
(387,417,o),
(385,415,o),
(381,411,cs),
(368,395,ls),
(346,368,o),
(323,367,o),
(233,367,cs),
(99,367,ls),
(91,367,o),
(87,364,o),
(86,358,cs),
(45,140,ls),
(44,133,o),
(46,127,o),
(52,129,cs),
(169,157,o),
(303,153,o),
(303,36,cs),
(303,-30,o),
(264,-77,o),
(203,-77,cs)
);
}
);
width = 467;
}
);
},
{
glyphname = six.dnom;
kernLeft = six.dnom;
kernRight = six.dnom;
lastChange = "2023-03-30 09:40:37 +0000";
layers = (
{
layerId = "6AD408C6-91F3-4F0B-A103-73D10F5280D9";
shapes = (
{
closed = 1;
nodes = (
(127,199,o),
(127,215,o),
(127,229,cs),
(127,370,o),
(170,462,o),
(267,462,cs),
(325,462,o),
(355,418,o),
(363,356,cs),
(364,350,o),
(364,343,o),
(366,341,cs),
(367,340,o),
(369,341,o),
(372,343,cs),
(439,404,ls),
(441,406,o),
(442,410,o),
(442,414,cs),
(442,444,o),
(384,513,o),
(278,513,cs),
(107,513,o),
(20,393,o),
(20,224,cs),
(20,90,o),
(102,-11,o),
(236,-11,cs),
(352,-11,o),
(436,51,o),
(436,158,cs),
(436,260,o),
(363,331,o),
(236,331,cs),
(199,331,o),
(143,325,o),
(108,278,c),
(128,163,l),
(126,213,o),
(147,274,o),
(223,274,cs),
(305,274,o),
(332,199,o),
(332,149,cs),
(332,94,o),
(308,47,o),
(245,47,cs),
(165,47,o),
(130,125,o),
(128,183,cs)
);
}
);
width = 462;
}
);
},
{
glyphname = seven.dnom;
kernLeft = seven.dnom;
kernRight = seven.dnom;
lastChange = "2023-03-30 09:40:38 +0000";
layers = (
{
layerId = "6AD408C6-91F3-4F0B-A103-73D10F5280D9";
shapes = (
{
closed = 1;
nodes = (
(99,361,ls),
(93,361,o),
(89,361,o),
(85,365,cs),
(79,371,o),
(77,371,o),
(74,371,cs),
(71,371,o),
(67,369,o),
(65,365,cs),
(10,283,ls),
(8,281,o),
(8,279,o),
(8,277,cs),
(8,274,o),
(10,270,o),
(14,268,cs),
(37,255,ls),
(39,254,o),
(42,252,o),
(44,252,cs),
(48,252,o),
(51,254,o),
(55,263,cs),
(73,292,o),
(164,295,o),
(202,295,cs),
(353,295,l),
(298,232,o),
(48,31,o),
(48,-75,cs),
(48,-90,o),
(51,-102,o),
(70,-106,cs),
(194,-129,ls),
(199,-130,o),
(202,-127,o),
(202,-122,cs),
(202,-119,o),
(201,-118,o),
(199,-114,cs),
(191,-96,o),
(188,-77,o),
(188,-56,cs),
(188,79,o),
(345,183,o),
(414,291,cs),
(417,295,o),
(418,299,o),
(418,305,cs),
(418,350,ls),
(418,358,o),
(414,361,o),
(407,361,cs)
);
}
);
width = 433;
}
);
},
{
glyphname = eight.dnom;
kernLeft = eight.dnom;
kernRight = eight.dnom;
lastChange = "2023-03-30 09:40:38 +0000";
layers = (
{
layerId = "6AD408C6-91F3-4F0B-A103-73D10F5280D9";
shapes = (
{
closed = 1;
nodes = (
(142,251,l),
(75,230,o),
(23,193,o),
(23,126,cs),
(23,39,o),
(96,-13,o),
(207,-13,cs),
(317,-13,o),
(400,41,o),
(400,126,cs),
(400,214,o),
(340,259,o),
(255,287,cs),
(164,316,o),
(132,347,o),
(132,386,cs),
(132,436,o),
(166,465,o),
(214,465,cs),
(273,465,o),
(300,422,o),
(300,385,cs),
(300,339,o),
(273,296,o),
(207,288,c)
);
},
{
closed = 1;
nodes = (
(281,259,l),
(335,279,o),
(384,329,o),
(384,385,cs),
(384,457,o),
(317,513,o),
(214,513,cs),
(112,513,o),
(35,457,o),
(35,379,cs),
(35,295,o),
(101,247,o),
(160,224,cs),
(228,197,o),
(300,182,o),
(300,117,cs),
(300,65,o),
(273,35,o),
(207,35,cs),
(136,35,o),
(105,81,o),
(105,126,cs),
(105,169,o),
(136,204,o),
(218,220,c)
);
}
);
width = 423;
}
);
},
{
glyphname = nine.dnom;
kernLeft = nine.dnom;
kernRight = nine.dnom;
lastChange = "2023-03-30 09:35:03 +0000";
layers = (
{
layerId = "6AD408C6-91F3-4F0B-A103-73D10F5280D9";
shapes = (
{
closed = 1;
nodes = (
(335,303,o),
(335,287,o),
(335,273,cs),
(335,132,o),
(292,40,o),
(195,40,cs),
(137,40,o),
(107,84,o),
(99,146,cs),
(98,152,o),
(98,159,o),
(96,161,cs),
(95,162,o),
(93,161,o),
(90,159,cs),
(23,98,ls),
(21,96,o),
(20,92,o),
(20,88,cs),
(20,58,o),
(78,-11,o),
(184,-11,cs),
(355,-11,o),
(442,109,o),
(442,278,cs),
(442,412,o),
(360,513,o),
(226,513,cs),
(110,513,o),
(26,451,o),
(26,344,cs),
(26,242,o),
(99,171,o),
(226,171,cs),
(263,171,o),
(319,177,o),
(354,224,c),
(334,339,l),
(336,289,o),
(315,228,o),
(239,228,cs),
(157,228,o),
(130,303,o),
(130,353,cs),
(130,408,o),
(154,455,o),
(217,455,cs),
(297,455,o),
(332,377,o),
(334,319,cs)
);
}
);
width = 462;
}
);
},
{
glyphname = fraction;
kernLeft = fraction;
kernRight = fraction;
lastChange = "2023-03-30 09:40:38 +0000";
layers = (
{
hints = (
{
horizontal = 1;
place = (-11, 21);
target = up;
type = BottomGhost;
}
);
layerId = "6AD408C6-91F3-4F0B-A103-73D10F5280D9";
shapes = (
{
closed = 1;
nodes = (
(97,-11,ls),
(105,-11,o),
(108,-8,o),
(112,-2,cs),
(666,717,ls),
(669,721,o),
(670,724,o),
(670,727,cs),
(670,732,o),
(665,735,o),
(657,735,cs),
(615,735,ls),
(607,735,o),
(602,732,o),
(597,726,cs),
(44,7,ls),
(41,3,o),
(40,1,o),
(40,-2,cs),
(40,-8,o),
(45,-11,o),
(53,-11,cs)
);
}
);
width = 710;
}
);
note = fraction;
unicode = 8260;
},
{
glyphname = zero.dnom.zero;
kernLeft = zero.dnom;
kernRight = zero.dnom;
lastChange = "2023-03-30 09:35:03 +0000";
layers = (
{
layerId = "6AD408C6-91F3-4F0B-A103-73D10F5280D9";
shapes = (
{
ref = zero;
scale = (0.7576,0.7576);
},
{
closed = 1;
nodes = (
(141,41,l),
(192,21,l),
(314,363,l),
(263,382,l)
);
}
);
width = 456;
}
);
},
{
glyphname = zero.numr.zero;
kernLeft = zero.numr;
kernRight = zero.numr;
lastChange = "2023-03-30 09:35:03 +0000";
layers = (
{
layerId = "6AD408C6-91F3-4F0B-A103-73D10F5280D9";
shapes = (
{
pos = (0,395);
ref = zero.dnom;
},
{
closed = 1;
nodes = (
(141,436,l),
(192,416,l),
(314,758,l),
(263,777,l)
);
}
);
width = 456;
}
);
},
{
glyphname = .notdef;
lastChange = "2023-03-30 09:40:38 +0000";
layers = (
{
layerId = "6AD408C6-91F3-4F0B-A103-73D10F5280D9";
shapes = (
{
closed = 1;
nodes = (
(0,15,ls),
(0,7,o),
(7,0,o),
(15,0,cs),
(485,0,ls),
(493,0,o),
(500,7,o),
(500,15,cs),
(500,685,ls),
(500,693,o),
(493,700,o),
(485,700,cs),
(15,700,ls),
(7,700,o),
(0,693,o),
(0,685,cs)
);
},
{
closed = 1;
nodes = (
(265,417,ls),
(258,406,o),
(242,406,o),
(235,417,cs),
(100,620,ls),
(91,634,o),
(99,650,o),
(116,650,cs),
(384,650,ls),
(401,650,o),
(409,634,o),
(400,620,cs)
);
},
{
closed = 1;
nodes = (
(285,342,ls),
(282,346,o),
(282,354,o),
(285,358,cs),
(404,536,ls),
(418,558,o),
(450,547,o),
(450,522,cs),
(450,178,ls),
(450,153,o),
(418,142,o),
(404,164,cs)
);
},
{
closed = 1;
nodes = (
(116,50,ls),
(99,50,o),
(91,66,o),
(100,80,cs),
(235,283,ls),
(242,294,o),
(258,294,o),
(265,283,cs),
(400,80,ls),
(409,66,o),
(401,50,o),
(384,50,cs)
);
},
{
closed = 1;
nodes = (
(50,523,ls),
(50,548,o),
(82,558,o),
(96,536,cs),
(215,358,ls),
(218,354,o),
(218,346,o),
(215,342,cs),
(96,164,ls),
(82,142,o),
(50,153,o),
(50,178,cs)
);
}
);
width = 500;
}
);
note = ".notdef";
},
{
glyphname = period;
kernLeft = period;
kernRight = period;
lastChange = "2023-03-30 09:40:37 +0000";
layers = (
{
hints = (
{
horizontal = 1;
place = (0, 21);
target = up;
type = BottomGhost;
}
);
layerId = "6AD408C6-91F3-4F0B-A103-73D10F5280D9";
shapes = (
{
closed = 1;
nodes = (
(78,117,ls),
(66,105,o),
(60,91,o),
(60,78,cs),
(60,65,o),
(65,52,o),
(78,39,cs),
(118,0,ls),
(131,-13,o),
(143,-19,o),
(156,-19,cs),
(170,-19,o),
(182,-13,o),
(195,0,cs),
(234,39,ls),
(248,53,o),
(253,65,o),
(253,78,cs),
(253,91,o),
(248,103,o),
(234,117,cs),
(195,156,ls),
(181,170,o),
(170,175,o),
(156,175,cs),
(143,175,o),
(131,169,o),
(118,156,cs)
);
}
);
width = 313;
}
);
note = period;
unicode = 46;
},
{
glyphname = comma;
kernLeft = period;
kernRight = period;
lastChange = "2023-03-30 09:40:38 +0000";
layers = (
{
layerId = "6AD408C6-91F3-4F0B-A103-73D10F5280D9";
shapes = (
{
closed = 1;
nodes = (
(196,156,ls),
(183,169,o),
(170,175,o),
(157,175,cs),
(144,175,o),
(131,169,o),
(118,156,cs),
(79,117,ls),
(66,104,o),
(60,91,o),
(60,78,cs),
(60,65,o),
(66,52,o),
(79,39,cs),
(118,0,ls),
(124,-6,o),
(126,-13,o),
(126,-22,cs),
(126,-54,o),
(95,-102,o),
(47,-139,c),
(76,-152,o),
(82,-154,o),
(87,-154,cs),
(110,-154,o),
(236,-47,o),
(253,32,cs),
(255,43,o),
(256,53,o),
(256,62,cs),
(256,88,o),
(247,105,o),
(235,117,cs)
);
}
);
width = 316;
}
);
note = comma;
unicode = 44;
},
{
glyphname = exclam;
kernLeft = exclam;
kernRight = exclam;
lastChange = "2023-03-30 09:40:37 +0000";
layers = (
{
hints = (
{
horizontal = 1;
place = (0, 21);
target = up;
type = BottomGhost;
},
{
horizontal = 1;
place = (755.59, -20);
target = down;
type = TopGhost;
}
);
layerId = "6AD408C6-91F3-4F0B-A103-73D10F5280D9";
shapes = (
{
closed = 1;
nodes = (
(78,716,ls),
(66,704,o),
(60,691,o),
(60,678,cs),
(60,626,o),
(99,488,o),
(107,350,cs),
(112,260,o),
(112,252,o),
(112,243,cs),
(112,235,o),
(117,231,o),
(125,231,cs),
(188,231,ls),
(196,231,o),
(201,235,o),
(201,243,cs),
(201,252,o),
(201,260,o),
(206,350,cs),
(214,486,o),
(253,626,o),
(253,679,cs),
(253,691,o),
(246,703,o),
(234,716,cs),
(195,756,ls),
(183,768,o),
(170,775,o),
(156,775,cs),
(143,775,o),
(130,768,o),
(118,756,cs)
);
},
{
ref = period;
}
);
width = 373;
}
);
note = exclam;
unicode = 33;
},
{
glyphname = question;
kernLeft = question;
kernRight = question;
lastChange = "2023-03-30 09:40:37 +0000";
layers = (
{
hints = (
{
horizontal = 1;
place = (0.12, 21);
target = up;
type = BottomGhost;
}
);
layerId = "6AD408C6-91F3-4F0B-A103-73D10F5280D9";
shapes = (
{
closed = 1;
nodes = (
(161,527,ls),
(167,529,o),
(171,530,o),
(171,536,cs),
(171,539,o),
(170,543,o),
(168,547,cs),
(155,572,o),
(149,594,o),
(149,613,cs),
(149,660,o),
(181,690,o),
(236,690,cs),
(290,690,o),
(331,653,o),
(331,584,cs),
(331,411,o),
(144,434,o),
(144,290,cs),
(144,268,o),
(144,249,o),
(145,240,cs),
(146,232,o),
(154,231,o),
(162,231,cs),
(225,231,ls),
(233,231,o),
(237,235,o),
(238,243,cs),
(239,252,o),
(239,264,o),
(239,290,cs),
(239,388,o),
(480,378,o),
(480,593,cs),
(480,675,o),
(408,775,o),
(232,775,cs),
(116,775,o),
(20,705,o),
(20,595,cs),
(20,559,o),
(33,528,o),
(49,507,cs),
(56,498,o),
(61,495,o),
(76,500,cs)
);
},
{
pos = (37,0);
ref = period;
}
);
width = 540;
},
{
associatedMasterId = "6AD408C6-91F3-4F0B-A103-73D10F5280D9";
hints = (
{
horizontal = 1;
place = (0.12, 21);
target = up;
type = BottomGhost;
},
{
horizontal = 1;
place = (745.43, 54.84);
place = (745.43, 54.84);
type = Stem;
},
{
place = (24.24, 128.89);
place = (24.24, 128.89);
type = Stem;
},
{
place = (285.45, 143.36);
place = (285.45, 143.36);
type = Stem;
},
{
place = (128.12, 94.88);
place = (128.12, 94.88);
type = Stem;
},
{
place = (99.48, 155.98);
place = (99.48, 155.98);
type = Stem;
},
{
horizontal = 1;
place = (0.12, 174.97);
place = (0.12, 174.97);
type = Stem;
}
);
layerId = "58432C2B-C30F-4BED-A724-AA708BC8D23A";
name = "24 mars 23 à 12:48";
shapes = (
{
closed = 1;
nodes = (
(165,602,ls),
(171,601,o),
(175,605,o),
(175,611,cs),
(175,614,o),
(174,618,o),
(172,622,cs),
(159,647,o),
(153,669,o),
(153,688,cs),
(153,725,o),
(185,745,o),
(210,745,cs),
(244,745,o),
(285,728,o),
(285,649,cs),
(285,516,o),
(120,519,o),
(128,350,cs),
(131,290,o),
(133,282,o),
(133,273,cs),
(133,265,o),
(138,261,o),
(146,261,cs),
(209,261,ls),
(217,261,o),
(222,265,o),
(222,273,cs),
(222,282,o),
(223,290,o),
(223,350,cs),
(223,513,o),
(429,473,o),
(429,648,cs),
(429,730,o),
(362,800,o),
(206,800,cs),
(100,800,o),
(24,754,o),
(24,694,cs),
(24,678,o),
(28,662,o),
(35,644,cs),
(39,634,o),
(45,628,o),
(60,625,cs)
);
},
{
pos = (20,0);
ref = period;
}
);
width = 529;
}
);
note = question;
unicode = 63;
},
{
glyphname = asterisk;
lastChange = "2023-03-30 09:40:37 +0000";
layers = (
{
hints = (
{
horizontal = 1;
place = (762.7, -20);
target = down;
type = TopGhost;
}
);
layerId = "6AD408C6-91F3-4F0B-A103-73D10F5280D9";
shapes = (
{
closed = 1;
nodes = (
(423,500,ls),
(392,512,o),
(367,518,o),
(348,525,c),
(367,533,o),
(392,539,o),
(423,551,cs),
(513,586,ls),
(519,588,o),
(522,592,o),
(522,597,cs),
(522,600,o),
(521,603,o),
(519,606,cs),
(476,682,ls),
(473,688,o),
(468,690,o),
(463,690,cs),
(461,690,o),
(458,689,o),
(455,687,cs),
(380,626,ls),
(354,605,o),
(336,587,o),
(320,574,c),
(323,594,o),
(330,619,o),
(335,652,cs),
(350,748,ls),
(351,757,o),
(345,763,o),
(335,763,cs),
(248,763,ls),
(238,763,o),
(232,757,o),
(233,748,cs),
(248,652,ls),
(253,619,o),
(260,594,o),
(264,574,c),
(248,587,o),
(230,605,o),
(204,626,cs),
(128,687,ls),
(126,689,o),
(123,690,o),
(120,690,cs),
(115,690,o),
(111,687,o),
(108,682,cs),
(64,606,ls),
(62,603,o),
(61,600,o),
(61,597,cs),
(61,592,o),
(64,588,o),
(70,586,cs),
(161,551,ls),
(192,539,o),
(216,533,o),
(236,525,c),
(216,518,o),
(192,512,o),
(161,500,cs),
(70,465,ls),
(64,463,o),
(60,460,o),
(60,455,cs),
(60,453,o),
(61,449,o),
(64,444,cs),
(108,369,ls),
(111,364,o),
(114,359,o),
(119,359,cs),
(123,359,o),
(126,361,o),
(128,363,cs),
(204,424,ls),
(230,445,o),
(248,464,o),
(264,477,c),
(260,456,o),
(253,432,o),
(248,399,cs),
(233,303,ls),
(231,293,o),
(239,288,o),
(248,288,cs),
(335,288,ls),
(344,288,o),
(352,292,o),
(350,303,cs),
(335,399,ls),
(330,432,o),
(323,456,o),
(320,477,c),
(336,464,o),
(353,446,o),
(380,424,cs),
(455,363,ls),
(458,361,o),
(461,360,o),
(463,360,cs),
(468,360,o),
(472,363,o),
(476,369,cs),
(519,444,ls),
(521,447,o),
(522,450,o),
(522,453,cs),
(522,458,o),
(519,462,o),
(513,464,cs)
);
}
);
width = 582;
},
{
associatedMasterId = "6AD408C6-91F3-4F0B-A103-73D10F5280D9";
hints = (
{
horizontal = 1;
place = (762.7, -20);
target = down;
type = TopGhost;
},
{
place = (74.63, 460.11);
place = (74.63, 460.11);
type = Stem;
},
{
place = (276.73, 55.91);
place = (276.73, 55.91);
type = Stem;
}
);
layerId = "0761BE54-FF95-4FE0-AC7D-BE75A750D9D1";
name = "24 mars 23 à 12:57";
shapes = (
{
closed = 1;
nodes = (
(436,500,l),
(404,510,o),
(380,518,o),
(361,525,c),
(380,533,o),
(404,541,o),
(436,551,c),
(526,586,ls),
(532,588,o),
(535,592,o),
(535,597,cs),
(535,600,o),
(534,603,o),
(532,606,cs),
(489,682,ls),
(485,687,o),
(481,690,o),
(476,690,cs),
(474,690,o),
(471,689,o),
(468,687,cs),
(393,626,l),
(367,604,o),
(349,587,o),
(333,574,c),
(336,594,o),
(341,619,o),
(348,652,c),
(363,748,ls),
(365,757,o),
(358,763,o),
(348,763,cs),
(261,763,ls),
(253,763,o),
(246,758,o),
(246,750,c),
(246,748,l),
(261,652,l),
(268,619,o),
(273,594,o),
(277,574,c),
(261,587,o),
(242,604,o),
(217,626,c),
(141,687,ls),
(139,689,o),
(136,690,o),
(133,690,cs),
(128,690,o),
(124,687,o),
(121,682,cs),
(77,606,ls),
(76,603,o),
(75,600,o),
(75,597,cs),
(75,592,o),
(77,588,o),
(83,586,cs),
(174,551,l),
(206,541,o),
(229,533,o),
(249,525,c),
(229,518,o),
(206,510,o),
(174,500,c),
(83,465,ls),
(77,462,o),
(75,458,o),
(75,453,cs),
(75,451,o),
(76,447,o),
(77,444,cs),
(121,369,ls),
(124,364,o),
(128,360,o),
(133,360,cs),
(136,360,o),
(139,361,o),
(141,363,c),
(217,424,l),
(242,447,o),
(261,464,o),
(277,477,c),
(273,456,o),
(268,432,o),
(261,399,c),
(246,303,ls),
(245,293,o),
(252,288,o),
(261,288,cs),
(348,288,ls),
(357,288,o),
(363,292,o),
(363,300,c),
(363,303,l),
(348,399,l),
(341,432,o),
(336,456,o),
(333,477,c),
(349,464,o),
(367,447,o),
(393,424,c),
(468,363,ls),
(471,361,o),
(474,360,o),
(476,360,cs),
(481,360,o),
(485,363,o),
(489,369,cs),
(532,444,ls),
(534,447,o),
(535,450,o),
(535,453,cs),
(535,458,o),
(532,462,o),
(526,464,cs)
);
}
);
width = 600;
}
);
note = asterisk;
unicode = 42;
},
{
glyphname = numbersign;
lastChange = "2023-03-30 09:40:37 +0000";
layers = (
{
layerId = "6AD408C6-91F3-4F0B-A103-73D10F5280D9";
shapes = (
{
closed = 1;
nodes = (
(641,683,o),
(634,687,o),
(625,687,cs),
(557,687,ls),
(548,687,o),
(543,683,o),
(541,674,cs),
(501,513,l),
(360,513,l),
(400,676,ls),
(402,683,o),
(395,687,o),
(386,687,cs),
(318,687,ls),
(309,687,o),
(304,683,o),
(302,674,cs),
(262,513,l),
(123,513,ls),
(114,513,o),
(109,509,o),
(107,500,cs),
(92,439,ls),
(90,432,o),
(97,427,o),
(106,427,cs),
(240,427,l),
(193,239,l),
(55,239,ls),
(46,239,o),
(40,235,o),
(38,226,cs),
(23,164,ls),
(22,157,o),
(28,153,o),
(37,153,cs),
(172,153,l),
(137,12,ls),
(135,4,o),
(142,0,o),
(151,0,cs),
(219,0,ls),
(228,0,o),
(233,4,o),
(235,13,cs),
(270,153,l),
(411,153,l),
(376,12,ls),
(374,4,o),
(381,0,o),
(390,0,cs),
(458,0,ls),
(467,0,o),
(472,4,o),
(474,13,cs),
(509,153,l),
(638,153,ls),
(647,153,o),
(652,157,o),
(654,166,cs),
(669,227,ls),
(671,234,o),
(664,239,o),
(655,239,cs),
(531,239,l),
(578,427,l),
(706,427,ls),
(715,427,o),
(720,432,o),
(723,440,c),
(737,502,ls),
(739,509,o),
(732,513,o),
(724,513,cs),
(599,513,l),
(639,676,ls)
);
},
{
closed = 1;
nodes = (
(479,427,l),
(432,239,l),
(292,239,l),
(339,427,l)
);
}
);
width = 760;
}
);
note = numbersign;
unicode = 35;
},
{
glyphname = slash;
lastChange = "2023-03-30 09:40:37 +0000";
layers = (
{
layerId = "6AD408C6-91F3-4F0B-A103-73D10F5280D9";
shapes = (
{
closed = 1;
nodes = (
(49,-119,ls),
(45,-130,o),
(50,-136,o),
(61,-136,cs),
(143,-136,ls),
(151,-136,o),
(157,-133,o),
(160,-124,cs),
(480,765,ls),
(484,776,o),
(479,782,o),
(468,782,cs),
(386,782,ls),
(377,782,o),
(372,779,o),
(369,770,cs)
);
}
);
width = 500;
}
);
note = slash;
unicode = 47;
},
{
glyphname = backslash;
lastChange = "2023-03-30 09:40:37 +0000";
layers = (
{
layerId = "6AD408C6-91F3-4F0B-A103-73D10F5280D9";
shapes = (
{
closed = 1;
nodes = (
(136,779,o),
(130,782,o),
(122,782,cs),
(40,782,ls),
(29,782,o),
(24,776,o),
(28,765,cs),
(348,-124,ls),
(351,-133,o),
(356,-136,o),
(365,-136,cs),
(447,-136,ls),
(458,-136,o),
(463,-130,o),
(459,-119,cs),
(139,770,ls)
);
}
);
width = 500;
}
);
note = backslash;
unicode = 92;
},
{
glyphname = hyphen;
lastChange = "2023-03-30 09:40:37 +0000";
layers = (
{
layerId = "6AD408C6-91F3-4F0B-A103-73D10F5280D9";
shapes = (
{
closed = 1;
nodes = (
(63,231,ls),
(63,221,o),
(68,216,o),
(78,216,cs),
(433,216,ls),
(443,216,o),
(448,221,o),
(448,231,cs),
(448,297,ls),
(448,307,o),
(443,312,o),
(433,312,cs),
(78,312,ls),
(68,312,o),
(63,307,o),
(63,297,cs)
);
}
);
width = 511;
},
{
associatedMasterId = "6AD408C6-91F3-4F0B-A103-73D10F5280D9";
hints = (
{
horizontal = 1;
place = (205.7, 116.64);
place = (205.7, 116.64);
type = Stem;
},
{
place = (22.61, 474.78);
place = (22.61, 474.78);
type = Stem;
}
);
layerId = "46F43548-7DE5-48B2-84CD-8B65145B4C6A";
name = "27 mars 23 à 14:19";
shapes = (
{
closed = 1;
nodes = (
(23,221,ls),
(23,211,o),
(28,206,o),
(38,206,cs),
(483,206,ls),
(493,206,o),
(498,211,o),
(498,221,cs),
(498,307,ls),
(498,317,o),
(493,322,o),
(483,322,cs),
(38,322,ls),
(28,322,o),
(23,317,o),
(23,307,cs)
);
}
);
width = 521;
}
);
note = hyphen;
unicode = 45;
},
{
glyphname = endash;
lastChange = "2023-03-30 09:40:37 +0000";
layers = (
{
layerId = "6AD408C6-91F3-4F0B-A103-73D10F5280D9";
shapes = (
{
closed = 1;
nodes = (
(63,231,ls),
(63,221,o),
(68,216,o),
(78,216,cs),
(471,216,ls),
(481,216,o),
(486,221,o),
(486,231,cs),
(486,297,ls),
(486,307,o),
(481,312,o),
(471,312,cs),
(78,312,ls),
(68,312,o),
(63,307,o),
(63,297,cs)
);
}
);
width = 549;
}
);
note = endash;
unicode = 8211;
},
{
glyphname = emdash;
lastChange = "2023-03-30 09:40:38 +0000";
layers = (
{
layerId = "6AD408C6-91F3-4F0B-A103-73D10F5280D9";
shapes = (
{
closed = 1;
nodes = (
(63,231,ls),
(63,221,o),
(68,216,o),
(78,216,cs),
(673,216,ls),
(683,216,o),
(688,221,o),
(688,231,cs),
(688,297,ls),
(688,307,o),
(683,312,o),
(673,312,cs),
(78,312,ls),
(68,312,o),
(63,307,o),
(63,297,cs)
);
}
);
width = 751;
}
);
note = emdash;
unicode = 8212;
},
{
glyphname = horizontalbar;
lastChange = "2023-03-30 09:40:37 +0000";
layers = (
{
layerId = "6AD408C6-91F3-4F0B-A103-73D10F5280D9";
shapes = (
{
closed = 1;
nodes = (
(-20,231,ls),
(-20,221,o),
(-15,216,o),
(-5,216,cs),
(750,216,ls),
(760,216,o),
(765,221,o),
(765,231,cs),
(765,297,ls),
(765,307,o),
(760,312,o),
(750,312,cs),
(-5,312,ls),
(-15,312,o),
(-20,307,o),
(-20,297,cs)
);
}
);
width = 745;
}
);
unicode = 8213;
},
{
glyphname = underscore;
lastChange = "2023-03-30 09:40:37 +0000";
layers = (
{
layerId = "6AD408C6-91F3-4F0B-A103-73D10F5280D9";
shapes = (
{
closed = 1;
nodes = (
(20,-105,ls),
(20,-115,o),
(25,-120,o),
(35,-120,cs),
(563,-120,ls),
(573,-120,o),
(578,-115,o),
(578,-105,cs),
(578,-39,ls),
(578,-29,o),
(573,-24,o),
(563,-24,cs),
(35,-24,ls),
(25,-24,o),
(20,-29,o),
(20,-39,cs)
);
}
);
width = 598;
}
);
note = underscore;
unicode = 95;
},
{
glyphname = parenleft;
kernRight = parenleft;
lastChange = "2023-03-30 09:40:38 +0000";
layers = (
{
layerId = "6AD408C6-91F3-4F0B-A103-73D10F5280D9";
shapes = (
{
closed = 1;
nodes = (
(383,-80,o),
(384,-77,o),
(384,-75,cs),
(384,-70,o),
(382,-67,o),
(377,-63,cs),
(290,6,o),
(208,181,o),
(208,332,cs),
(208,482,o),
(290,657,o),
(377,726,cs),
(382,730,o),
(384,733,o),
(384,738,cs),
(384,740,o),
(383,744,o),
(381,747,cs),
(362,774,ls),
(359,779,o),
(355,782,o),
(350,782,cs),
(347,782,o),
(346,782,o),
(342,780,cs),
(181,696,o),
(80,508,o),
(80,332,cs),
(80,155,o),
(183,-31,o),
(343,-114,cs),
(346,-116,o),
(349,-117,o),
(352,-117,cs),
(356,-117,o),
(360,-114,o),
(364,-109,cs),
(381,-83,ls)
);
}
);
width = 454;
}
);
note = parenleft;
unicode = 40;
},
{
glyphname = braceleft;
lastChange = "2023-03-30 09:40:38 +0000";
layers = (
{
layerId = "6AD408C6-91F3-4F0B-A103-73D10F5280D9";
shapes = (
{
closed = 1;
nodes = (
(90,309,o),
(95,304,o),
(105,304,cs),
(168,301,o),
(226,283,o),
(226,213,cs),
(226,164,o),
(183,111,o),
(183,26,cs),
(183,-106,o),
(327,-131,o),
(360,-131,cs),
(365,-131,o),
(366,-130,o),
(366,-126,cs),
(366,-104,ls),
(366,-98,o),
(363,-96,o),
(357,-94,cs),
(296,-72,o),
(276,-54,o),
(276,-23,cs),
(276,38,o),
(357,109,o),
(357,183,cs),
(357,283,o),
(287,315,o),
(201,336,c),
(287,357,o),
(357,389,o),
(357,489,cs),
(357,563,o),
(276,634,o),
(276,695,cs),
(276,726,o),
(296,744,o),
(357,766,cs),
(363,768,o),
(366,770,o),
(366,776,cs),
(366,798,ls),
(366,802,o),
(365,803,o),
(360,803,cs),
(327,803,o),
(183,778,o),
(183,646,cs),
(183,561,o),
(226,508,o),
(226,459,cs),
(226,389,o),
(168,371,o),
(105,368,cs),
(95,368,o),
(90,362,o),
(90,353,cs),
(90,319,ls)
);
}
);
width = 456;
}
);
note = braceleft;
unicode = 123;
},
{
glyphname = bracketleft;
kernRight = bracketleft;
lastChange = "2023-03-30 09:40:38 +0000";
layers = (
{
layerId = "6AD408C6-91F3-4F0B-A103-73D10F5280D9";
shapes = (
{
closed = 1;
nodes = (
(197,-53,l),
(197,762,l),
(312,762,ls),
(322,762,o),
(327,767,o),
(327,777,cs),
(327,824,ls),
(327,833,o),
(322,839,o),
(312,839,cs),
(95,839,ls),
(85,839,o),
(80,833,o),
(80,824,cs),
(80,-115,ls),
(80,-125,o),
(85,-130,o),
(95,-130,cs),
(312,-130,ls),
(322,-130,o),
(327,-125,o),
(327,-115,cs),
(327,-68,ls),
(327,-59,o),
(322,-53,o),
(312,-53,cs)
);
}
);
width = 397;
}
);
note = bracketleft;
unicode = 91;
},
{
glyphname = guilsinglleft;
kernLeft = guilsinglleft;
kernRight = guilsinglleft;
lastChange = "2023-03-30 09:40:37 +0000";
layers = (
{
layerId = "6AD408C6-91F3-4F0B-A103-73D10F5280D9";
shapes = (
{
closed = 1;
nodes = (
(80,314,o),
(82,311,o),
(85,307,c),
(279,107,ls),
(283,103,o),
(285,102,o),
(290,102,cs),
(294,102,o),
(297,104,o),
(300,107,cs),
(327,132,ls),
(332,137,o),
(333,140,o),
(333,143,cs),
(333,146,o),
(331,149,o),
(328,153,cs),
(200,318,l),
(328,483,ls),
(331,487,o),
(333,490,o),
(333,493,cs),
(333,496,o),
(332,499,o),
(327,504,cs),
(300,529,ls),
(297,532,o),
(294,534,o),
(290,534,cs),
(285,534,o),
(283,533,o),
(279,529,cs),
(85,329,l),
(82,325,o),
(80,322,o),
(80,318,cs)
);
}
);
width = 403;
}
);
note = guilsinglleft;
unicode = 8249;
},
{
glyphname = quotesingle;
lastChange = "2023-03-30 09:40:37 +0000";
layers = (
{
layerId = "6AD408C6-91F3-4F0B-A103-73D10F5280D9";
shapes = (
{
closed = 1;
nodes = (
(55,780,ls),
(45,780,o),
(39,775,o),
(40,764,cs),
(64,537,ls),
(65,527,o),
(70,522,o),
(80,522,cs),
(124,522,ls),
(134,522,o),
(139,527,o),
(140,537,cs),
(164,764,ls),
(165,775,o),
(159,780,o),
(149,780,cs)
);
}
);
width = 214;
}
);
note = quotesingle;
unicode = 39;
},
{
glyphname = florin;
lastChange = "2023-03-30 09:40:37 +0000";
layers = (
{
layerId = "6AD408C6-91F3-4F0B-A103-73D10F5280D9";
shapes = (
{
closed = 1;
nodes = (
(165,500,l),
(91,500,ls),
(81,500,o),
(76,495,o),
(76,485,cs),
(76,455,ls),
(76,445,o),
(81,440,o),
(91,440,cs),
(163,440,o),
(164,380,o),
(164,326,cs),
(164,-185,ls),
(164,-195,o),
(169,-200,o),
(179,-200,cs),
(284,-200,ls),
(293,-200,o),
(299,-195,o),
(299,-185,cs),
(299,427,l),
(433,427,ls),
(442,427,o),
(448,432,o),
(448,442,cs),
(448,485,ls),
(448,495,o),
(442,500,o),
(433,500,cs),
(299,500,l),
(299,566,ls),
(299,642,o),
(306,693,o),
(331,723,cs),
(343,738,o),
(358,745,o),
(373,745,cs),
(397,745,o),
(420,725,o),
(420,688,cs),
(420,669,o),
(414,648,o),
(401,622,cs),
(399,618,o),
(398,614,o),
(398,611,cs),
(398,606,o),
(400,602,o),
(404,602,cs),
(409,602,o),
(477,617,o),
(513,625,cs),
(528,628,o),
(534,634,o),
(538,644,cs),
(545,661,o),
(548,678,o),
(548,694,cs),
(548,754,o),
(497,800,o),
(391,800,cs),
(216,800,o),
(165,627,o),
(165,508,cs)
);
}
);
width = 600;
}
);
note = florin;
unicode = 402;
},
{
glyphname = at;
lastChange = "2023-03-30 09:40:37 +0000";
layers = (
{
layerId = "6AD408C6-91F3-4F0B-A103-73D10F5280D9";
shapes = (
{
closed = 1;
nodes = (
(625,-161,ls),
(623,-153,o),
(615,-149,o),
(607,-150,cs),
(581,-156,o),
(554,-159,o),
(526,-159,cs),
(310,-159,o),
(136,15,o),
(136,231,cs),
(136,446,o),
(310,621,o),
(526,621,cs),
(761,621,o),
(906,447,o),
(906,231,cs),
(906,146,o),
(869,85,o),
(798,85,cs),
(751,85,o),
(741,133,o),
(741,180,cs),
(741,495,ls),
(741,497,o),
(741,498,o),
(740,498,cs),
(739,498,ls),
(738,498,o),
(737,498,o),
(733,495,cs),
(713,480,o),
(691,463,o),
(637,441,c),
(597,478,o),
(543,497,o),
(480,497,cs),
(362,497,o),
(253,423,o),
(253,243,cs),
(253,56,o),
(381,-13,o),
(468,-13,cs),
(568,-13,o),
(606,51,o),
(616,77,c),
(606,-3,ls),
(605,-11,o),
(605,-13,o),
(607,-13,cs),
(610,-13,ls),
(613,-13,o),
(615,-12,o),
(617,-11,cs),
(661,9,o),
(701,26,o),
(799,26,cs),
(927,26,o),
(982,135,o),
(982,231,cs),
(982,488,o),
(803,697,o),
(526,697,cs),
(269,697,o),
(60,488,o),
(60,231,cs),
(60,-26,o),
(269,-235,o),
(526,-235,cs),
(560,-235,o),
(594,-231,o),
(626,-224,cs),
(635,-222,o),
(640,-213,o),
(638,-205,cs)
);
},
{
closed = 1;
nodes = (
(606,137,l),
(597,109,o),
(565,73,o),
(512,73,cs),
(433,73,o),
(378,150,o),
(378,275,cs),
(378,355,o),
(403,433,o),
(497,433,cs),
(574,433,o),
(598,371,o),
(606,332,c)
);
}
);
width = 1042;
}
);
note = at;
unicode = 64;
},
{
glyphname = ampersand;
lastChange = "2023-03-30 09:40:37 +0000";
layers = (
{
layerId = "6AD408C6-91F3-4F0B-A103-73D10F5280D9";
shapes = (
{
closed = 1;
nodes = (
(500,500,ls),
(490,500,o),
(485,495,o),
(485,485,cs),
(485,455,ls),
(485,445,o),
(490,440,o),
(500,440,cs),
(516,440,ls),
(550,440,o),
(575,416,o),
(575,382,cs),
(575,355,o),
(556,292,o),
(519,230,c),
(274,513,ls),
(243,548,o),
(227,587,o),
(227,620,cs),
(227,668,o),
(261,705,o),
(334,705,cs),
(384,705,o),
(399,675,o),
(399,643,cs),
(399,622,o),
(395,607,o),
(378,584,cs),
(375,580,o),
(373,576,o),
(373,572,cs),
(373,565,o),
(378,562,o),
(385,564,cs),
(489,589,ls),
(504,593,o),
(510,597,o),
(515,608,cs),
(521,625,o),
(525,641,o),
(525,656,cs),
(525,714,o),
(454,762,o),
(334,762,cs),
(182,762,o),
(107,674,o),
(107,578,cs),
(107,533,o),
(124,487,o),
(158,448,cs),
(214,383,l),
(106,356,o),
(20,299,o),
(20,186,cs),
(20,36,o),
(157,-13,o),
(280,-13,cs),
(365,-13,o),
(432,16,o),
(488,69,c),
(546,12,o),
(618,0,o),
(705,0,cs),
(726,0,o),
(747,2,o),
(766,5,cs),
(774,6,o),
(780,9,o),
(779,19,cs),
(776,51,ls),
(775,60,o),
(770,65,o),
(763,65,cs),
(758,65,o),
(742,63,o),
(734,63,cs),
(675,63,o),
(647,83,o),
(613,122,cs),
(569,172,l),
(601,223,o),
(629,282,o),
(655,345,cs),
(676,394,o),
(719,440,o),
(771,440,cs),
(778,440,ls),
(788,440,o),
(793,445,o),
(793,455,cs),
(793,485,ls),
(793,495,o),
(788,500,o),
(778,500,cs)
);
},
{
closed = 1;
nodes = (
(436,128,l),
(397,95,o),
(350,72,o),
(296,72,cs),
(230,72,o),
(165,106,o),
(165,193,cs),
(165,261,o),
(213,304,o),
(264,326,c)
);
}
);
width = 813;
}
);
note = ampersand;
unicode = 38;
},
{
glyphname = paragraph;
lastChange = "2023-03-30 09:40:37 +0000";
layers = (
{
layerId = "6AD408C6-91F3-4F0B-A103-73D10F5280D9";
shapes = (
{
closed = 1;
nodes = (
(248,700,ls),
(119,700,o),
(53,617,o),
(53,538,cs),
(53,454,o),
(115,383,o),
(204,383,cs),
(237,383,l),
(237,-115,ls),
(237,-125,o),
(242,-130,o),
(252,-130,cs),
(302,-130,ls),
(312,-130,o),
(317,-125,o),
(317,-115,cs),
(317,640,l),
(383,640,l),
(383,-115,ls),
(383,-125,o),
(388,-130,o),
(398,-130,cs),
(447,-130,ls),
(457,-130,o),
(462,-125,o),
(462,-115,cs),
(462,545,ls),
(462,598,o),
(479,640,o),
(530,640,cs),
(536,640,ls),
(546,640,o),
(551,645,o),
(551,655,cs),
(551,685,ls),
(551,695,o),
(546,700,o),
(536,700,cs)
);
}
);
width = 600;
}
);
note = paragraph;
unicode = 182;
},
{
glyphname = section;
lastChange = "2023-03-30 09:40:38 +0000";
layers = (
{
anchors = (
{
name = bottom;
pos = (457,80);
},
{
name = top;
pos = (399,830);
}
);
hints = (
{
horizontal = 1;
place = (835.82, -20);
target = down;
type = TopGhost;
},
{
horizontal = 1;
place = (68, 21);
target = up;
type = BottomGhost;
}
);
layerId = "6AD408C6-91F3-4F0B-A103-73D10F5280D9";
shapes = (
{
closed = 1;
nodes = (
(683,611,ls),
(691,615,o),
(694,620,o),
(694,626,cs),
(694,630,o),
(692,635,o),
(690,640,cs),
(620,819,ls),
(615,831,o),
(608,836,o),
(595,836,cs),
(559,836,ls),
(547,836,o),
(541,831,o),
(541,821,cs),
(541,801,o),
(553,782,o),
(540,782,cs),
(527,782,o),
(465,830,o),
(363,830,cs),
(208,830,o),
(110,761,o),
(110,649,cs),
(110,598,o),
(125,538,o),
(201,484,c),
(143,453,o),
(110,403,o),
(110,338,cs),
(110,260,o),
(145,163,o),
(375,95,cs),
(482,63,o),
(588,48,o),
(588,-55,cs),
(588,-115,o),
(540,-159,o),
(453,-159,cs),
(338,-159,o),
(224,-94,o),
(134,44,cs),
(129,52,o),
(124,56,o),
(117,56,cs),
(113,56,o),
(109,54,o),
(105,52,cs),
(61,27,ls),
(54,23,o),
(50,17,o),
(50,10,cs),
(50,7,o),
(52,2,o),
(54,-2,cs),
(175,-229,ls),
(180,-239,o),
(188,-243,o),
(200,-243,cs),
(250,-243,ls),
(262,-243,o),
(267,-240,o),
(267,-232,cs),
(267,-228,o),
(266,-225,o),
(264,-220,cs),
(260,-207,o),
(263,-199,o),
(271,-199,cs),
(275,-199,o),
(280,-200,o),
(286,-203,cs),
(335,-227,o),
(389,-239,o),
(447,-239,cs),
(631,-239,o),
(738,-142,o),
(738,-10,cs),
(738,55,o),
(708,102,o),
(662,137,c),
(711,178,o),
(738,235,o),
(738,301,cs),
(738,451,o),
(579,502,o),
(426,547,cs),
(349,569,o),
(269,602,o),
(269,664,cs),
(269,734,o),
(326,750,o),
(376,750,cs),
(444,750,o),
(535,707,o),
(620,601,cs),
(625,594,o),
(631,589,o),
(637,589,cs),
(641,589,o),
(645,591,o),
(649,593,cs)
);
},
{
closed = 1;
nodes = (
(269,393,o),
(287,415,o),
(312,427,c),
(331,420,o),
(352,413,o),
(375,406,cs),
(482,374,o),
(588,359,o),
(588,256,cs),
(588,231,o),
(579,208,o),
(563,191,c),
(520,208,o),
(473,222,o),
(426,236,cs),
(349,258,o),
(269,291,o),
(269,353,cs)
);
}
);
width = 788;
}
);
note = section;
unicode = 167;
},
{
glyphname = copyright;
lastChange = "2023-03-30 09:40:38 +0000";
layers = (
{
layerId = "6AD408C6-91F3-4F0B-A103-73D10F5280D9";
shapes = (
{
closed = 1;
nodes = (
(603,-8,o),
(773,162,o),
(773,371,cs),
(773,580,o),
(603,750,o),
(394,750,cs),
(184,750,o),
(15,580,o),
(15,371,cs),
(15,162,o),
(184,-8,o),
(394,-8,cs)
);
},
{
closed = 1;
nodes = (
(223,62,o),
(85,200,o),
(85,371,cs),
(85,541,o),
(223,680,o),
(394,680,cs),
(564,680,o),
(703,541,o),
(703,371,cs),
(703,200,o),
(564,62,o),
(394,62,cs)
);
},
{
pos = (186,192);
ref = c;
scale = (0.7513,0.7513);
}
);
width = 788;
}
);
note = copyright;
unicode = 169;
},
{
glyphname = registered;
lastChange = "2023-03-30 09:40:37 +0000";
layers = (
{
layerId = "6AD408C6-91F3-4F0B-A103-73D10F5280D9";
shapes = (
{
closed = 1;
nodes = (
(185,750,o),
(15,580,o),
(15,371,cs),
(15,162,o),
(185,-8,o),
(394,-8,cs),
(603,-8,o),
(773,162,o),
(773,371,cs),
(773,580,o),
(603,750,o),
(394,750,cs)
);
},
{
closed = 1;
nodes = (
(224,62,o),
(85,200,o),
(85,371,cs),
(85,541,o),
(224,680,o),
(394,680,cs),
(565,680,o),
(703,541,o),
(703,371,cs),
(703,200,o),
(565,62,o),
(394,62,cs)
);
},
{
closed = 1;
nodes = (
(596,225,ls),
(570,225,o),
(558,243,o),
(546,266,cs),
(492,368,l),
(537,389,o),
(551,427,o),
(551,463,cs),
(551,522,o),
(507,572,o),
(424,572,cs),
(220,572,ls),
(215,572,o),
(213,569,o),
(213,564,cs),
(213,542,ls),
(213,537,o),
(215,534,o),
(220,534,cs),
(227,534,ls),
(250,534,o),
(258,511,o),
(258,492,cs),
(258,266,ls),
(258,240,o),
(250,225,o),
(224,225,cs),
(220,225,ls),
(215,225,o),
(212,222,o),
(212,217,cs),
(212,194,ls),
(212,189,o),
(215,187,o),
(220,187,cs),
(383,187,ls),
(388,187,o),
(390,189,o),
(390,194,cs),
(390,217,ls),
(390,222,o),
(388,225,o),
(383,225,cs),
(379,225,ls),
(353,225,o),
(345,240,o),
(345,266,cs),
(345,350,l),
(412,350,l),
(457,266,ls),
(461,258,o),
(463,251,o),
(463,245,cs),
(463,233,o),
(455,225,o),
(438,225,cs),
(435,225,ls),
(430,225,o),
(427,222,o),
(427,217,cs),
(427,194,ls),
(427,189,o),
(430,187,o),
(435,187,cs),
(600,187,ls),
(605,187,o),
(607,189,o),
(607,194,cs),
(607,217,ls),
(607,222,o),
(605,225,o),
(600,225,cs)
);
},
{
closed = 1;
nodes = (
(345,395,l),
(345,525,l),
(391,525,ls),
(433,525,o),
(464,511,o),
(464,463,cs),
(464,417,o),
(433,395,o),
(375,395,cs)
);
}
);
width = 788;
}
);
note = registered;
unicode = 174;
},
{
glyphname = trademark;
lastChange = "2023-03-30 09:40:38 +0000";
layers = (
{
layerId = "6AD408C6-91F3-4F0B-A103-73D10F5280D9";
shapes = (
{
closed = 1;
nodes = (
(786,724,l),
(793,727,o),
(799,728,o),
(807,728,cs),
(814,728,o),
(821,735,o),
(821,742,cs),
(821,756,ls),
(821,764,o),
(814,771,o),
(807,771,cs),
(721,771,ls),
(715,771,o),
(709,768,o),
(706,763,cs),
(597,542,l),
(487,763,ls),
(484,768,o),
(478,771,o),
(472,771,cs),
(387,771,ls),
(379,771,o),
(372,764,o),
(372,756,cs),
(372,742,ls),
(372,735,o),
(379,728,o),
(387,728,cs),
(394,728,o),
(401,727,o),
(407,724,c),
(407,492,ls),
(407,470,o),
(399,457,o),
(381,457,cs),
(374,457,o),
(366,450,o),
(366,442,cs),
(366,428,ls),
(366,421,o),
(374,413,o),
(381,413,cs),
(494,413,ls),
(501,413,o),
(508,421,o),
(508,428,cs),
(508,442,ls),
(508,450,o),
(501,457,o),
(494,457,cs),
(476,457,o),
(468,470,o),
(468,492,cs),
(468,630,l),
(560,444,ls),
(563,438,o),
(569,434,o),
(576,434,cs),
(617,434,ls),
(624,434,o),
(630,438,o),
(633,444,cs),
(725,630,l),
(725,492,ls),
(725,470,o),
(717,457,o),
(700,457,cs),
(692,457,o),
(685,450,o),
(685,442,cs),
(685,428,ls),
(685,421,o),
(692,413,o),
(700,413,cs),
(812,413,ls),
(820,413,o),
(827,421,o),
(827,428,cs),
(827,442,ls),
(827,450,o),
(820,457,o),
(812,457,cs),
(794,457,o),
(786,470,o),
(786,492,cs)
);
},
{
closed = 1;
nodes = (
(77,772,ls),
(69,772,o),
(69,777,o),
(62,777,cs),
(56,777,o),
(53,774,o),
(51,770,cs),
(14,703,ls),
(10,696,o),
(13,687,o),
(20,683,cs),
(39,672,ls),
(46,668,o),
(55,670,o),
(61,680,cs),
(78,708,o),
(100,719,o),
(136,719,cs),
(150,719,l),
(150,493,ls),
(150,470,o),
(145,457,o),
(127,457,cs),
(124,457,ls),
(117,457,o),
(110,450,o),
(110,442,cs),
(110,429,ls),
(110,421,o),
(117,414,o),
(124,414,cs),
(264,414,ls),
(272,414,o),
(279,421,o),
(279,429,cs),
(279,442,ls),
(279,450,o),
(272,457,o),
(264,457,cs),
(261,457,ls),
(244,457,o),
(239,470,o),
(239,492,cs),
(239,719,l),
(253,719,ls),
(289,719,o),
(311,708,o),
(328,680,cs),
(334,670,o),
(343,668,o),
(350,672,cs),
(369,683,ls),
(376,687,o),
(379,696,o),
(375,703,cs),
(338,770,ls),
(336,774,o),
(333,777,o),
(327,777,cs),
(320,777,o),
(320,772,o),
(312,772,cs)
);
}
);
width = 839;
}
);
note = trademark;
unicode = 8482;
},
{
glyphname = degree;
lastChange = "2023-03-30 09:40:37 +0000";
layers = (
{
layerId = "6AD408C6-91F3-4F0B-A103-73D10F5280D9";
shapes = (
{
closed = 1;
nodes = (
(251,530,o),
(315,578,o),
(315,655,cs),
(315,732,o),
(251,780,o),
(177,780,cs),
(104,780,o),
(40,732,o),
(40,655,cs),
(40,578,o),
(104,530,o),
(177,530,cs)
);
},
{
closed = 1;
nodes = (
(144,600,o),
(117,624,o),
(117,655,cs),
(117,685,o),
(144,710,o),
(177,710,cs),
(211,710,o),
(238,685,o),
(238,655,cs),
(238,624,o),
(211,600,o),
(177,600,cs)
);
}
);
width = 355;
}
);
note = degree;
unicode = 176;
},
{
glyphname = minute;
lastChange = "2023-03-30 09:35:03 +0000";
layers = (
{
layerId = "6AD408C6-91F3-4F0B-A103-73D10F5280D9";
shapes = (
{
closed = 1;
nodes = (
(81,787,ls),
(71,787,o),
(67,782,o),
(66,771,cs),
(30,506,ls),
(29,496,o),
(36,491,o),
(46,491,cs),
(90,491,ls),
(100,491,o),
(103,496,o),
(106,506,cs),
(190,771,ls),
(193,782,o),
(185,787,o),
(175,787,cs)
);
}
);
width = 221;
}
);
unicode = 8242;
},
{
glyphname = bar;
lastChange = "2023-03-30 09:40:38 +0000";
layers = (
{
layerId = "6AD408C6-91F3-4F0B-A103-73D10F5280D9";
shapes = (
{
closed = 1;
nodes = (
(251,-132,ls),
(251,-142,o),
(256,-147,o),
(266,-147,cs),
(334,-147,ls),
(343,-147,o),
(349,-142,o),
(349,-132,cs),
(349,759,ls),
(349,769,o),
(343,774,o),
(334,774,cs),
(266,774,ls),
(256,774,o),
(251,769,o),
(251,759,cs)
);
}
);
width = 600;
}
);
note = bar;
unicode = 124;
},
{
glyphname = brokenbar;
lastChange = "2023-03-30 09:40:38 +0000";
layers = (
{
layerId = "6AD408C6-91F3-4F0B-A103-73D10F5280D9";
shapes = (
{
closed = 1;
nodes = (
(251,430,ls),
(251,420,o),
(256,415,o),
(266,415,cs),
(334,415,ls),
(343,415,o),
(349,420,o),
(349,430,cs),
(349,759,ls),
(349,769,o),
(343,774,o),
(334,774,cs),
(266,774,ls),
(256,774,o),
(251,769,o),
(251,759,cs)
);
},
{
closed = 1;
nodes = (
(251,-132,ls),
(251,-142,o),
(256,-147,o),
(266,-147,cs),
(334,-147,ls),
(343,-147,o),
(349,-142,o),
(349,-132,cs),
(349,197,ls),
(349,207,o),
(343,212,o),
(334,212,cs),
(266,212,ls),
(256,212,o),
(251,207,o),
(251,197,cs)
);
}
);
width = 600;
}
);
note = brokenbar;
unicode = 166;
},
{
glyphname = dagger;
lastChange = "2023-03-30 09:40:37 +0000";
layers = (
{
layerId = "6AD408C6-91F3-4F0B-A103-73D10F5280D9";
shapes = (
{
closed = 1;
nodes = (
(548,484,ls),
(548,493,o),
(543,499,o),
(534,498,cs),
(357,486,l),
(372,706,ls),
(373,716,o),
(368,722,o),
(358,722,cs),
(260,722,ls),
(251,722,o),
(245,717,o),
(246,706,cs),
(260,486,l),
(85,498,ls),
(75,499,o),
(70,494,o),
(70,484,cs),
(70,410,ls),
(70,401,o),
(75,396,o),
(84,396,cs),
(260,408,l),
(245,-131,ls),
(245,-140,o),
(250,-146,o),
(260,-146,cs),
(358,-146,ls),
(368,-146,o),
(373,-140,o),
(373,-132,cs),
(357,408,l),
(532,396,ls),
(542,395,o),
(548,400,o),
(548,410,cs)
);
}
);
width = 618;
}
);
note = dagger;
unicode = 8224;
},
{
glyphname = literSign;
lastChange = "2023-03-30 09:35:03 +0000";
layers = (
{
layerId = "6AD408C6-91F3-4F0B-A103-73D10F5280D9";
shapes = (
{
closed = 1;
nodes = (
(345,76,o),
(331,67,o),
(312,67,cs),
(287,67,o),
(282,81,o),
(282,111,cs),
(282,486,ls),
(282,598,o),
(291,634,o),
(318,634,cs),
(344,634,o),
(357,603,o),
(357,556,cs),
(357,485,o),
(327,440,o),
(276,388,cs),
(80,190,l),
(125,138,l),
(324,334,ls),
(406,414,o),
(437,466,o),
(437,556,cs),
(437,652,o),
(394,714,o),
(318,714,cs),
(236,714,o),
(192,647,o),
(192,486,cs),
(192,111,ls),
(192,37,o),
(226,-13,o),
(293,-13,cs),
(321,-13,o),
(350,-4,o),
(393,29,cs),
(427,55,l),
(384,106,l),
(363,90,ls)
);
}
);
width = 517;
}
);
unicode = 8467;
},
{
glyphname = daggerdbl;
lastChange = "2023-03-30 09:40:38 +0000";
layers = (
{
layerId = "6AD408C6-91F3-4F0B-A103-73D10F5280D9";
shapes = (
{
closed = 1;
nodes = (
(357,210,l),
(357,408,l),
(532,396,ls),
(542,395,o),
(548,400,o),
(548,410,cs),
(548,484,ls),
(548,493,o),
(543,499,o),
(534,498,cs),
(357,486,l),
(372,706,ls),
(373,716,o),
(368,722,o),
(358,722,cs),
(260,722,ls),
(251,722,o),
(245,717,o),
(246,706,cs),
(260,486,l),
(85,498,ls),
(75,499,o),
(70,494,o),
(70,484,cs),
(70,410,ls),
(70,401,o),
(75,395,o),
(84,396,cs),
(260,408,l),
(260,210,l),
(85,222,ls),
(75,222,o),
(70,217,o),
(70,207,cs),
(70,134,ls),
(70,125,o),
(75,118,o),
(84,119,cs),
(260,131,l),
(245,-131,ls),
(245,-140,o),
(250,-146,o),
(260,-146,cs),
(358,-146,ls),
(367,-146,o),
(374,-141,o),
(373,-132,cs),
(357,131,l),
(532,119,ls),
(542,119,o),
(548,124,o),
(548,134,cs),
(548,207,ls),
(548,217,o),
(543,223,o),
(534,222,cs)
);
}
);
width = 618;
}
);
note = daggerdbl;
unicode = 8225;
},
{
glyphname = estimated;
lastChange = "2023-03-30 09:35:03 +0000";
layers = (
{
layerId = "6AD408C6-91F3-4F0B-A103-73D10F5280D9";
shapes = (
{
closed = 1;
nodes = (
(536,96,o),
(460,51,o),
(359,51,cs),
(280,51,o),
(207,82,o),
(159,146,c),
(159,321,l),
(687,321,l),
(687,351,ls),
(687,578,o),
(526,709,o),
(359,709,cs),
(191,709,o),
(30,578,o),
(30,351,cs),
(30,122,o),
(191,-9,o),
(359,-9,cs),
(481,-9,o),
(590,53,o),
(654,148,cs),
(673,176,l),
(615,209,l),
(596,182,ls)
);
},
{
closed = 1;
nodes = (
(159,554,l),
(207,618,o),
(280,649,o),
(359,649,cs),
(437,649,o),
(509,618,o),
(557,556,c),
(557,381,l),
(159,381,l)
);
}
);
width = 717;
}
);
unicode = 8494;
},
{
glyphname = numero;
lastChange = "2023-03-30 09:40:37 +0000";
layers = (
{
layerId = "6AD408C6-91F3-4F0B-A103-73D10F5280D9";
shapes = (
{
ref = N;
},
{
alignment = -1;
pos = (897,249);
ref = o;
scale = (0.8789,0.8789);
},
{
closed = 1;
nodes = (
(916,124,ls),
(916,114,o),
(921,109,o),
(931,109,cs),
(1366,109,ls),
(1376,109,o),
(1381,114,o),
(1381,124,cs),
(1381,190,ls),
(1381,200,o),
(1376,205,o),
(1366,205,cs),
(931,205,ls),
(921,205,o),
(916,200,o),
(916,190,cs)
);
}
);
width = 1411;
}
);
unicode = 8470;
},
{
glyphname = blackDownEquilateralArrowhead;
lastChange = "2023-03-30 09:35:03 +0000";
layers = (
{
layerId = "6AD408C6-91F3-4F0B-A103-73D10F5280D9";
shapes = (
{
closed = 1;
nodes = (
(315,331,l),
(70,438,ls),
(68,439,o),
(65,440,o),
(63,440,cs),
(55,440,o),
(50,433,o),
(50,425,cs),
(50,422,o),
(51,419,o),
(52,417,cs),
(305,-22,ls),
(307,-26,o),
(311,-29,o),
(315,-29,cs),
(319,-29,o),
(323,-26,o),
(325,-22,cs),
(578,417,ls),
(580,421,o),
(581,424,o),
(581,427,cs),
(581,435,o),
(575,440,o),
(568,440,cs),
(565,440,o),
(562,439,o),
(560,438,cs)
);
}
);
width = 631;
}
);
metricLeft = "=50";
metricRight = "=|";
unicode = 11167;
},
{
glyphname = blackLargeSquare;
lastChange = "2023-03-30 09:35:03 +0000";
layers = (
{
layerId = "6AD408C6-91F3-4F0B-A103-73D10F5280D9";
shapes = (
{
closed = 1;
nodes = (
(761,-120,ls),
(766,-120,o),
(770,-116,o),
(770,-111,cs),
(770,591,ls),
(770,596,o),
(766,600,o),
(761,600,cs),
(59,600,ls),
(54,600,o),
(50,596,o),
(50,591,cs),
(50,-111,ls),
(50,-116,o),
(54,-120,o),
(59,-120,cs)
);
}
);
width = 820;
}
);
metricLeft = "=50";
metricRight = "=|";
unicode = 11035;
},
{
glyphname = optionKey;
lastChange = "2023-03-30 09:35:03 +0000";
layers = (
{
layerId = "6AD408C6-91F3-4F0B-A103-73D10F5280D9";
shapes = (
{
closed = 1;
nodes = (
(406,68,l),
(219,487,ls),
(218,490,o),
(215,492,o),
(212,492,cs),
(59,492,ls),
(54,492,o),
(50,488,o),
(50,483,cs),
(50,421,ls),
(50,416,o),
(54,412,o),
(59,412,cs),
(165,412,l),
(352,-7,ls),
(353,-10,o),
(356,-12,o),
(359,-12,cs),
(592,-12,ls),
(597,-12,o),
(601,-8,o),
(601,-3,cs),
(601,59,ls),
(601,64,o),
(597,68,o),
(592,68,cs)
);
},
{
closed = 1;
nodes = (
(342,492,ls),
(337,492,o),
(333,488,o),
(333,483,cs),
(333,421,ls),
(333,416,o),
(337,412,o),
(342,412,cs),
(592,412,ls),
(597,412,o),
(601,416,o),
(601,421,cs),
(601,483,ls),
(601,488,o),
(597,492,o),
(592,492,cs)
);
}
);
width = 651;
}
);
metricLeft = "=50";
metricRight = "=|";
unicode = 8997;
},
{
glyphname = propellor;
lastChange = "2023-03-30 09:35:03 +0000";
layers = (
{
layerId = "6AD408C6-91F3-4F0B-A103-73D10F5280D9";
shapes = (
{
closed = 1;
nodes = (
(388,105,ls),
(388,3,o),
(435,-54,o),
(515,-54,cs),
(589,-54,o),
(638,-5,o),
(638,69,cs),
(638,149,o),
(581,196,o),
(479,196,cs),
(209,196,ls),
(107,196,o),
(50,149,o),
(50,69,cs),
(50,-5,o),
(99,-54,o),
(173,-54,cs),
(253,-54,o),
(300,3,o),
(300,105,cs),
(300,375,ls),
(300,477,o),
(253,534,o),
(173,534,cs),
(99,534,o),
(50,485,o),
(50,411,cs),
(50,331,o),
(107,284,o),
(209,284,cs),
(479,284,ls),
(581,284,o),
(638,331,o),
(638,411,cs),
(638,485,o),
(589,534,o),
(515,534,cs),
(435,534,o),
(388,477,o),
(388,375,cs)
);
},
{
closed = 1;
nodes = (
(458,446,o),
(472,464,o),
(515,464,cs),
(555,464,o),
(568,451,o),
(568,411,cs),
(568,368,o),
(550,354,o),
(479,354,cs),
(209,354,ls),
(138,354,o),
(120,368,o),
(120,411,cs),
(120,451,o),
(133,464,o),
(173,464,cs),
(216,464,o),
(230,446,o),
(230,375,cs),
(230,105,ls),
(230,34,o),
(216,16,o),
(173,16,cs),
(133,16,o),
(120,29,o),
(120,69,cs),
(120,112,o),
(138,126,o),
(209,126,cs),
(479,126,ls),
(550,126,o),
(568,112,o),
(568,69,cs),
(568,29,o),
(555,16,o),
(515,16,cs),
(472,16,o),
(458,34,o),
(458,105,cs),
(458,375,ls)
);
}
);
width = 688;
}
);
metricLeft = "=50";
metricRight = "=|";
unicode = 8984;
},
{
glyphname = threeDLeftLightedDownEquilateralArrowhead;
lastChange = "2023-03-30 09:35:03 +0000";
layers = (
{
layerId = "6AD408C6-91F3-4F0B-A103-73D10F5280D9";
shapes = (
{
closed = 1;
nodes = (
(345,36,l),
(148,377,l),
(345,292,l)
);
},
{
closed = 1;
nodes = (
(345,346,l),
(73,465,ls),
(71,466,o),
(68,467,o),
(65,467,cs),
(56,467,o),
(50,459,o),
(50,451,cs),
(50,447,o),
(51,443,o),
(53,441,cs),
(334,-46,ls),
(336,-51,o),
(341,-54,o),
(345,-54,cs),
(349,-54,o),
(354,-51,o),
(356,-46,cs),
(637,441,ls),
(640,446,o),
(641,450,o),
(641,453,cs),
(641,462,o),
(634,467,o),
(626,467,cs),
(622,467,o),
(619,466,o),
(617,465,cs)
);
}
);
width = 691;
}
);
metricLeft = "=50";
metricRight = "=|";
unicode = 11163;
},
{
glyphname = viewdataSquare;
lastChange = "2023-03-30 09:35:03 +0000";
layers = (
{
layerId = "6AD408C6-91F3-4F0B-A103-73D10F5280D9";
shapes = (
{
closed = 1;
nodes = (
(170,-3,ls),
(170,-8,o),
(174,-12,o),
(179,-12,cs),
(257,-12,ls),
(262,-12,o),
(266,-8,o),
(266,-3,cs),
(266,483,ls),
(266,488,o),
(262,492,o),
(257,492,cs),
(179,492,ls),
(174,492,o),
(170,488,o),
(170,483,cs)
);
},
{
closed = 1;
nodes = (
(338,-3,ls),
(338,-8,o),
(342,-12,o),
(347,-12,cs),
(425,-12,ls),
(430,-12,o),
(434,-8,o),
(434,-3,cs),
(434,483,ls),
(434,488,o),
(430,492,o),
(425,492,cs),
(347,492,ls),
(342,492,o),
(338,488,o),
(338,483,cs)
);
},
{
closed = 1;
nodes = (
(59,204,ls),
(54,204,o),
(50,200,o),
(50,195,cs),
(50,117,ls),
(50,112,o),
(54,108,o),
(59,108,cs),
(545,108,ls),
(550,108,o),
(554,112,o),
(554,117,cs),
(554,195,ls),
(554,200,o),
(550,204,o),
(545,204,cs)
);
},
{
closed = 1;
nodes = (
(59,372,ls),
(54,372,o),
(50,368,o),
(50,363,cs),
(50,285,ls),
(50,280,o),
(54,276,o),
(59,276,cs),
(545,276,ls),
(550,276,o),
(554,280,o),
(554,285,cs),
(554,363,ls),
(554,368,o),
(550,372,o),
(545,372,cs)
);
}
);
width = 604;
}
);
metricLeft = "=50";
metricRight = "=|";
unicode = 8983;
},
{
glyphname = whiteLargeSquare;
lastChange = "2023-03-30 09:35:03 +0000";
layers = (
{
layerId = "6AD408C6-91F3-4F0B-A103-73D10F5280D9";
shapes = (
{
closed = 1;
nodes = (
(761,-120,ls),
(766,-120,o),
(770,-116,o),
(770,-111,cs),
(770,591,ls),
(770,596,o),
(766,600,o),
(761,600,cs),
(59,600,ls),
(54,600,o),
(50,596,o),
(50,591,cs),
(50,-111,ls),
(50,-116,o),
(54,-120,o),
(59,-120,cs)
);
},
{
closed = 1;
nodes = (
(146,504,l),
(674,504,l),
(674,-24,l),
(146,-24,l)
);
}
);
width = 820;
}
);
metricLeft = "=50";
metricRight = "=|";
unicode = 11036;
},
{
glyphname = cent;
lastChange = "2023-03-30 09:40:37 +0000";
layers = (
{
hints = (
{
horizontal = 1;
place = (-3.84, 21);
target = up;
type = BottomGhost;
},
{
horizontal = 1;
place = (509.62, -20);
target = down;
type = TopGhost;
},
{
horizontal = 1;
place = (503.46, -20);
target = down;
type = TopGhost;
},
{
horizontal = 1;
place = (-5.33, 21);
target = up;
type = BottomGhost;
}
);
layerId = "6AD408C6-91F3-4F0B-A103-73D10F5280D9";
shapes = (
{
ref = c;
},
{
closed = 1;
nodes = (
(316,469,l),
(316,689,ls),
(316,699,o),
(310,704,o),
(301,704,cs),
(233,704,ls),
(223,704,o),
(218,699,o),
(218,689,cs),
(218,459,l)
);
},
{
closed = 1;
nodes = (
(218,28,l),
(218,-180,ls),
(218,-189,o),
(223,-195,o),
(233,-195,cs),
(301,-195,ls),
(310,-195,o),
(316,-189,o),
(316,-180,cs),
(316,26,l)
);
}
);
width = 498;
}
);
note = cent;
unicode = 162;
},
